<?xml version="1.0" encoding="utf-8" ?>
<!-- Generator: Adobe Illustrator 24.0.1, SVG Export Plug-In . SVG Version: 6.00 Build 0)  -->
<svg
  version="1.1"
  id="logo"
  xmlns="http://www.w3.org/2000/svg"
  xmlns:xlink="http://www.w3.org/1999/xlink"
  x="0px"
  y="0px"
  viewBox="0 0 281.25 47.5"
  style="enable-background:new 0 0 281.25 47.5;"
  xml:space="preserve"
>
<style type="text/css">
	.st0{fill:#5C6BC0;}
	.st1{fill:#FFA726;}
</style>
<g>
	<polygon
      class="st0"
      points="82.48,36.57 76.67,36.57 70.35,26.4 68.19,27.95 68.19,36.57 63.08,36.57 63.08,12.44 68.19,12.44
		68.19,23.48 70.21,20.64 76.74,12.44 82.42,12.44 74,23.12 	"
    />
	<path
      class="st0"
      d="M98.37,19.36c-1.32-1.08-3.22-1.62-5.69-1.62c-2.58,0-4.94,0.56-7.06,1.67l1.67,3.4
		c1.99-0.89,3.72-1.34,5.2-1.34c1.91,0,2.87,0.94,2.87,2.81v0.81l-3.2,0.1c-2.76,0.1-4.83,0.61-6.2,1.54s-2.05,2.37-2.05,4.33
		c0,1.87,0.51,3.31,1.53,4.32c1.02,1.01,2.41,1.52,4.18,1.52c1.44,0,2.61-0.21,3.51-0.62c0.9-0.41,1.77-1.15,2.62-2.22h0.13
		l0.97,2.51h3.51V24.27C100.35,22.07,99.69,20.43,98.37,19.36z M95.35,29.54c0,1.11-0.35,2-1.05,2.67c-0.7,0.67-1.63,1.01-2.8,1.01
		c-1.63,0-2.44-0.71-2.44-2.13c0-0.99,0.36-1.73,1.07-2.21c0.71-0.48,1.8-0.75,3.27-0.79l1.95-0.07V29.54z"
    />
	<path
      class="st0"
      d="M122.56,36.57h-5.03V25.79c0-1.33-0.24-2.33-0.71-2.99c-0.47-0.67-1.23-1-2.26-1c-1.41,0-2.43,0.47-3.05,1.41
		s-0.94,2.5-0.94,4.68v8.68h-5.03V18.12h3.84l0.68,2.36h0.28c0.56-0.89,1.33-1.56,2.32-2.02c0.98-0.46,2.1-0.68,3.36-0.68
		c2.15,0,3.77,0.58,4.88,1.74c1.11,1.16,1.67,2.84,1.67,5.02V36.57z"
    />
	<path
      class="st0"
      d="M143.41,22.24c-0.73-1.44-1.77-2.55-3.12-3.32c-1.35-0.77-2.91-1.16-4.69-1.16c-2.85,0-5.06,0.84-6.63,2.51
		c-1.57,1.67-2.36,4.02-2.36,7.03c0,1.94,0.36,3.63,1.09,5.08c0.73,1.45,1.77,2.57,3.12,3.34c1.35,0.78,2.92,1.16,4.69,1.16
		c2.83,0,5.03-0.85,6.62-2.54c1.58-1.69,2.38-4.04,2.38-7.04C144.5,25.37,144.14,23.69,143.41,22.24z M138.47,31.46
		c-0.59,0.93-1.55,1.39-2.9,1.39c-1.35,0-2.33-0.47-2.93-1.4c-0.6-0.93-0.9-2.31-0.9-4.14c0-1.84,0.3-3.21,0.89-4.12
		c0.59-0.91,1.56-1.36,2.9-1.36c1.35,0,2.33,0.46,2.92,1.37c0.59,0.91,0.89,2.28,0.89,4.11C139.36,29.15,139.06,30.53,138.47,31.46z
		"
    />
	<path
      class="st0"
      d="M165.69,36.57h-5.03V25.79c0-1.33-0.24-2.33-0.71-2.99c-0.47-0.67-1.23-1-2.26-1c-1.41,0-2.43,0.47-3.05,1.41
		s-0.94,2.5-0.94,4.68v8.68h-5.03V18.12h3.84l0.68,2.36h0.28c0.56-0.89,1.33-1.56,2.32-2.02c0.98-0.46,2.1-0.68,3.36-0.68
		c2.14,0,3.77,0.58,4.88,1.74c1.11,1.16,1.67,2.84,1.67,5.02V36.57z"
    />
	<path
      class="st0"
      d="M187.59,16.35c-1.92,0-3.42,0.72-4.47,2.17s-1.58,3.46-1.58,6.05c0,5.38,2.02,8.07,6.06,8.07
		c1.69,0,3.75-0.42,6.15-1.27v4.29c-1.98,0.83-4.19,1.24-6.63,1.24c-3.51,0-6.19-1.06-8.05-3.19c-1.86-2.13-2.79-5.18-2.79-9.17
		c0-2.51,0.46-4.7,1.37-6.59c0.91-1.89,2.22-3.33,3.93-4.34c1.71-1.01,3.72-1.51,6.01-1.51c2.34,0,4.7,0.57,7.06,1.7L193,17.95
		c-0.9-0.43-1.81-0.8-2.72-1.12C189.36,16.51,188.47,16.35,187.59,16.35z"
    />
	<path
      class="st0"
      d="M211.03,18.93c-1.35-0.77-2.92-1.16-4.69-1.16c-2.85,0-5.06,0.84-6.63,2.51c-1.57,1.67-2.36,4.02-2.36,7.03
		c0,1.94,0.36,3.63,1.09,5.08c0.73,1.45,1.77,2.57,3.12,3.34c1.35,0.78,2.91,1.16,4.69,1.16c2.83,0,5.03-0.85,6.62-2.54
		c1.58-1.69,2.38-4.04,2.38-7.04c0-1.94-0.36-3.62-1.09-5.07C213.42,20.8,212.38,19.7,211.03,18.93z M209.21,31.46
		c-0.59,0.93-1.55,1.39-2.9,1.39c-1.35,0-2.33-0.47-2.93-1.4c-0.6-0.93-0.9-2.31-0.9-4.14c0-1.84,0.3-3.21,0.89-4.12
		c0.59-0.91,1.56-1.36,2.9-1.36c1.35,0,2.33,0.46,2.92,1.37c0.59,0.91,0.89,2.28,0.89,4.11C210.09,29.15,209.8,30.53,209.21,31.46z"
    />
	<path
      class="st0"
      d="M230.47,16.8c0,1.08,0.13,2.3,0.38,3.68h-0.17c-1.22-1.8-2.99-2.71-5.31-2.71c-2.21,0-3.95,0.84-5.21,2.53
		s-1.89,4.05-1.89,7.07c0,2.98,0.62,5.31,1.86,7s2.94,2.52,5.11,2.52c2.34,0,4.09-0.91,5.23-2.72h0.21l0.97,2.39h3.86V10.89h-5.05
		V16.8z M230.81,27.95c-0.06,1.79-0.38,3.06-0.98,3.81c-0.6,0.75-1.54,1.12-2.83,1.12c-1.17,0-2.06-0.45-2.69-1.36
		c-0.63-0.91-0.94-2.27-0.94-4.08c0-1.82,0.31-3.2,0.93-4.15c0.62-0.95,1.49-1.43,2.62-1.43c1.37,0,2.37,0.43,2.98,1.29
		s0.92,2.28,0.92,4.26V27.95z"
    />
	<path
      class="st0"
      d="M256.65,26.15c0-2.62-0.73-4.67-2.18-6.15c-1.45-1.48-3.48-2.23-6.09-2.23c-2.73,0-4.86,0.84-6.41,2.53
		c-1.54,1.69-2.32,4.08-2.32,7.17c0,3,0.84,5.32,2.51,6.96c1.67,1.64,3.99,2.46,6.96,2.46c1.44,0,2.66-0.11,3.66-0.32
		c1-0.21,1.94-0.54,2.82-0.98V31.7c-1.08,0.51-2.11,0.87-3.1,1.11c-0.99,0.23-2.04,0.35-3.15,0.35c-1.43,0-2.54-0.4-3.33-1.21
		c-0.79-0.8-1.22-1.92-1.27-3.35h11.9V26.15z M244.87,25.25c0.09-1.24,0.43-2.2,1.04-2.88c0.6-0.68,1.44-1.01,2.51-1.01
		c1.07,0,1.91,0.34,2.54,1.01s0.95,1.64,0.97,2.88H244.87z"
    />
	<polygon
      class="st0"
      points="53.32,19.09 53.32,15.96 39.78,23.78 39.78,39.41 53.32,31.59 53.32,28.47 42.48,34.72 42.48,25.34
		"
    />
	<polygon class="st0" points="33.83,16.14 36.54,17.7 43.54,13.66 40.83,12.1 	" />
	<polygon
      class="st1"
      points="30.01,15.01 36.58,11.21 36.58,8.09 24.6,15.01 36.58,21.93 36.58,18.8 	"
    />
	<polygon
      class="st1"
      points="47.94,15.01 41.37,11.22 41.37,8.09 53.35,15.01 41.37,21.93 41.37,18.8 	"
    />
	<polygon
      class="st0"
      points="36.31,34.18 36.1,33.61 35.07,30.66 33.38,25.84 33.99,25.57 38.04,23.73 35.16,22.06 30.33,24.26
		30,24.4 27.3,25.63 27.3,23.78 27.3,17.53 24.6,15.96 24.6,31.6 27.3,33.16 27.3,28.6 30.59,27.11 30.9,26.97 34.54,37.32
		38.14,39.4 	"
    />
</g>
</svg>
