<?xml version="1.0" encoding="UTF-8" standalone="no"?>
<!DOCTYPE svg PUBLIC "-//W3C//DTD SVG 1.1//EN" "http://www.w3.org/Graphics/SVG/1.1/DTD/svg11.dtd">
<svg version="1.1" xmlns="http://www.w3.org/2000/svg" xmlns:xlink="http://www.w3.org/1999/xlink" preserveAspectRatio="xMidYMid meet" viewBox="0 0 528.04 71.27" width="414.9" height="56"><defs><path d="M118.49 64.81L104.1 41.67L99.19 45.19L99.19 64.81L87.56 64.81L87.56 9.9L99.19 9.9L99.19 35.02L103.79 28.56L118.64 9.9L131.57 9.9L112.41 34.2L131.71 64.81L118.49 64.81Z" id="b1JbeZobQt"></path><path d="M154.92 21.96C149.05 21.96 143.68 23.23 138.85 25.76C139.23 26.53 142.27 32.72 142.65 33.5C147.18 31.47 151.12 30.45 154.48 30.45C158.83 30.45 161.02 32.59 161.02 36.84C161.02 36.96 161.02 37.58 161.02 38.68C156.65 38.82 154.22 38.9 153.73 38.91C147.45 39.14 142.74 40.3 139.63 42.42C136.51 44.53 134.96 47.81 134.96 52.27C134.96 56.52 136.12 59.8 138.44 62.1C140.76 64.4 143.93 65.56 147.95 65.56C151.23 65.56 153.89 65.08 155.94 64.15C157.99 63.21 159.97 61.53 161.9 59.1C161.92 59.1 162.02 59.1 162.2 59.1L164.41 64.81L172.39 64.81C172.39 48.01 172.39 38.68 172.39 36.82C172.37 31.81 170.87 28.08 167.87 25.65C164.86 23.19 160.54 21.96 154.92 21.96ZM158.6 54.89C157.01 56.41 154.89 57.18 152.23 57.18C148.52 57.18 146.68 55.57 146.68 52.34C146.68 50.08 147.5 48.4 149.11 47.31C150.73 46.22 153.21 45.6 156.56 45.51C156.85 45.5 158.33 45.45 160.99 45.35L160.99 48.81C160.46 51.84 159.67 53.87 158.6 54.89Z" id="a2wdRKhaj"></path><path d="M211.46 64.81C211.46 50.09 211.46 41.91 211.46 40.28C211.46 37.25 210.92 34.98 209.85 33.47C208.78 31.95 207.05 31.2 204.71 31.2C201.5 31.2 199.18 32.27 197.77 34.41C196.36 36.55 195.63 40.1 195.63 45.06C195.63 46.37 195.63 52.96 195.63 64.81L184.18 64.81L184.18 22.82L192.92 22.82L194.47 28.19C194.85 28.19 195.06 28.19 195.1 28.19C196.38 26.17 198.13 24.64 200.38 23.6C202.61 22.55 205.16 22.05 208.03 22.05C212.92 22.05 216.61 23.37 219.13 26.01C221.66 28.65 222.93 32.47 222.93 37.43C222.93 39.26 222.93 48.38 222.93 64.81L211.46 64.81Z" id="a2AeVuWgG"></path><path d="M263.26 24.64C260.18 22.89 256.63 22 252.58 22C246.1 22 241.07 23.92 237.5 27.72C233.92 31.52 232.13 36.86 232.13 43.71C232.13 48.13 232.95 51.97 234.61 55.27C236.27 58.57 238.63 61.12 241.71 62.87C244.78 64.65 248.35 65.51 252.38 65.51C258.82 65.51 263.83 63.58 267.44 59.73C271.04 55.89 272.86 50.54 272.86 43.71C272.84 39.32 272.02 35.5 270.36 32.2C268.69 28.92 266.33 26.4 263.26 24.64ZM252.52 56.34C249.44 56.34 247.21 55.27 245.85 53.16C244.48 51.04 243.8 47.9 243.8 43.74C243.8 39.55 244.48 36.43 245.83 34.36C247.17 32.29 249.38 31.27 252.42 31.27C255.5 31.27 257.73 32.31 259.07 34.38C260.41 36.45 261.09 39.57 261.09 43.74C261.14 47.92 260.46 51.06 259.11 53.18C257.77 55.3 255.59 56.34 252.52 56.34Z" id="b61j01OqN"></path><path d="M309.61 64.81C309.61 50.09 309.61 41.91 309.61 40.28C309.61 37.25 309.06 34.98 307.99 33.47C306.92 31.95 305.19 31.2 302.85 31.2C299.64 31.2 297.32 32.27 295.91 34.41C294.5 36.55 293.77 40.1 293.77 45.06C293.77 46.37 293.77 52.96 293.77 64.81L282.33 64.81L282.33 22.82L291.06 22.82L292.61 28.19C292.99 28.19 293.21 28.19 293.25 28.19C294.52 26.17 296.27 24.64 298.53 23.6C300.76 22.55 303.31 22.05 306.17 22.05C311.04 22.05 314.75 23.37 317.28 26.01C319.8 28.65 321.08 32.47 321.08 37.43C321.08 39.26 321.08 48.38 321.08 64.81L309.61 64.81Z" id="bkfhMgond"></path><path d="M360.72 23.73C358.33 27.03 357.12 31.61 357.12 37.5C357.12 49.74 361.72 55.86 370.91 55.86C374.76 55.86 379.45 54.91 384.91 52.97C384.91 53.95 384.91 61.76 384.91 62.74C380.4 64.63 375.37 65.56 369.82 65.56C361.83 65.56 355.73 63.15 351.5 58.3C347.27 53.45 345.15 46.51 345.15 37.43C345.15 31.72 346.2 26.74 348.27 22.44C350.34 18.14 353.32 14.86 357.21 12.56C361.11 10.26 365.68 9.12 370.89 9.12C376.21 9.12 381.59 10.42 386.96 12.99C386.58 13.94 383.58 21.49 383.2 22.44C381.15 21.46 379.08 20.62 377.01 19.89C374.92 19.16 372.89 18.8 370.89 18.8C366.52 18.8 363.11 20.43 360.72 23.73Z" id="b27v9UWhTg"></path><path d="M412.58 22C406.09 22 401.06 23.92 397.49 27.72C393.92 31.52 392.12 36.86 392.12 43.71C392.12 48.13 392.94 51.97 394.6 55.27C396.26 58.57 398.63 61.12 401.7 62.87C404.77 64.65 408.32 65.51 412.37 65.51C418.81 65.51 423.82 63.58 427.44 59.73C431.03 55.89 432.85 50.54 432.85 43.71C432.85 39.3 432.03 35.48 430.37 32.18C428.69 28.9 426.32 26.4 423.25 24.64C420.18 22.89 416.6 22 412.58 22ZM412.51 56.32C409.44 56.32 407.21 55.25 405.84 53.13C404.48 51.02 403.79 47.88 403.79 43.71C403.79 39.53 404.48 36.41 405.82 34.34C407.16 32.27 409.37 31.24 412.42 31.24C415.49 31.24 417.72 32.29 419.06 34.36C420.4 36.43 421.09 39.55 421.09 43.71C421.11 47.9 420.45 51.04 419.11 53.16C417.76 55.27 415.58 56.32 412.51 56.32Z" id="g57EUrx5E"></path><path d="M469.33 28.19C469.29 28.19 468.98 28.19 468.94 28.19C466.17 24.1 462.14 22.03 456.86 22.03C451.83 22.03 447.87 23.94 445 27.78C442.14 31.63 440.7 37 440.7 43.87C440.7 50.65 442.12 55.96 444.94 59.8C447.76 63.65 451.63 65.54 456.56 65.54C461.89 65.54 465.87 63.47 468.47 59.35C468.5 59.35 468.66 59.35 468.94 59.35L471.15 64.79L479.93 64.79L479.93 6.37L468.44 6.37L468.44 19.82C468.66 23.31 468.95 26.1 469.33 28.19ZM467.01 53.86C465.64 55.57 463.51 56.41 460.57 56.41C457.91 56.41 455.88 55.39 454.45 53.32C453.01 51.25 452.31 48.15 452.31 44.03C452.31 39.89 453.01 36.75 454.43 34.59C455.84 32.43 457.82 31.33 460.39 31.33C463.51 31.33 465.78 32.31 467.17 34.27C468.56 36.23 469.26 39.46 469.26 43.96C469.26 44.05 469.26 44.46 469.26 45.19C468.67 49.83 467.92 52.72 467.01 53.86Z" id="b24D649epg"></path><path d="M523.08 27.1C519.78 23.73 515.16 22.03 509.22 22.03C503.01 22.03 498.16 23.94 494.63 27.78C491.13 31.63 489.36 37.07 489.36 44.1C489.36 50.93 491.27 56.21 495.07 59.94C498.87 63.67 504.15 65.54 510.91 65.54C514.18 65.54 516.96 65.29 519.23 64.81C521.51 64.33 523.65 63.58 525.65 62.58C525.65 61.69 525.65 54.61 525.65 53.73C523.19 54.89 520.85 55.71 518.6 56.25C516.34 56.78 513.95 57.05 511.43 57.05C508.17 57.05 505.65 56.14 503.85 54.29C502.05 52.47 501.07 49.93 500.96 46.67C502.77 46.67 511.79 46.67 528.04 46.67L528.04 41.1C526.93 34.01 525.28 29.35 523.08 27.1ZM503.6 32.49C504.97 30.95 506.88 30.2 509.31 30.2C511.75 30.2 513.66 30.97 515.09 32.49C516.53 34.02 517.25 36.23 517.3 39.05C516.23 39.05 510.87 39.05 501.23 39.05C501.89 35.71 502.68 33.53 503.6 32.49Z" id="c1xiHQ3xVN"></path><path d="M65.35 17.91L34.54 35.7L34.54 71.27L65.35 53.48L65.35 46.38L40.68 60.6L40.68 39.25L65.35 25.03L65.35 17.91Z" id="b5kxP8E4NO"></path><path d="M27.17 21.87L43.1 12.67L36.93 9.12L21 18.32L27.17 21.87Z" id="aalxefURz"></path><path d="M27.26 7.1L27.26 0L0 15.75L27.26 31.49L27.26 24.37L12.31 15.75L27.26 7.1Z" id="cS0E2RMlI"></path><path d="M38.16 7.12L38.16 0L65.42 15.75L38.16 31.49L38.16 24.37L53.11 15.75L38.16 7.12Z" id="alj61I6VX"></path><path d="M26.17 58.07L23.82 51.36L19.98 40.39L21.36 39.78L30.58 35.59L24.03 31.79L13.04 36.8L12.29 37.11L6.14 39.91L6.14 35.7L6.14 21.48L0 17.91L0 53.5L6.14 57.05L6.14 46.67L13.63 43.28L14.33 42.96L22.62 66.51L30.81 71.25L26.64 59.37L26.17 58.07Z" id="i1fChi5AXu"></path></defs><g><g><g><use xlink:href="#b1JbeZobQt" opacity="1" fill="#5c6bc0" fill-opacity="1"></use><g><use xlink:href="#b1JbeZobQt" opacity="1" fill-opacity="0" stroke="#000000" stroke-width="1" stroke-opacity="0"></use></g></g><g><use xlink:href="#a2wdRKhaj" opacity="1" fill="#5c6bc0" fill-opacity="1"></use><g><use xlink:href="#a2wdRKhaj" opacity="1" fill-opacity="0" stroke="#000000" stroke-width="1" stroke-opacity="0"></use></g></g><g><use xlink:href="#a2AeVuWgG" opacity="1" fill="#5c6bc0" fill-opacity="1"></use><g><use xlink:href="#a2AeVuWgG" opacity="1" fill-opacity="0" stroke="#000000" stroke-width="1" stroke-opacity="0"></use></g></g><g><use xlink:href="#b61j01OqN" opacity="1" fill="#5c6bc0" fill-opacity="1"></use><g><use xlink:href="#b61j01OqN" opacity="1" fill-opacity="0" stroke="#000000" stroke-width="1" stroke-opacity="0"></use></g></g><g><use xlink:href="#bkfhMgond" opacity="1" fill="#5c6bc0" fill-opacity="1"></use><g><use xlink:href="#bkfhMgond" opacity="1" fill-opacity="0" stroke="#000000" stroke-width="1" stroke-opacity="0"></use></g></g><g><use xlink:href="#b27v9UWhTg" opacity="1" fill="#5c6bc0" fill-opacity="1"></use><g><use xlink:href="#b27v9UWhTg" opacity="1" fill-opacity="0" stroke="#000000" stroke-width="1" stroke-opacity="0"></use></g></g><g><use xlink:href="#g57EUrx5E" opacity="1" fill="#5c6bc0" fill-opacity="1"></use><g><use xlink:href="#g57EUrx5E" opacity="1" fill-opacity="0" stroke="#000000" stroke-width="1" stroke-opacity="0"></use></g></g><g><use xlink:href="#b24D649epg" opacity="1" fill="#5c6bc0" fill-opacity="1"></use><g><use xlink:href="#b24D649epg" opacity="1" fill-opacity="0" stroke="#000000" stroke-width="1" stroke-opacity="0"></use></g></g><g><use xlink:href="#c1xiHQ3xVN" opacity="1" fill="#5c6bc0" fill-opacity="1"></use><g><use xlink:href="#c1xiHQ3xVN" opacity="1" fill-opacity="0" stroke="#000000" stroke-width="1" stroke-opacity="0"></use></g></g><g><use xlink:href="#b5kxP8E4NO" opacity="1" fill="#5c6bc0" fill-opacity="1"></use><g><use xlink:href="#b5kxP8E4NO" opacity="1" fill-opacity="0" stroke="#000000" stroke-width="1" stroke-opacity="0"></use></g></g><g><use xlink:href="#aalxefURz" opacity="1" fill="#5c6bc0" fill-opacity="1"></use><g><use xlink:href="#aalxefURz" opacity="1" fill-opacity="0" stroke="#000000" stroke-width="1" stroke-opacity="0"></use></g></g><g><use xlink:href="#cS0E2RMlI" opacity="1" fill="#ffa726" fill-opacity="1"></use><g><use xlink:href="#cS0E2RMlI" opacity="1" fill-opacity="0" stroke="#000000" stroke-width="1" stroke-opacity="0"></use></g></g><g><use xlink:href="#alj61I6VX" opacity="1" fill="#ffa726" fill-opacity="1"></use><g><use xlink:href="#alj61I6VX" opacity="1" fill-opacity="0" stroke="#000000" stroke-width="1" stroke-opacity="0"></use></g></g><g><use xlink:href="#i1fChi5AXu" opacity="1" fill="#5c6bc0" fill-opacity="1"></use><g><use xlink:href="#i1fChi5AXu" opacity="1" fill-opacity="0" stroke="#000000" stroke-width="1" stroke-opacity="0"></use></g></g></g></g></svg>