<svg xmlns="http://www.w3.org/2000/svg" xmlns:xlink="http://www.w3.org/1999/xlink" width="400" height="317" viewBox="0 0 400 317">
  <defs>
    <clipPath id="clip-path">
      <rect id="長方形_2079" data-name="長方形 2079" width="400" height="317" transform="translate(211 1429)" fill="#fff" stroke="#707070" stroke-width="1"/>
    </clipPath>
  </defs>
  <g id="マスクグループ_1" data-name="マスクグループ 1" transform="translate(-211 -1429)" clip-path="url(#clip-path)">
    <g id="グループ_2069" data-name="グループ 2069" transform="translate(1.742 0.24)">
      <path id="パス_12929" data-name="パス 12929" d="M3814.557-1701.279h215.169a14.065,14.065,0,0,1,14.023,14.023v125.416H3800.533v-125.416a14.065,14.065,0,0,1,14.024-14.023" transform="translate(-3520.004 3212.326)" fill="#5c6bc0" fill-rule="evenodd"/>
      <path id="パス_12930" data-name="パス 12930" d="M3879.268-1619.979h222.769a.245.245,0,0,1,.246.245v141.517a.246.246,0,0,1-.246.245H3879.268a.246.246,0,0,1-.245-.245v-141.517a.245.245,0,0,1,.245-.245" transform="translate(-3588.516 3141.362)" fill="#e8f5fc" fill-rule="evenodd"/>
      <path id="パス_12931" data-name="パス 12931" d="M4458.165-449.573c-.988,17.859-3.6,22.375-21.711,32.552h80.28c-18.11-10.177-20.724-14.693-21.711-32.552l-18.429-1.451Z" transform="translate(-4075.078 2121.021)" fill="#b5b5b5" fill-rule="evenodd"/>
      <path id="パス_12932" data-name="パス 12932" d="M4043.75-604.5v9.216a14.065,14.065,0,0,1-14.023,14.024h-215.17a14.065,14.065,0,0,1-14.024-14.024V-604.5Z" transform="translate(-3520.004 2254.981)" fill="#d5d5d5" fill-rule="evenodd"/>
      <rect id="長方形_2043" data-name="長方形 2043" width="243.216" height="14.733" transform="translate(280.529 1641.399)" fill="#5c6bc0"/>
      <path id="パス_12949" data-name="パス 12949" d="M4248.392-1570.248H4069.667a1.639,1.639,0,0,0-1.149.468,1.569,1.569,0,0,0-.479,1.124,1.569,1.569,0,0,0,.479,1.123,1.639,1.639,0,0,0,1.149.468h178.726a1.641,1.641,0,0,0,1.149-.468,1.569,1.569,0,0,0,.479-1.123,1.569,1.569,0,0,0-.479-1.124,1.641,1.641,0,0,0-1.149-.468m-178.726-.6h178.726a2.258,2.258,0,0,1,1.58.642,2.156,2.156,0,0,1,.656,1.545,2.159,2.159,0,0,1-.656,1.545,2.258,2.258,0,0,1-1.58.642H4069.667a2.259,2.259,0,0,1-1.58-.642,2.161,2.161,0,0,1-.656-1.545,2.159,2.159,0,0,1,.656-1.545A2.259,2.259,0,0,1,4069.667-1570.844Z" transform="translate(-3752.969 3098.473)" fill="#0094ff"/>
      <path id="パス_12951" data-name="パス 12951" d="M4382.506-2018.159h0Zm14.469,32.143h-.049v138.495H4534.09v-157.763c0-7.112-6.413-12.876-14.324-12.876H4382.652c7.911,0,14.323,5.764,14.323,12.876Z" transform="translate(-4027.988 3488.92)" fill="#8695e6" fill-rule="evenodd"/>
      <path id="パス_12954" data-name="パス 12954" d="M4857.179-1751.559h11.275a1.218,1.218,0,0,1,1.214,1.215,1.218,1.218,0,0,1-1.214,1.214h-11.275a1.218,1.218,0,0,1-1.214-1.214,1.218,1.218,0,0,1,1.214-1.215" transform="translate(-4441.254 3256.213)" fill="#bbc4f4" fill-rule="evenodd"/>
      <path id="パス_12956" data-name="パス 12956" d="M4934.743-1687.618h12.876a1.218,1.218,0,0,1,1.215,1.214,1.218,1.218,0,0,1-1.215,1.215h-12.876a1.218,1.218,0,0,1-1.214-1.215,1.218,1.218,0,0,1,1.214-1.214" transform="translate(-4508.957 3200.401)" fill="#bbc4f4" fill-rule="evenodd"/>
      <path id="パス_12957" data-name="パス 12957" d="M5087.2-1687.618h16a1.218,1.218,0,0,1,1.215,1.214,1.218,1.218,0,0,1-1.215,1.215h-16a1.219,1.219,0,0,1-1.214-1.215,1.218,1.218,0,0,1,1.214-1.214" transform="translate(-4642.031 3200.401)" fill="#bbc4f4" fill-rule="evenodd"/>
      <path id="パス_12958" data-name="パス 12958" d="M4702.674-1620.382h30.814a1.217,1.217,0,0,1,1.214,1.214,1.219,1.219,0,0,1-1.214,1.215h-30.814a1.219,1.219,0,0,1-1.214-1.215,1.217,1.217,0,0,1,1.214-1.214" transform="translate(-4306.393 3141.713)" fill="#bbc4f4" fill-rule="evenodd"/>
      <path id="パス_12959" data-name="パス 12959" d="M4994.476-1620.382h14.765a1.217,1.217,0,0,1,1.214,1.214,1.218,1.218,0,0,1-1.214,1.215h-14.765a1.218,1.218,0,0,1-1.214-1.215,1.217,1.217,0,0,1,1.214-1.214" transform="translate(-4561.094 3141.713)" fill="#f28d9a" fill-rule="evenodd"/>
      <path id="パス_12960" data-name="パス 12960" d="M5156.769-1620.382h24.248a1.218,1.218,0,0,1,1.215,1.214,1.219,1.219,0,0,1-1.215,1.215h-24.248a1.219,1.219,0,0,1-1.215-1.215,1.218,1.218,0,0,1,1.215-1.214" transform="translate(-4702.754 3141.713)" fill="#bbc4f4" fill-rule="evenodd"/>
      <path id="パス_12962" data-name="パス 12962" d="M4837.917-1554.6h41.026a1.217,1.217,0,0,1,1.214,1.214,1.218,1.218,0,0,1-1.214,1.215h-41.026a1.218,1.218,0,0,1-1.215-1.215,1.217,1.217,0,0,1,1.215-1.214" transform="translate(-4424.439 3084.297)" fill="#bbc4f4" fill-rule="evenodd"/>
      <path id="パス_12963" data-name="パス 12963" d="M4702.674-1491.043h30.814a1.217,1.217,0,0,1,1.214,1.214,1.218,1.218,0,0,1-1.214,1.214h-30.814a1.218,1.218,0,0,1-1.214-1.214,1.217,1.217,0,0,1,1.214-1.214" transform="translate(-4306.393 3028.818)" fill="#f18e00" fill-rule="evenodd"/>
      <path id="パス_12964" data-name="パス 12964" d="M4994.476-1491.043h14.765a1.217,1.217,0,0,1,1.214,1.214,1.218,1.218,0,0,1-1.214,1.214h-14.765a1.218,1.218,0,0,1-1.214-1.214,1.217,1.217,0,0,1,1.214-1.214" transform="translate(-4561.094 3028.818)" fill="#bbc4f4" fill-rule="evenodd"/>
      <path id="パス_12965" data-name="パス 12965" d="M5156.769-1491.043h24.248a1.218,1.218,0,0,1,1.215,1.214,1.219,1.219,0,0,1-1.215,1.214h-24.248a1.219,1.219,0,0,1-1.215-1.214,1.218,1.218,0,0,1,1.215-1.214" transform="translate(-4702.754 3028.818)" fill="#bbc4f4" fill-rule="evenodd"/>
      <path id="パス_12966" data-name="パス 12966" d="M4702.674-1424.168h30.814a1.218,1.218,0,0,1,1.214,1.214,1.218,1.218,0,0,1-1.214,1.214h-30.814a1.218,1.218,0,0,1-1.214-1.214,1.218,1.218,0,0,1,1.214-1.214" transform="translate(-4306.393 2970.445)" fill="#bbc4f4" fill-rule="evenodd"/>
      <path id="パス_12967" data-name="パス 12967" d="M4994.476-1424.168h14.765a1.217,1.217,0,0,1,1.214,1.214,1.218,1.218,0,0,1-1.214,1.214h-14.765a1.218,1.218,0,0,1-1.214-1.214,1.217,1.217,0,0,1,1.214-1.214" transform="translate(-4561.094 2970.445)" fill="#bbc4f4" fill-rule="evenodd"/>
      <path id="パス_12969" data-name="パス 12969" d="M4895.764-1360.976h13.82a1.218,1.218,0,0,1,1.214,1.214,1.218,1.218,0,0,1-1.214,1.214h-13.82a1.218,1.218,0,0,1-1.214-1.214,1.217,1.217,0,0,1,1.214-1.214" transform="translate(-4474.934 2915.287)" fill="#bbc4f4" fill-rule="evenodd"/>
      <path id="パス_12970" data-name="パス 12970" d="M4702.674-1282.723h33.909a1.218,1.218,0,0,1,1.214,1.215,1.218,1.218,0,0,1-1.214,1.214h-33.909a1.217,1.217,0,0,1-1.214-1.214,1.218,1.218,0,0,1,1.214-1.215" transform="translate(-4306.393 2846.982)" fill="#bbc4f4" fill-rule="evenodd"/>
      <path id="パス_12971" data-name="パス 12971" d="M5021.642-1282.723h16.366a1.218,1.218,0,0,1,1.214,1.215,1.217,1.217,0,0,1-1.214,1.214h-16.366a1.218,1.218,0,0,1-1.215-1.214,1.219,1.219,0,0,1,1.215-1.215" transform="translate(-4584.807 2846.982)" fill="#f18e00" fill-rule="evenodd"/>
      <path id="パス_12972" data-name="パス 12972" d="M4702.674-1215.11h31.037a1.217,1.217,0,0,1,1.214,1.214,1.217,1.217,0,0,1-1.214,1.215h-31.037a1.218,1.218,0,0,1-1.214-1.215,1.218,1.218,0,0,1,1.214-1.214" transform="translate(-4306.393 2787.965)" fill="#bbc4f4" fill-rule="evenodd"/>
      <path id="パス_12973" data-name="パス 12973" d="M4996.438-1215.11h14.881a1.218,1.218,0,0,1,1.215,1.214,1.218,1.218,0,0,1-1.215,1.215h-14.881a1.218,1.218,0,0,1-1.214-1.215,1.218,1.218,0,0,1,1.214-1.214" transform="translate(-4562.809 2787.965)" fill="#bbc4f4" fill-rule="evenodd"/>
      <path id="パス_12975" data-name="パス 12975" d="M4831.743-1150.443h41.865a1.218,1.218,0,0,1,1.214,1.214,1.218,1.218,0,0,1-1.214,1.215h-41.865a1.218,1.218,0,0,1-1.214-1.215,1.218,1.218,0,0,1,1.214-1.214" transform="translate(-4419.051 2731.52)" fill="#bbc4f4" fill-rule="evenodd"/>
      <path id="パス_12976" data-name="パス 12976" d="M4702.675-1084.3h26.507a1.217,1.217,0,0,1,1.214,1.214,1.218,1.218,0,0,1-1.214,1.214h-26.507a1.218,1.218,0,0,1-1.215-1.214,1.218,1.218,0,0,1,1.215-1.214" transform="translate(-4306.393 2673.786)" fill="#f18e00" fill-rule="evenodd"/>
      <path id="パス_12977" data-name="パス 12977" d="M4956.679-1084.3h12.539a1.218,1.218,0,0,1,1.214,1.214,1.218,1.218,0,0,1-1.214,1.214h-12.539a1.218,1.218,0,0,1-1.214-1.214,1.218,1.218,0,0,1,1.214-1.214" transform="translate(-4528.105 2673.786)" fill="#bbc4f4" fill-rule="evenodd"/>
      <path id="パス_12978" data-name="パス 12978" d="M5104.219-1084.3H5135.2a1.218,1.218,0,0,1,1.214,1.214,1.218,1.218,0,0,1-1.214,1.214h-30.983a1.218,1.218,0,0,1-1.214-1.214,1.217,1.217,0,0,1,1.214-1.214" transform="translate(-4656.887 2673.786)" fill="#bbc4f4" fill-rule="evenodd"/>
      <path id="パス_12980" data-name="パス 12980" d="M4831.743-1021.839h41.865a1.218,1.218,0,0,1,1.214,1.215,1.218,1.218,0,0,1-1.214,1.214h-41.865a1.218,1.218,0,0,1-1.214-1.214,1.218,1.218,0,0,1,1.214-1.215" transform="translate(-4419.051 2619.266)" fill="#bbc4f4" fill-rule="evenodd"/>
      <path id="パス_12982" data-name="パス 12982" d="M4895.764-953.595h13.82a1.218,1.218,0,0,1,1.214,1.214,1.218,1.218,0,0,1-1.214,1.214h-13.82a1.218,1.218,0,0,1-1.214-1.214,1.218,1.218,0,0,1,1.214-1.214" transform="translate(-4474.934 2559.698)" fill="#f18e00" fill-rule="evenodd"/>
      <path id="パス_12984" data-name="パス 12984" d="M5861.252-1841.362a21.611,21.611,0,0,1,21.61,21.61,21.611,21.611,0,0,1-21.61,21.61,21.611,21.611,0,0,1-21.611-21.61,21.611,21.611,0,0,1,21.611-21.61" transform="translate(-5355.916 3349.999)" fill="#cce1f9" fill-rule="evenodd"/>
      <path id="パス_12985" data-name="パス 12985" d="M5946.054-1669.639l6.751-14.722a.674.674,0,0,1,.235-.244.589.589,0,0,1,.318-.1h2.407a.277.277,0,0,1,.236.1.211.211,0,0,1-.008.244l-6.751,14.722a.587.587,0,0,1-.228.252.593.593,0,0,1-.325.106h-2.407a.245.245,0,0,1-.228-.106.258.258,0,0,1,0-.252m17.764-8.492v1.838a.553.553,0,0,1-.106.317.736.736,0,0,1-.252.236l-6.994,3.3a.26.26,0,0,1-.252,0,.246.246,0,0,1-.105-.228v-2.635a.556.556,0,0,1,.105-.317.742.742,0,0,1,.252-.236l2.8-1.2c.1-.043.146-.092.146-.146s-.048-.108-.146-.163l-2.8-1.22a.6.6,0,0,1-.252-.22.557.557,0,0,1-.105-.317v-2.619a.266.266,0,0,1,.105-.236.226.226,0,0,1,.252.008l6.994,3.286a.586.586,0,0,1,.252.228A.591.591,0,0,1,5963.818-1678.13Zm-18.219-3.611v2.619a.554.554,0,0,1-.106.317.605.605,0,0,1-.252.22l-2.814,1.22c-.109.054-.163.108-.163.163s.054.1.163.146l2.8,1.2a.7.7,0,0,1,.268.236.553.553,0,0,1,.106.317v2.635a.245.245,0,0,1-.106.228.259.259,0,0,1-.252,0l-7.011-3.3a.676.676,0,0,1-.244-.236.585.585,0,0,1-.1-.317v-1.838a.625.625,0,0,1,.1-.325.545.545,0,0,1,.244-.228l7.011-3.286a.225.225,0,0,1,.252-.008A.266.266,0,0,1,5945.6-1681.741Z" transform="translate(-5445.314 3207.443)" fill="#5c6bc0"/>
      <g id="グループ_2031" data-name="グループ 2031" transform="translate(512.113 1491.639)">
        <path id="パス_12849" data-name="パス 12849" d="M6164.487-1502c-2.369-3.1-4.217-5.278-5.84-6.2q-.771-.539-1.542-1.069-.988-.679-1.984-1.347c-1.331-.89-2.669-1.768-4.05-2.605a.8.8,0,0,0-1.044.2.793.793,0,0,0,.157,1.11l0,0c1.252.942,2.481,1.938,3.7,2.944.371.306.739.617,1.107.926a1.007,1.007,0,0,0-1.186.311,1.007,1.007,0,0,0-.049,1.164,1,1,0,0,0-.678.382,1.007,1.007,0,0,0-.028,1.2,1,1,0,0,0-.6.37,1.007,1.007,0,0,0,.03,1.271.856.856,0,0,0-.3.243.862.862,0,0,0-.035,1l1.178,2.733a1.124,1.124,0,0,0,1.442-.776,25.743,25.743,0,0,0,4.008,1.861,3.971,3.971,0,0,0,4.252-1.307S6165.419-1500.779,6164.487-1502Z" transform="translate(-6149.868 1556.637)" fill="#b5764f"/>
        <path id="パス_12850" data-name="パス 12850" d="M6176.493-1426.737a18.853,18.853,0,0,1-9.8-2.872.87.87,0,0,0,.135.594l1.178,2.733a1.124,1.124,0,0,0,1.443-.776,25.736,25.736,0,0,0,4.008,1.861,3.971,3.971,0,0,0,4.253-1.307,5.123,5.123,0,0,0,.457-.268C6177.61-1426.74,6177.052-1426.728,6176.493-1426.737Z" transform="translate(-6164.548 1483.555)" fill="#ab6f4b"/>
        <g id="グループ_2019" data-name="グループ 2019" transform="translate(45.168 0)">
          <g id="グループ_2018" data-name="グループ 2018" transform="translate(0)">
            <path id="パス_12851" data-name="パス 12851" d="M6545.121-1810.4s5.176-15.983.965-19.205c-3.287-2.515-17.431,2.777-17.431,2.777s-1.053,21.8,7.912,21.286C6543.087-1805.918,6545.121-1810.4,6545.121-1810.4Z" transform="translate(-6525.633 1833.293)" fill="#b5764f"/>
            <path id="パス_12852" data-name="パス 12852" d="M6595.079-1699.922c.347,2.773,1.791,6.533,2.506,8.7,1.9,6.59-12.916,7.6-12.383.829a59.226,59.226,0,0,0-.241-6.81C6584.657-1700.972,6593.643-1703.2,6595.079-1699.922Z" transform="translate(-6574.808 1720.889)" fill="#b5764f"/>
            <path id="パス_12853" data-name="パス 12853" d="M6505.313-1850.172s-1.246,5.418,3.166,5.814c2.532.227,4.944,4.33,4.944,4.33l1.817-.355c1.206-.236,2.022,3.115,1.213,4.494-.424.723,3.62,5.318,3.62,5.318s5.413-.487,5.67-.874c1.355-2.043,4.018-8.46,2.887-14.46-.8-4.242-3.955-7.677-7.131-7.943C6512.884-1854.569,6508.535-1850.278,6505.313-1850.172Z" transform="translate(-6505.15 1853.93)" fill="#0e3254"/>
          </g>
          <path id="パス_12854" data-name="パス 12854" d="M6569.162-1753.151s1.141-1.931,2.634-1.668,1.492,5.618-.087,5.794S6569.162-1753.151,6569.162-1753.151Z" transform="translate(-6561.024 1767.44)" fill="#b5764f"/>
        </g>
        <path id="パス_12855" data-name="パス 12855" d="M6738.425-1532.511c-.334-4.766-1.918-9.227-3.177-13.758-2.005-6.611-4.2-13.121-6.68-19.566L6715-1559.291c2.854,9.518,8.676,16.393,11.237,25.989-3.923,3.864-7.58,7.108-11.971,10.694l4.048,6.784c6.4-3.059,12.968-6.263,18.009-11.434A7.691,7.691,0,0,0,6738.425-1532.511Z" transform="translate(-6642.513 1602.462)" fill="#ffa726"/>
        <path id="パス_12856" data-name="パス 12856" d="M6733.825-1513.81a11.685,11.685,0,0,1-1.334-1.826c-.343-.384-.676-.778-.992-1.186-2.695-3.485-3.885-7.812-4.728-12.076-.165-.833-.293-1.662-.4-2.491a30.313,30.313,0,0,1-1.063-7.514,1.209,1.209,0,0,1,.666-1.14c-.022-.248-.047-.495-.08-.74a1.213,1.213,0,0,1-.933-.923,58.676,58.676,0,0,0-1.228-5.8l-8.736,4.214c2.854,9.518,8.676,16.393,11.237,25.989-3.923,3.863-7.58,7.108-11.971,10.694l4.048,6.784c6.4-3.059,12.968-6.263,18.009-11.434.137-.153.269-.313.4-.478A8.175,8.175,0,0,1,6733.825-1513.81Z" transform="translate(-6642.513 1586.465)" fill="#d99127"/>
        <path id="パス_12857" data-name="パス 12857" d="M6436.723-380.1c2.051,9.018.009,8.933.009,8.933l-21.69.022s-.887-3.948,3.973-4.471c3.132-.337,10.428-4.48,10.428-4.48Z" transform="translate(-6380.394 567.478)" fill="#0b2842"/>
        <path id="パス_12858" data-name="パス 12858" d="M6741.293-381.279c2.612,6.937.935,8.933.935,8.933l-17.56.044s-2.03-3.37,3.5-4.472c1.037-.207,6.03-4.573,6.03-4.573Z" transform="translate(-6650.393 568.562)" fill="#0b2842"/>
        <path id="パス_12859" data-name="パス 12859" d="M6522.908-1104.554a343.45,343.45,0,0,0-6.788,38.9c-2.121,16.76-2.952,33.168-4.172,50.016l-8.04-.108c-1.079-17.14-2.942-34.336-3.054-51.532-.1-13.664-.661-27.383.923-41.045Z" transform="translate(-6456.077 1203.117)" fill="#0072a6"/>
        <path id="パス_12860" data-name="パス 12860" d="M6543.753-1114.092c-1.292-13.755-2.274-24.515-2.432-38.226h0a31.975,31.975,0,0,0-1.17-8.471c-9.021-10.1-36.124-.132-36.124-.132a149.288,149.288,0,0,0-.351,17.25,45.815,45.815,0,0,0,19.39,4.354c1.865,9.109,4.082,18.091,6.2,27.156,3.175,16.135,7.342,31.514,11.178,47.494l8.226-.855C6546.967-1081.674,6544.784-1097.885,6543.753-1114.092Z" transform="translate(-6458.604 1252.858)" fill="#0072a6"/>
        <path id="パス_12861" data-name="パス 12861" d="M6662.388-938.725c-.012-.049-.021-.1-.029-.144q-.719-1.463-1.455-2.916c1.753,8.28,3.762,16.471,5.692,24.731,3.175,16.135,7.341,31.514,11.177,47.494l7.089-.737C6683.167-872.708,6664.817-929.056,6662.388-938.725Z" transform="translate(-6595.935 1057.75)" fill="#006a9a"/>
        <path id="パス_12862" data-name="パス 12862" d="M6501.777-1108.325c-1.584,13.662-1.021,27.381-.923,41.045.112,17.2,1.975,34.391,3.054,51.532l4.08.055a60.609,60.609,0,0,1-1.134-6.32c-1.443-11.05-1.075-22.273-.494-33.368.312-5.959.486-11.931.833-17.887a62.906,62.906,0,0,1,3.092-16.673,1.342,1.342,0,0,1,.489-.676,12.846,12.846,0,0,1,1.644-2.751,13.9,13.9,0,0,1,4.729-3.608,63.729,63.729,0,0,1,6.486-2.843c2.507-.958,5.052-1.809,7.592-2.673,3.794-1.953,7.257-3.829,7.571-5.088Z" transform="translate(-6456.077 1203.117)" fill="#006a9a"/>
        <path id="パス_12863" data-name="パス 12863" d="M6471.174-1628.144c5.346-5.824,15.9-9.141,26.244-8.467,10.692.7,16.525,6.162,17.447,9.388.607,2.126-.711,14.026-3.246,20.565-2.5,6.451-2.676,12.859-2.283,15.036.65,3.6,2.051,22.842,2.051,22.842a56.64,56.64,0,0,1-24.162,4.249,37.192,37.192,0,0,1-13.958-3.95,107.906,107.906,0,0,0,.116-32.807S6465.865-1622.361,6471.174-1628.144Z" transform="translate(-6428.669 1664.315)" fill="#ffa726"/>
        <path id="パス_12864" data-name="パス 12864" d="M6478.665-1486.1c-.43-6.161-1.09-14.781-7.873-17.285a1.57,1.57,0,0,1-.779-.6q-.247-.12-.5-.237c.374,8.189,4.077,18.569,4.077,18.569a107.888,107.888,0,0,1-.116,32.807,37.2,37.2,0,0,0,13.958,3.95q.65.037,1.292.056a41.447,41.447,0,0,1-4.808-9.061C6480.494-1466.88,6479.329-1476.582,6478.665-1486.1Z" transform="translate(-6428.879 1548.686)" fill="#d99127"/>
        <path id="パス_12865" data-name="パス 12865" d="M6262.093-1561.7l-9.037,22.655c-6.119-1.527-13.649-3.34-18.759-6.4l-3.755,5.283a59.127,59.127,0,0,0,20.488,12.914c3.364,1.265,6.807,2.6,9.864-1.35,6.665-8.621,15.405-27.367,14.629-26.505Z" transform="translate(-6220.285 1598.854)" fill="#ffa726"/>
        <path id="パス_12866" data-name="パス 12866" d="M6262.366-1413.235a15.571,15.571,0,0,1-6.66,1.661,20.285,20.285,0,0,1-6.259-1.154c-6.03-1.952-13.11-5.314-16.038-11.3l-2.869,4.035a59.121,59.121,0,0,0,20.488,12.913c3.364,1.266,6.807,2.6,9.864-1.35a70.525,70.525,0,0,0,4.139-6.124Q6263.708-1413.876,6262.366-1413.235Z" transform="translate(-6220.285 1478.686)" fill="#d99127"/>
      </g>
      <path id="パス_12933" data-name="パス 12933" d="M4658.3-529.975a2.5,2.5,0,0,1,2.5,2.5,2.5,2.5,0,0,1-2.5,2.5,2.5,2.5,0,0,1-2.5-2.5,2.5,2.5,0,0,1,2.5-2.5" transform="translate(-4266.539 2189.935)" fill="#db3347" fill-rule="evenodd"/>
      <path id="パス_12934" data-name="パス 12934" d="M4731.028-529.975a2.5,2.5,0,0,1,2.5,2.5,2.5,2.5,0,0,1-2.5,2.5,2.5,2.5,0,0,1-2.5-2.5,2.5,2.5,0,0,1,2.5-2.5" transform="translate(-4330.021 2189.935)" fill="#f7b03e" fill-rule="evenodd"/>
      <path id="パス_12935" data-name="パス 12935" d="M4803.751-529.975a2.5,2.5,0,0,1,2.5,2.5,2.5,2.5,0,0,1-2.5,2.5,2.5,2.5,0,0,1-2.5-2.5,2.5,2.5,0,0,1,2.5-2.5" transform="translate(-4393.498 2189.935)" fill="#49c12d" fill-rule="evenodd"/>
      <rect id="長方形_2044" data-name="長方形 2044" width="63.992" height="98.908" transform="translate(297.432 1535.859)" fill="#5c6bc0"/>
      <path id="パス_12936" data-name="パス 12936" d="M3959.136-877.906H3999.8a1.66,1.66,0,0,1,1.656,1.655,1.661,1.661,0,0,1-1.656,1.656h-40.666a1.66,1.66,0,0,1-1.655-1.656,1.66,1.66,0,0,1,1.655-1.655" transform="translate(-3657 2493.631)" fill="#bbc4f4" fill-rule="evenodd"/>
      <path id="パス_12937" data-name="パス 12937" d="M3959.136-1466.85h15.13a1.66,1.66,0,0,1,1.656,1.655,1.661,1.661,0,0,1-1.656,1.656h-15.13a1.66,1.66,0,0,1-1.655-1.656,1.66,1.66,0,0,1,1.655-1.655" transform="translate(-3657 3007.701)" fill="#bbc4f4" fill-rule="evenodd"/>
      <path id="パス_12938" data-name="パス 12938" d="M3959.136-1393.294h50.541a1.66,1.66,0,0,1,1.656,1.655,1.66,1.66,0,0,1-1.656,1.655h-50.541a1.66,1.66,0,0,1-1.655-1.655,1.66,1.66,0,0,1,1.655-1.655" transform="translate(-3657 2943.496)" fill="#bbc4f4" fill-rule="evenodd"/>
      <path id="パス_12939" data-name="パス 12939" d="M3959.136-1323.044h50.541a1.66,1.66,0,0,1,1.656,1.655,1.66,1.66,0,0,1-1.656,1.655h-50.541a1.659,1.659,0,0,1-1.655-1.655,1.66,1.66,0,0,1,1.655-1.655" transform="translate(-3657 2882.177)" fill="#bbc4f4" fill-rule="evenodd"/>
      <path id="パス_12940" data-name="パス 12940" d="M3959.136-1252.8H3972.9a1.66,1.66,0,0,1,1.655,1.655,1.659,1.659,0,0,1-1.655,1.655h-13.765a1.659,1.659,0,0,1-1.655-1.655,1.66,1.66,0,0,1,1.655-1.655" transform="translate(-3657 2820.86)" fill="#bbc4f4" fill-rule="evenodd"/>
      <path id="パス_12941" data-name="パス 12941" d="M4112.863-1252.8h13.765a1.66,1.66,0,0,1,1.655,1.655,1.659,1.659,0,0,1-1.655,1.655h-13.765a1.659,1.659,0,0,1-1.655-1.655,1.66,1.66,0,0,1,1.655-1.655" transform="translate(-3791.182 2820.86)" fill="#bbc4f4" fill-rule="evenodd"/>
      <path id="パス_12942" data-name="パス 12942" d="M3959.136-1167.841h18.517a1.66,1.66,0,0,1,1.655,1.655,1.66,1.66,0,0,1-1.655,1.655h-18.517a1.66,1.66,0,0,1-1.655-1.655,1.66,1.66,0,0,1,1.655-1.655" transform="translate(-3657 2746.706)" fill="#bbc4f4" fill-rule="evenodd"/>
      <path id="パス_12943" data-name="パス 12943" d="M4155.65-1167.841h18.518a1.66,1.66,0,0,1,1.655,1.655,1.66,1.66,0,0,1-1.655,1.655H4155.65a1.66,1.66,0,0,1-1.655-1.655,1.66,1.66,0,0,1,1.655-1.655" transform="translate(-3828.529 2746.706)" fill="#bbc4f4" fill-rule="evenodd"/>
      <path id="パス_12944" data-name="パス 12944" d="M3959.136-1104.2h22.388a1.66,1.66,0,0,1,1.655,1.655,1.66,1.66,0,0,1-1.655,1.656h-22.388a1.66,1.66,0,0,1-1.655-1.656,1.66,1.66,0,0,1,1.655-1.655" transform="translate(-3657 2691.156)" fill="#bbc4f4" fill-rule="evenodd"/>
      <path id="パス_12945" data-name="パス 12945" d="M4190.5-1104.2h22.388a1.66,1.66,0,0,1,1.656,1.655,1.661,1.661,0,0,1-1.656,1.656H4190.5a1.661,1.661,0,0,1-1.655-1.656,1.66,1.66,0,0,1,1.655-1.655" transform="translate(-3858.945 2691.156)" fill="#bbc4f4" fill-rule="evenodd"/>
      <path id="パス_12946" data-name="パス 12946" d="M3959.136-1032.195h15.13a1.661,1.661,0,0,1,1.656,1.655,1.66,1.66,0,0,1-1.656,1.655h-15.13a1.66,1.66,0,0,1-1.655-1.655,1.66,1.66,0,0,1,1.655-1.655" transform="translate(-3657 2628.305)" fill="#bbc4f4" fill-rule="evenodd"/>
      <path id="パス_12947" data-name="パス 12947" d="M3959.136-948.985h22.388a1.66,1.66,0,0,1,1.655,1.655,1.66,1.66,0,0,1-1.655,1.655h-22.388a1.66,1.66,0,0,1-1.655-1.655,1.66,1.66,0,0,1,1.655-1.655" transform="translate(-3657 2555.674)" fill="#bbc4f4" fill-rule="evenodd"/>
      <path id="パス_12948" data-name="パス 12948" d="M4190.5-948.985h22.388a1.66,1.66,0,0,1,1.656,1.655,1.66,1.66,0,0,1-1.656,1.655H4190.5a1.66,1.66,0,0,1-1.655-1.655,1.66,1.66,0,0,1,1.655-1.655" transform="translate(-3858.945 2555.674)" fill="#bbc4f4" fill-rule="evenodd"/>
      <rect id="長方形_2045" data-name="長方形 2045" width="4.945" height="4.683" transform="translate(305.043 1527.476)" fill="#5c6bc0"/>
      <rect id="長方形_2046" data-name="長方形 2046" width="4.808" height="4.683" transform="translate(297.432 1527.476)" fill="#5c6bc0"/>
      <rect id="長方形_2047" data-name="長方形 2047" width="38.146" height="5.079" transform="translate(382.291 1673.725)" fill="#959595"/>
      <path id="パス_12950" data-name="パス 12950" d="M4285.32-2018.16c-7.911,0-14.323,6.274-14.323,12.876s4.707,11.2,11.028,12.534h17.617v-12.534c0-7.111-6.412-12.876-14.322-12.876" transform="translate(-3930.654 3488.92)" fill="#5c6bc0" fill-rule="evenodd"/>
      <path id="パス_12952" data-name="パス 12952" d="M4621.224-1922.422v-2.531l6.284-2.48-6.284-2.455v-2.513l9.009,3.9v2.153Zm-8.023,1.707,3.266-13.578h1.89l-3.283,13.578Zm-2.871-1.725-9.008-3.915v-2.168l9.008-3.9v2.551l-6.283,2.4,6.283,2.5Z" transform="translate(-4218.984 3415.715)" fill="#bbc4f4" fill-rule="evenodd"/>
      <path id="パス_12953" data-name="パス 12953" d="M4649.4-1751.559h20.5a1.218,1.218,0,0,1,1.214,1.215,1.218,1.218,0,0,1-1.214,1.214h-20.5a1.218,1.218,0,0,1-1.214-1.214,1.218,1.218,0,0,1,1.214-1.215" transform="translate(-4259.887 3256.213)" fill="#f18e00" fill-rule="evenodd"/>
      <path id="パス_12955" data-name="パス 12955" d="M4702.674-1687.618h23.177a1.218,1.218,0,0,1,1.214,1.214,1.218,1.218,0,0,1-1.214,1.215h-23.177a1.218,1.218,0,0,1-1.214-1.215,1.218,1.218,0,0,1,1.214-1.214" transform="translate(-4306.391 3200.401)" fill="#f18e00" fill-rule="evenodd"/>
      <path id="パス_12961" data-name="パス 12961" d="M4702.674-1554.6h11.535a1.217,1.217,0,0,1,1.214,1.214,1.218,1.218,0,0,1-1.214,1.215h-11.535a1.218,1.218,0,0,1-1.214-1.215,1.217,1.217,0,0,1,1.214-1.214" transform="translate(-4306.391 3084.297)" fill="#f28d9a" fill-rule="evenodd"/>
      <path id="パス_12968" data-name="パス 12968" d="M4649.4-1360.976h24.755a1.218,1.218,0,0,1,1.214,1.214,1.218,1.218,0,0,1-1.214,1.214H4649.4a1.218,1.218,0,0,1-1.214-1.214,1.217,1.217,0,0,1,1.214-1.214" transform="translate(-4259.887 2915.287)" fill="#bbc4f4" fill-rule="evenodd"/>
      <path id="パス_12974" data-name="パス 12974" d="M4702.674-1150.443h10.652a1.218,1.218,0,0,1,1.214,1.214,1.218,1.218,0,0,1-1.214,1.215h-10.652a1.218,1.218,0,0,1-1.214-1.215,1.218,1.218,0,0,1,1.214-1.214" transform="translate(-4306.391 2731.52)" fill="#f28d9a" fill-rule="evenodd"/>
      <path id="パス_12979" data-name="パス 12979" d="M4702.674-1021.839h10.652a1.218,1.218,0,0,1,1.214,1.215,1.218,1.218,0,0,1-1.214,1.214h-10.652a1.218,1.218,0,0,1-1.214-1.214,1.218,1.218,0,0,1,1.214-1.215" transform="translate(-4306.391 2619.266)" fill="#bbc4f4" fill-rule="evenodd"/>
      <path id="パス_12981" data-name="パス 12981" d="M4649.4-953.595h24.755a1.218,1.218,0,0,1,1.214,1.214,1.218,1.218,0,0,1-1.214,1.214H4649.4a1.218,1.218,0,0,1-1.214-1.214,1.218,1.218,0,0,1,1.214-1.214" transform="translate(-4259.887 2559.698)" fill="#bbc4f4" fill-rule="evenodd"/>
      <path id="パス_12983" data-name="パス 12983" d="M4621.224-849.21v-2.531l6.284-2.48-6.284-2.456v-2.513l9.009,3.9v2.152ZM4613.2-847.5l3.266-13.577h1.89l-3.283,13.577Zm-2.871-1.725-9.008-3.914v-2.168l9.008-3.9v2.55l-6.283,2.4,6.283,2.5Z" transform="translate(-4218.984 2478.946)" fill="#bbc4f4" fill-rule="evenodd"/>
      <g id="グループ_2030" data-name="グループ 2030" transform="translate(211.258 1504.12)">
        <path id="パス_12825" data-name="パス 12825" d="M3179.865-374.524c-2.079,5.567-.556,7.5-.556,7.5l18.718.054s.108-3.531-3.956-3.762c-3.73-.213-9.174-3.78-9.174-3.78S3180.3-375.7,3179.865-374.524Z" transform="translate(-3152.42 550.944)" fill="#e2f4ff"/>
        <path id="パス_12826" data-name="パス 12826" d="M2972.709-373.629c-2.14,4.778-.773,7.067-.773,7.067l13,.039s.539-3.366-2.372-3.817c-1.876-.291-4.419-3.961-4.419-3.961S2973.37-375.1,2972.709-373.629Z" transform="translate(-2971.507 550.486)" fill="#e2f4ff"/>
        <path id="パス_12827" data-name="パス 12827" d="M3004.012-1121.921s-1.8,4.783-1.012,13.122c.49,5.172,14.235,4.853,14.235,4.853,7.566.7,19,1.4,18.948-3.8a127.369,127.369,0,0,0-1.23-15.612Z" transform="translate(-2998.822 1204.121)" fill="#0e3254"/>
        <path id="パス_12828" data-name="パス 12828" d="M3119.965-1041.3c.28,5.222,1.3,16.016,1.564,21.5a46.992,46.992,0,0,0,7.718.155c.194-2.725,3.356-32.749,3.754-41.8.293-12.689-.573-31.911-.923-44.588-1.491-15.155-25.07-12.071-18.52,7.434,1.931,10.362,6.146,26.8,6.8,37.285C3120.623-1057.1,3119.386-1050.124,3119.965-1041.3Z" transform="translate(-3094.498 1197.362)" fill="#0072a6"/>
        <path id="パス_12829" data-name="パス 12829" d="M3135.488-923.288c1.608-7.884-7.151-34.094-8.722-38.745q-.873-.593-1.737-1.2c2.07,10.368,5.737,25.2,6.344,34.925.263,4.214-.973,11.19-.395,20.015.28,5.222,1.3,16.016,1.564,21.5.764.09,1.528.15,2.294.188C3133.954-890.615,3133.75-914.764,3135.488-923.288Z" transform="translate(-3105.51 1064.353)" fill="#006a9a"/>
        <g id="グループ_2014" data-name="グループ 2014" transform="translate(0.872 81.919)">
          <path id="パス_12830" data-name="パス 12830" d="M3015.377-1094.326s-.237-13.036-.83-19.159l-32.591-.724c-.031.308-1.95,9.6-1.037,16.757.3,17.068,3.016,35.6,2.026,38.944-3.556,11.983-3.951,20.279-4.58,39.7,2.544.371,5.1.625,7.664.858.6-2.851,7.716-35.154,8.635-39.107,2.654-11.418,3.6-23.317,4.823-34.244A144.32,144.32,0,0,0,3015.377-1094.326Z" transform="translate(-2978.365 1114.218)" fill="#0072a6"/>
          <path id="パス_12831" data-name="パス 12831" d="M2978.365-1018.813q.963.141,1.929.26v-.019c-.157-2.207,2.215-20.857,2.985-23.844,1.387-5.384,3.452-10.514,5.15-15.8,1.459-4.538.479-32.413,1.587-35.926a10.19,10.19,0,0,1,2.407-4.192,13.462,13.462,0,0,1,5.761-2.893c5.343-1.639,11.081-2,16.081-4.665a1.336,1.336,0,0,1,.75-.164c-.121-2.751-.276-5.453-.467-7.433l-32.591-.724c-.031.308-1.95,9.6-1.037,16.757.3,17.068,3.016,35.6,2.026,38.944C2979.39-1046.527,2978.995-1038.231,2978.365-1018.813Z" transform="translate(-2978.365 1114.218)" fill="#006a9a"/>
          <path id="パス_12832" data-name="パス 12832" d="M3006.585-1114.267h0C3006.59-1114.278,3006.589-1114.279,3006.585-1114.267Z" transform="translate(-3002.997 1114.276)" fill="#004769"/>
        </g>
        <path id="パス_12833" data-name="パス 12833" d="M3159.448-1531.94c4.231,7.238,12.392,22.806,12.391,22.811,3.446,2.768,10.593,3.667,15.533,5.278,1.483.448,3.114.91,4.616,1.319,2.491.4,4.727,1.785,4.069,4.653-.687,2.537-3.157,2.812-5.353,2.393-1.628-.174-3.37-.356-4.981-.572-6.871-1.091-14.215-1.691-20.379-5.364a43.622,43.622,0,0,1-6.171-6.377c-3.91-4.648-7.586-9.478-11.346-14.214C3139.194-1530.528,3152.751-1542.024,3159.448-1531.94Z" transform="translate(-3122.977 1564.194)" fill="#ffa726"/>
        <path id="パス_12834" data-name="パス 12834" d="M3171.24-1504.122a47.571,47.571,0,0,1-12.428-13.365c-3.35-5.588-5.025-11.934-6.353-18.267-5.785.373-10.713,7.849-4.633,13.847,3.759,4.736,7.436,9.565,11.346,14.214a43.62,43.62,0,0,0,6.17,6.377c6.165,3.673,13.508,4.273,20.379,5.364l.418.054A65.574,65.574,0,0,1,3171.24-1504.122Z" transform="translate(-3122.977 1564.089)" fill="#d99127"/>
        <path id="パス_12835" data-name="パス 12835" d="M2982.054-1551.283c-.088,9.327,2.054,14.024,5.083,30.769.7,3.86-3.389,14.485-3.477,20.454,0,0,6.847,1.9,21.947,1.281a113.248,113.248,0,0,0,12.817-1.229,158.8,158.8,0,0,1-.607-30.045,13.693,13.693,0,0,0,2.719-7.4c0-2.816-2.813-5.58-3.193-9.613-.484-5.134.866-9.907-1.377-12.158-2.577-2.586-8.626-6.436-14.573-6.057C2984.733-1564.225,2982.086-1554.724,2982.054-1551.283Z" transform="translate(-2980.711 1589.888)" fill="#ffa726"/>
        <path id="パス_12836" data-name="パス 12836" d="M3069.6-1560.972c5.784-.706,5.414-3.135,5.477-3.3a16.1,16.1,0,0,0-6.377-1.009,31.441,31.441,0,0,0-9.54,1.948C3059.243-1563.214,3061.569-1559.991,3069.6-1560.972Z" transform="translate(-3048.013 1589.888)" fill="#f2ab85"/>
        <path id="パス_12837" data-name="パス 12837" d="M2997.665-1449.717q-.1-.4-.17-.809a32.732,32.732,0,0,1-.279-7.21,41.78,41.78,0,0,1,2.882-14.09,1.917,1.917,0,0,1,.266-.458q-.751-2.425-1.369-4.885a96.257,96.257,0,0,1-2.2-11.9,34.12,34.12,0,0,1-8.885-10.323,32.193,32.193,0,0,1-2.818-7.451,22.28,22.28,0,0,1-.448-2.382,11.924,11.924,0,0,0-2.587,6.9c-.088,9.327,2.054,14.024,5.083,30.769.7,3.86-3.389,14.485-3.477,20.454C2983.661-1451.1,2988.087-1449.878,2997.665-1449.717Z" transform="translate(-2980.711 1540.93)" fill="#d99127"/>
        <path id="パス_12838" data-name="パス 12838" d="M3008.7-1424.092a6.794,6.794,0,0,0,1.856,1.555c1.566.926,5.524,1.578,7.47,1.7a113.33,113.33,0,0,0,18.091-.428c-.264-5.444-.342-1.209.1-7.791-2.819-1.556-12.271-5.52-12.271-5.52s-3.6-13.94-6.725-22.021c-.07.065-4.7.126-4.791.181a18.282,18.282,0,0,0-6.461,6.489,18.187,18.187,0,0,0-2.244,7.809,31.062,31.062,0,0,0,3.345,15.457A12.459,12.459,0,0,0,3008.7-1424.092Z" transform="translate(-2999.579 1494.994)" fill="#d99127"/>
        <g id="グループ_2015" data-name="グループ 2015" transform="translate(4.631 0)">
          <path id="パス_12839" data-name="パス 12839" d="M3097.5-1617.262c.7,2.084.174,4.274.822,6.379,1.482,4.814-8.763,3.889-9.25.6-.127-.856.658-3.786.527-6.255-.017-.31,4.911-1.616,4.911-1.616C3095.327-1618.523,3097.23-1618.111,3097.5-1617.262Z" transform="translate(-3078.747 1636.131)" fill="#f2ab85"/>
          <path id="パス_12840" data-name="パス 12840" d="M3122.613-1580.719a7.449,7.449,0,0,0,2.134.08,3.553,3.553,0,0,0-.1-.415,8.534,8.534,0,0,1-.326-1.859,39.315,39.315,0,0,1-5.1-1.2C3119.5-1583.748,3120.642-1581.2,3122.613-1580.719Z" transform="translate(-3105.069 1606.302)" fill="#e3a064"/>
          <path id="パス_12841" data-name="パス 12841" d="M3014.9-1732.274s-3.879-2.832-6.144.238.45,11.821,4.064,9.706C3017.445-1725.033,3014.9-1732.274,3014.9-1732.274Z" transform="translate(-3007.932 1736.664)" fill="#0e3254"/>
          <path id="パス_12842" data-name="パス 12842" d="M3047.861-1716.93s-9.768-12.879-6.82-16.92c2.3-3.154,15.467-1.809,15.467-1.809s8.648,18.247.505,20.111A11.969,11.969,0,0,1,3047.861-1716.93Z" transform="translate(-3036.348 1738.827)" fill="#f2ab85"/>
          <path id="パス_12843" data-name="パス 12843" d="M3043-1737.518s-2.041.461-4.848-3.546c-3.026-4.319-4.2-12.505.657-15.4a13.179,13.179,0,0,1,12.925-.875c4.449,1.927,2.37,6.5,2.37,6.5s-7.819.764-7.989,2.546c-.351,3.687-2.527,3.083-2.82,3.994A14.163,14.163,0,0,0,3043-1737.518Z" transform="translate(-3032.01 1758.625)" fill="#0e3254"/>
        </g>
        <path id="パス_12844" data-name="パス 12844" d="M3519.953-1219.541a18.459,18.459,0,0,0,4.94,3.676c1.668.658,7.33-1.536,7.33-1.536l.7-2.646Z" transform="translate(-3450.226 1288.519)" fill="#f2ab85"/>
        <g id="グループ_2016" data-name="グループ 2016" transform="translate(79.961 66.567)">
          <path id="パス_12845" data-name="パス 12845" d="M3601.4-1230.281a.943.943,0,0,1-.923-.758.943.943,0,0,1,.739-1.11l.9-.18-.034-1.647c-.06-.517.152-.985.67-1.046s.828.311.888.828l.45,2.51a.943.943,0,0,1-.752,1.033l-1.75.351A.959.959,0,0,1,3601.4-1230.281Z" transform="translate(-3600.454 1235.028)" fill="#f2ab85"/>
        </g>
        <path id="パス_12846" data-name="パス 12846" d="M3034.9-1490.624a92.512,92.512,0,0,1-23.988-6.606c-.615-3.073-3.833-16.245-5-25.195-2.305-12-18.644-7.921-14.055,3.467,2.391,8.426,4.964,18.636,8.436,26.732,1.141,5,5.8,6,11.237,6.5,7.725.7,23.689.118,23.768.11C3035.26-1487.917,3035.507-1488.356,3034.9-1490.624Z" transform="translate(-2988.559 1558.791)" fill="#ffa726"/>
        <path id="パス_12847" data-name="パス 12847" d="M3082.743-1663.3a2.173,2.173,0,0,0-2.721-.615c-1.613,1,.248,5.939,2.469,4.85C3084.169-1659.892,3083.418-1662.517,3082.743-1663.3Z" transform="translate(-3065.694 1676.198)" fill="#f2ab85"/>
        <g id="グループ_2022" data-name="グループ 2022" transform="translate(38.479 24.363)">
          <circle id="楕円形_196" data-name="楕円形 196" cx="19.878" cy="19.878" r="19.878" transform="translate(0 28.112) rotate(-45)" fill="#f6b000"/>
          <g id="グループ_2021" data-name="グループ 2021" transform="translate(1.741 1.054)">
            <g id="グループ_2020" data-name="グループ 2020" transform="translate(0 0)">
              <circle id="楕円形_197" data-name="楕円形 197" cx="19.878" cy="19.878" r="19.878" transform="translate(0 28.112) rotate(-45)" fill="#ffc000"/>
              <circle id="楕円形_198" data-name="楕円形 198" cx="15.259" cy="15.259" r="15.259" transform="translate(6.533 28.112) rotate(-45)" fill="#f28700"/>
              <path id="パス_12867" data-name="パス 12867" d="M3421.623-1445.539a13.773,13.773,0,0,0-16.47,9.455Z" transform="translate(-3390.242 1460.273)" fill="#f5a300" opacity="0.5"/>
              <path id="パス_12868" data-name="パス 12868" d="M3409.917-1393.741l12.563-7.212,8.779-5.04a13.822,13.822,0,0,0-3.9-7.973l-23.08,13.249a13.822,13.822,0,0,0,5.014,7.455A3,3,0,0,1,3409.917-1393.741Z" transform="translate(-3389.483 1432.367)" fill="#f5a300" opacity="0.5"/>
              <path id="パス_12869" data-name="パス 12869" d="M3505.4-1278.862a13.792,13.792,0,0,0,12.576-7.219Z" transform="translate(-3477.74 1320.741)" fill="#f5a300" opacity="0.5"/>
            </g>
          </g>
        </g>
        <path id="パス_12870" data-name="パス 12870" d="M3332.763-1241.211s1.021-2.782,3.635-3.251a61.374,61.374,0,0,1,6.518-.476s.712,1.24-.987,1.481c-1,.141-2.054.4-2.088,1.005-.037.661-.305.875,1.373.974s6.005.233,6.005.233a7.22,7.22,0,0,1-4.1,3.138c-1.431.463-9.3.816-9.6.816S3332.763-1241.211,3332.763-1241.211Z" transform="translate(-3286.835 1310.245)" fill="#f2ab85"/>
        <g id="グループ_2023" data-name="グループ 2023" transform="translate(73.628 66.219)">
          <path id="パス_12871" data-name="パス 12871" d="M3552.268-1231.327a.941.941,0,0,1-.782-.416.943.943,0,0,1,.254-1.309l.52-.351-1.389-2.766c-.417-.79-.229-1.279.23-1.525s1.06.188,1.306.647l1.917,3.5a.943.943,0,0,1-.3,1.226l-1.225.827A.938.938,0,0,1,3552.268-1231.327Z" transform="translate(-3550.638 1237.765)" fill="#f2ab85"/>
        </g>
        <g id="グループ_2024" data-name="グループ 2024" transform="translate(75.627 65.94)">
          <path id="パス_12872" data-name="パス 12872" d="M3567.581-1233.517a.942.942,0,0,1-.8-.435.943.943,0,0,1,.287-1.3l.805-.515-1.357-2.834a.9.9,0,0,1,.229-1.276,1.013,1.013,0,0,1,1.276.545l1.927,3.445a.943.943,0,0,1-.324,1.239l-1.541.985A.939.939,0,0,1,3567.581-1233.517Z" transform="translate(-3566.362 1239.963)" fill="#f2ab85"/>
        </g>
        <g id="グループ_2025" data-name="グループ 2025" transform="translate(78.058 65.495)">
          <path id="パス_12873" data-name="パス 12873" d="M3586.7-1237.016a.942.942,0,0,1-.8-.435.943.943,0,0,1,.287-1.3l.805-.515-1.358-2.834a.9.9,0,0,1,.229-1.276c.46-.245.873.086,1.119.545l2.084,3.445a.943.943,0,0,1-.323,1.239l-1.541.985A.94.94,0,0,1,3586.7-1237.016Z" transform="translate(-3585.485 1243.463)" fill="#f2ab85"/>
        </g>
      </g>
    </g>
  </g>
</svg>
