<svg xmlns="http://www.w3.org/2000/svg" xmlns:xlink="http://www.w3.org/1999/xlink" width="400" height="317" viewBox="0 0 400 317">
  <defs>
    <clipPath id="clip-path">
      <rect id="長方形_2080" data-name="長方形 2080" width="400" height="317" transform="translate(786 1821)" fill="#fff" stroke="#707070" stroke-width="1"/>
    </clipPath>
    <clipPath id="clip-path-2">
      <path id="パス_13174" data-name="パス 13174" d="M-1340.418,95.561h35.159a2.751,2.751,0,0,1,2.521,2.551l4.493,23.853h.06l.288,1.751a1.671,1.671,0,0,1-1.751,1.751h-36.423a1.865,1.865,0,0,1-1.751-1.751l-.216-1.438-4.552-24.52a2.071,2.071,0,0,1,2.171-2.2" transform="translate(1342.615 -95.561)" fill="#5c6bc0" clip-rule="evenodd"/>
    </clipPath>
  </defs>
  <g id="マスクグループ_1" data-name="マスクグループ 1" transform="translate(-786 -1821)" clip-path="url(#clip-path)">
    <g id="グループ_2041" data-name="グループ 2041" transform="translate(-1.199 12.113)">
      <path id="パス_13182" data-name="パス 13182" d="M2357.748,688.936h1.567a.436.436,0,1,0,0-.873h-1.567a.436.436,0,0,0,0,.873" transform="translate(-1236.991 1153.038)" fill="#f0f8fd" fill-rule="evenodd"/>
      <path id="パス_13183" data-name="パス 13183" d="M2342.907,593.238h2.783a.436.436,0,0,0,0-.873h-2.783a.436.436,0,1,0,0,.873" transform="translate(-1223.924 1237.299)" fill="#f0f8fd" fill-rule="evenodd"/>
      <path id="パス_13184" data-name="パス 13184" d="M1342.534,621.463h123.731a.021.021,0,0,1,.021.021v75.75a.021.021,0,0,1-.021.021H1342.534a.021.021,0,0,1-.021-.021v-75.75a.021.021,0,0,1,.021-.021" transform="translate(-343.466 1211.678)" fill="#8695e6" fill-rule="evenodd"/>
      <path id="パス_13185" data-name="パス 13185" d="M1762.488,1199.144h36.059a.74.74,0,0,0,.738-.738h0a.74.74,0,0,0-.738-.738h-36.059a.74.74,0,0,0-.738.738h0a.74.74,0,0,0,.738.738" transform="translate(-712.603 704.333)" fill="#f28d9a" fill-rule="evenodd"/>
      <path id="パス_13186" data-name="パス 13186" d="M2097.633,1199.144h8.852a.74.74,0,0,0,.738-.738h0a.74.74,0,0,0-.738-.738h-8.852a.74.74,0,0,0-.738.738h0a.74.74,0,0,0,.738.738" transform="translate(-1007.696 704.333)" fill="#bbc4f4" fill-rule="evenodd"/>
      <path id="パス_13187" data-name="パス 13187" d="M1729.809,1172.274h8.852a.74.74,0,0,0,.738-.738h0a.74.74,0,0,0-.738-.737h-8.852a.74.74,0,0,0-.738.737h0a.74.74,0,0,0,.738.738" transform="translate(-683.831 727.991)" fill="#bbc4f4" fill-rule="evenodd"/>
      <path id="パス_13188" data-name="パス 13188" d="M1762.488,1145.4h13.278a.74.74,0,0,0,.738-.737h0a.74.74,0,0,0-.738-.738h-13.278a.74.74,0,0,0-.738.738h0a.74.74,0,0,0,.738.737" transform="translate(-712.603 751.65)" fill="#bbc4f4" fill-rule="evenodd"/>
      <path id="パス_13189" data-name="パス 13189" d="M1762.851,1118.534h10.892a.74.74,0,0,0,.738-.738h0a.74.74,0,0,0-.738-.738h-10.892a.74.74,0,0,0-.738.738h0a.74.74,0,0,0,.738.738" transform="translate(-712.923 775.309)" fill="#bbc4f4" fill-rule="evenodd"/>
      <path id="パス_13190" data-name="パス 13190" d="M1762.851,1091.664h33.066a.74.74,0,0,0,.738-.738h0a.74.74,0,0,0-.738-.738h-33.066a.74.74,0,0,0-.738.738h0a.74.74,0,0,0,.738.738" transform="translate(-712.923 798.968)" fill="#bbc4f4" fill-rule="evenodd"/>
      <path id="パス_13191" data-name="パス 13191" d="M1908.092,1145.4h8.679a.74.74,0,0,0,.738-.737h0a.74.74,0,0,0-.738-.738h-8.679a.74.74,0,0,0-.738.738h0a.74.74,0,0,0,.738.737" transform="translate(-840.808 751.65)" fill="#bbc4f4" fill-rule="evenodd"/>
      <path id="パス_13192" data-name="パス 13192" d="M1880.679,1118.534h25.8a.74.74,0,0,0,.738-.738h0a.74.74,0,0,0-.738-.738h-25.8a.74.74,0,0,0-.738.738h0a.74.74,0,0,0,.738.738" transform="translate(-816.671 775.309)" fill="#f28d9a" fill-rule="evenodd"/>
      <path id="パス_13193" data-name="パス 13193" d="M2129.042,1118.534h6.921a.74.74,0,0,0,.738-.738h0a.739.739,0,0,0-.738-.738h-6.921a.74.74,0,0,0-.738.738h0a.74.74,0,0,0,.738.738" transform="translate(-1035.352 775.309)" fill="#bbc4f4" fill-rule="evenodd"/>
      <path id="パス_13194" data-name="パス 13194" d="M2217.277,1118.534h6.921a.74.74,0,0,0,.738-.738h0a.74.74,0,0,0-.738-.738h-6.921a.74.74,0,0,0-.738.738h0a.74.74,0,0,0,.738.738" transform="translate(-1113.042 775.309)" fill="#ffa726" fill-rule="evenodd"/>
      <path id="パス_13195" data-name="パス 13195" d="M1729.809,1064.614h8.852a.74.74,0,0,0,.738-.738h0a.74.74,0,0,0-.738-.737h-8.852a.74.74,0,0,0-.738.737h0a.74.74,0,0,0,.738.738" transform="translate(-683.831 822.785)" fill="#bbc4f4" fill-rule="evenodd"/>
      <path id="パス_13196" data-name="パス 13196" d="M1762.488,828.444h13.278a.74.74,0,0,0,.738-.738h0a.74.74,0,0,0-.738-.738h-13.278a.74.74,0,0,0-.738.738h0a.74.74,0,0,0,.738.738" transform="translate(-712.603 1030.732)" fill="#bbc4f4" fill-rule="evenodd"/>
      <path id="パス_13197" data-name="パス 13197" d="M1762.851,801.574h10.892a.74.74,0,0,0,.738-.738h0a.74.74,0,0,0-.738-.738h-10.892a.74.74,0,0,0-.738.738h0a.74.74,0,0,0,.738.738" transform="translate(-712.923 1054.391)" fill="#bbc4f4" fill-rule="evenodd"/>
      <path id="パス_13198" data-name="パス 13198" d="M1762.851,774.7h33.066a.74.74,0,0,0,.738-.738h0a.74.74,0,0,0-.738-.738h-33.066a.74.74,0,0,0-.738.738h0a.74.74,0,0,0,.738.738" transform="translate(-712.923 1078.049)" fill="#bbc4f4" fill-rule="evenodd"/>
      <path id="パス_13199" data-name="パス 13199" d="M1908.092,828.444h8.679a.74.74,0,0,0,.738-.738h0a.74.74,0,0,0-.738-.738h-8.679a.74.74,0,0,0-.738.738h0a.74.74,0,0,0,.738.738" transform="translate(-840.808 1030.732)" fill="#bbc4f4" fill-rule="evenodd"/>
      <path id="パス_13200" data-name="パス 13200" d="M1880.679,801.574h25.8a.74.74,0,0,0,.738-.738h0a.74.74,0,0,0-.738-.738h-25.8a.74.74,0,0,0-.738.738h0a.74.74,0,0,0,.738.738" transform="translate(-816.671 1054.391)" fill="#f28d9a" fill-rule="evenodd"/>
      <path id="パス_13201" data-name="パス 13201" d="M2129.042,801.574h6.921a.74.74,0,0,0,.738-.738h0a.74.74,0,0,0-.738-.738h-6.921a.74.74,0,0,0-.738.738h0a.74.74,0,0,0,.738.738" transform="translate(-1035.352 1054.391)" fill="#ffa726" fill-rule="evenodd"/>
      <path id="パス_13202" data-name="パス 13202" d="M2217.277,801.574h6.921a.74.74,0,0,0,.738-.738h0a.74.74,0,0,0-.738-.738h-6.921a.74.74,0,0,0-.738.738h0a.74.74,0,0,0,.738.738" transform="translate(-1113.042 1054.391)" fill="#bbc4f4" fill-rule="evenodd"/>
      <path id="パス_13203" data-name="パス 13203" d="M1764.3,1028.71h8.852a.74.74,0,0,0,.738-.738h0a.74.74,0,0,0-.738-.738H1764.3a.74.74,0,0,0-.738.738h0a.74.74,0,0,0,.738.738" transform="translate(-714.198 854.399)" fill="#bbc4f4" fill-rule="evenodd"/>
      <path id="パス_13204" data-name="パス 13204" d="M1762.488,1001.84h13.278a.74.74,0,0,0,.738-.737h0a.74.74,0,0,0-.738-.738h-13.278a.74.74,0,0,0-.738.738h0a.74.74,0,0,0,.738.737" transform="translate(-712.603 878.057)" fill="#bbc4f4" fill-rule="evenodd"/>
      <path id="パス_13205" data-name="パス 13205" d="M1762.851,974.97h10.892a.74.74,0,0,0,.738-.738h0a.74.74,0,0,0-.738-.738h-10.892a.74.74,0,0,0-.738.738h0a.74.74,0,0,0,.738.738" transform="translate(-712.923 901.716)" fill="#bbc4f4" fill-rule="evenodd"/>
      <path id="パス_13206" data-name="パス 13206" d="M1762.851,948.1h14.289a.74.74,0,0,0,.738-.738h0a.74.74,0,0,0-.738-.738h-14.289a.74.74,0,0,0-.738.738h0a.74.74,0,0,0,.738.738" transform="translate(-712.923 925.375)" fill="#ffa726" fill-rule="evenodd"/>
      <path id="パス_13207" data-name="パス 13207" d="M1908.092,1001.84h8.679a.74.74,0,0,0,.738-.737h0a.74.74,0,0,0-.738-.738h-8.679a.74.74,0,0,0-.738.738h0a.74.74,0,0,0,.738.737" transform="translate(-840.808 878.057)" fill="#bbc4f4" fill-rule="evenodd"/>
      <path id="パス_13208" data-name="パス 13208" d="M1880.679,974.97h25.8a.74.74,0,0,0,.738-.738h0a.74.74,0,0,0-.738-.738h-25.8a.74.74,0,0,0-.738.738h0a.74.74,0,0,0,.738.738" transform="translate(-816.671 901.716)" fill="#bbc4f4" fill-rule="evenodd"/>
      <path id="パス_13209" data-name="パス 13209" d="M2129.042,974.97h6.921a.739.739,0,0,0,.738-.738h0a.74.74,0,0,0-.738-.738h-6.921a.74.74,0,0,0-.738.738h0a.74.74,0,0,0,.738.738" transform="translate(-1035.352 901.716)" fill="#bbc4f4" fill-rule="evenodd"/>
      <path id="パス_13210" data-name="パス 13210" d="M2217.277,974.97h6.921a.74.74,0,0,0,.738-.738h0a.74.74,0,0,0-.738-.738h-6.921a.74.74,0,0,0-.738.738h0a.74.74,0,0,0,.738.738" transform="translate(-1113.042 901.716)" fill="#bbc4f4" fill-rule="evenodd"/>
      <path id="パス_13211" data-name="パス 13211" d="M1850.9,746.9h25.8a.74.74,0,0,0,.738-.738h0a.74.74,0,0,0-.738-.738h-25.8a.74.74,0,0,0-.738.738h0a.74.74,0,0,0,.738.738" transform="translate(-790.453 1102.528)" fill="#bbc4f4" fill-rule="evenodd"/>
      <path id="パス_13212" data-name="パス 13212" d="M2099.268,746.9h6.921a.739.739,0,0,0,.737-.738h0a.739.739,0,0,0-.737-.738h-6.921a.74.74,0,0,0-.738.738h0a.74.74,0,0,0,.738.738" transform="translate(-1009.136 1102.528)" fill="#bbc4f4" fill-rule="evenodd"/>
      <path id="パス_13213" data-name="パス 13213" d="M2187.5,746.9h6.921a.74.74,0,0,0,.738-.738h0a.74.74,0,0,0-.738-.738H2187.5a.74.74,0,0,0-.737.738h0a.74.74,0,0,0,.737.738" transform="translate(-1086.825 1102.528)" fill="#bbc4f4" fill-rule="evenodd"/>
      <path id="パス_13214" data-name="パス 13214" d="M1850.9,721.486h11.282a.74.74,0,0,0,.738-.738h0a.74.74,0,0,0-.738-.738H1850.9a.74.74,0,0,0-.738.738h0a.74.74,0,0,0,.738.738" transform="translate(-790.453 1124.908)" fill="#f28d9a" fill-rule="evenodd"/>
      <path id="パス_13215" data-name="パス 13215" d="M1978.354,721.486h17.7a.74.74,0,0,0,.738-.738h0a.74.74,0,0,0-.738-.738h-17.7a.74.74,0,0,0-.738.738h0a.74.74,0,0,0,.738.738" transform="translate(-902.672 1124.908)" fill="#f28d9a" fill-rule="evenodd"/>
      <path id="パス_13216" data-name="パス 13216" d="M2164.35,721.486h14.916a.74.74,0,0,0,.738-.738h0a.74.74,0,0,0-.738-.738H2164.35a.74.74,0,0,0-.738.738h0a.74.74,0,0,0,.738.738" transform="translate(-1066.439 1124.908)" fill="#bbc4f4" fill-rule="evenodd"/>
      <path id="パス_13217" data-name="パス 13217" d="M1850.9,921.291h25.8a.74.74,0,0,0,.738-.738h0a.74.74,0,0,0-.738-.738h-25.8a.74.74,0,0,0-.738.738h0a.74.74,0,0,0,.738.738" transform="translate(-790.453 948.98)" fill="#bbc4f4" fill-rule="evenodd"/>
      <path id="パス_13218" data-name="パス 13218" d="M2099.268,921.291h6.921a.739.739,0,0,0,.737-.738h0a.739.739,0,0,0-.737-.738h-6.921a.74.74,0,0,0-.738.738h0a.74.74,0,0,0,.738.738" transform="translate(-1009.136 948.98)" fill="#bbc4f4" fill-rule="evenodd"/>
      <path id="パス_13219" data-name="パス 13219" d="M2187.5,921.291h6.921a.74.74,0,0,0,.738-.738h0a.74.74,0,0,0-.738-.738H2187.5a.74.74,0,0,0-.737.738h0a.74.74,0,0,0,.737.738" transform="translate(-1086.825 948.98)" fill="#bbc4f4" fill-rule="evenodd"/>
      <path id="パス_13220" data-name="パス 13220" d="M1850.9,892.788h11.282a.74.74,0,0,0,.738-.738h0a.74.74,0,0,0-.738-.738H1850.9a.74.74,0,0,0-.738.738h0a.74.74,0,0,0,.738.738" transform="translate(-790.453 974.077)" fill="#bbc4f4" fill-rule="evenodd"/>
      <path id="パス_13221" data-name="パス 13221" d="M1978.354,892.788h17.7a.74.74,0,0,0,.738-.738h0a.74.74,0,0,0-.738-.738h-17.7a.74.74,0,0,0-.738.738h0a.74.74,0,0,0,.738.738" transform="translate(-902.672 974.077)" fill="#bbc4f4" fill-rule="evenodd"/>
      <path id="パス_13222" data-name="パス 13222" d="M2164.35,892.788h14.916a.74.74,0,0,0,.738-.738h0a.74.74,0,0,0-.738-.738H2164.35a.74.74,0,0,0-.738.738h0a.74.74,0,0,0,.738.738" transform="translate(-1066.439 974.077)" fill="#bbc4f4" fill-rule="evenodd"/>
      <rect id="長方形_2060" data-name="長方形 2060" width="21.927" height="67.914" transform="translate(1004.464 1838.393)" fill="#5c6bc0"/>
      <path id="パス_13223" data-name="パス 13223" d="M1908.172,948.1h7.691a.74.74,0,0,0,.738-.738h0a.74.74,0,0,0-.738-.738h-7.691a.74.74,0,0,0-.738.738h0a.74.74,0,0,0,.738.738" transform="translate(-840.879 925.375)" fill="#bbc4f4" fill-rule="evenodd"/>
      <path id="パス_13224" data-name="パス 13224" d="M1995.039,948.1h7.691a.74.74,0,0,0,.738-.738h0a.74.74,0,0,0-.738-.738h-7.691a.74.74,0,0,0-.738.738h0a.74.74,0,0,0,.738.738" transform="translate(-917.362 925.375)" fill="#ffa726" fill-rule="evenodd"/>
      <path id="パス_13225" data-name="パス 13225" d="M1729.809,862.181h11.4a.74.74,0,0,0,.738-.738h0a.74.74,0,0,0-.738-.738h-11.4a.74.74,0,0,0-.738.738h0a.74.74,0,0,0,.738.738" transform="translate(-683.831 1001.026)" fill="#bbc4f4" fill-rule="evenodd"/>
      <path id="パス_13226" data-name="パス 13226" d="M1850.936,862.181h7.691a.74.74,0,0,0,.738-.738h0a.74.74,0,0,0-.738-.738h-7.691a.74.74,0,0,0-.738.738h0a.74.74,0,0,0,.738.738" transform="translate(-790.483 1001.026)" fill="#bbc4f4" fill-rule="evenodd"/>
      <path id="パス_13227" data-name="パス 13227" d="M1944.3,862.181h7.692a.74.74,0,0,0,.737-.738h0a.74.74,0,0,0-.737-.738H1944.3a.74.74,0,0,0-.738.738h0a.74.74,0,0,0,.738.738" transform="translate(-872.687 1001.026)" fill="#bbc4f4" fill-rule="evenodd"/>
      <g id="グループ_2039" data-name="グループ 2039" transform="translate(1007.246 1843.984)">
        <path id="パス_13110" data-name="パス 13110" d="M1436.521,1055.519h4.885a.714.714,0,0,0,.712-.712h0a.714.714,0,0,0-.712-.712h-4.885a.714.714,0,0,0-.712.712h0a.714.714,0,0,0,.712.712" transform="translate(-1432.859 -1013.235)" fill="#d6dbf7" fill-rule="evenodd"/>
        <path id="パス_13111" data-name="パス 13111" d="M1411.835,1026.008h12.916a.714.714,0,0,0,.712-.712h0a.714.714,0,0,0-.712-.712h-12.916a.714.714,0,0,0-.712.712h0a.714.714,0,0,0,.712.712" transform="translate(-1411.123 -987.251)" fill="#d6dbf7" fill-rule="evenodd"/>
        <path id="パス_13112" data-name="パス 13112" d="M1411.835,994.768h9.843a.714.714,0,0,0,.712-.712h0a.714.714,0,0,0-.712-.712h-9.843a.714.714,0,0,0-.712.712h0a.714.714,0,0,0,.712.712" transform="translate(-1411.123 -959.744)" fill="#d6dbf7" fill-rule="evenodd"/>
        <path id="パス_13113" data-name="パス 13113" d="M1436.522,963.529h9.824a.714.714,0,0,0,.712-.712h0a.714.714,0,0,0-.712-.712h-9.824a.714.714,0,0,0-.712.712h0a.714.714,0,0,0,.712.712" transform="translate(-1432.86 -932.239)" fill="#d6dbf7" fill-rule="evenodd"/>
        <path id="パス_13114" data-name="パス 13114" d="M1436.522,932.289h3.129a.714.714,0,0,0,.712-.712h0a.714.714,0,0,0-.712-.712h-3.129a.714.714,0,0,0-.712.712h0a.714.714,0,0,0,.712.712" transform="translate(-1432.86 -904.732)" fill="#d6dbf7" fill-rule="evenodd"/>
        <path id="パス_13115" data-name="パス 13115" d="M1411.835,901.05h9.341a.714.714,0,0,0,.712-.712h0a.714.714,0,0,0-.712-.712h-9.341a.714.714,0,0,0-.712.712h0a.714.714,0,0,0,.712.712" transform="translate(-1411.123 -877.226)" fill="#d6dbf7" fill-rule="evenodd"/>
        <path id="パス_13116" data-name="パス 13116" d="M1436.058,869.81h2.557a.714.714,0,0,0,.712-.712h0a.714.714,0,0,0-.712-.712h-2.557a.714.714,0,0,0-.712.712h0a.714.714,0,0,0,.712.712" transform="translate(-1432.452 -849.72)" fill="#d6dbf7" fill-rule="evenodd"/>
        <path id="パス_13117" data-name="パス 13117" d="M1433.205,838.571h10.362a.714.714,0,0,0,.712-.712h0a.714.714,0,0,0-.712-.712h-10.362a.714.714,0,0,0-.712.712h0a.714.714,0,0,0,.712.712" transform="translate(-1429.94 -822.214)" fill="#d6dbf7" fill-rule="evenodd"/>
        <path id="パス_13118" data-name="パス 13118" d="M1411.835,807.331h8.243a.714.714,0,0,0,.712-.712h0a.714.714,0,0,0-.712-.712h-8.243a.714.714,0,0,0-.712.712h0a.714.714,0,0,0,.712.712" transform="translate(-1411.123 -794.707)" fill="#d6dbf7" fill-rule="evenodd"/>
        <path id="パス_13119" data-name="パス 13119" d="M1433.205,776.092h10.362a.714.714,0,0,0,.712-.712h0a.714.714,0,0,0-.712-.712h-10.362a.714.714,0,0,0-.712.712h0a.714.714,0,0,0,.712.712" transform="translate(-1429.94 -767.201)" fill="#d6dbf7" fill-rule="evenodd"/>
        <path id="パス_13120" data-name="パス 13120" d="M1433.205,744.853h6.317a.714.714,0,0,0,.712-.712h0a.714.714,0,0,0-.712-.712h-6.317a.714.714,0,0,0-.712.712h0a.714.714,0,0,0,.712.712" transform="translate(-1429.94 -739.696)" fill="#d6dbf7" fill-rule="evenodd"/>
        <path id="パス_13121" data-name="パス 13121" d="M1411.835,713.613h4.542a.714.714,0,0,0,.712-.712h0a.714.714,0,0,0-.712-.712h-4.542a.714.714,0,0,0-.712.712h0a.714.714,0,0,0,.712.712" transform="translate(-1411.123 -712.189)" fill="#d6dbf7" fill-rule="evenodd"/>
        <path id="パス_13122" data-name="パス 13122" d="M1436.521,1083.121h4.885a.714.714,0,0,0,.712-.712h0a.714.714,0,0,0-.712-.712h-4.885a.714.714,0,0,0-.712.712h0a.714.714,0,0,0,.712.712" transform="translate(-1432.859 -1037.539)" fill="#d6dbf7" fill-rule="evenodd"/>
        <path id="パス_13123" data-name="パス 13123" d="M1411.835,1110.724h12.48a.714.714,0,0,0,.712-.712h0a.714.714,0,0,0-.712-.712h-12.48a.714.714,0,0,0-.712.712h0a.714.714,0,0,0,.712.712" transform="translate(-1411.123 -1061.843)" fill="#d6dbf7" fill-rule="evenodd"/>
        <path id="パス_13124" data-name="パス 13124" d="M1436.521,1138.327h4.885a.714.714,0,0,0,.712-.712h0a.714.714,0,0,0-.712-.712h-4.885a.714.714,0,0,0-.712.712h0a.714.714,0,0,0,.712.712" transform="translate(-1432.859 -1086.147)" fill="#d6dbf7" fill-rule="evenodd"/>
      </g>
      <path id="パス_13228" data-name="パス 13228" d="M1762.852,746.9h7.246a.74.74,0,0,0,.738-.738h0a.74.74,0,0,0-.738-.738h-7.246a.74.74,0,0,0-.738.738h0a.74.74,0,0,0,.738.738" transform="translate(-712.925 1102.528)" fill="#bbc4f4" fill-rule="evenodd"/>
      <path id="パス_13229" data-name="パス 13229" d="M1701.233,721.486h14.391a.74.74,0,0,0,.738-.738h0a.74.74,0,0,0-.738-.738h-14.391a.74.74,0,0,0-.738.738h0a.74.74,0,0,0,.738.738" transform="translate(-658.667 1124.908)" fill="#bbc4f4" fill-rule="evenodd"/>
      <path id="パス_13230" data-name="パス 13230" d="M1701.233,690.033h18.952a.74.74,0,0,0,.738-.738h0a.74.74,0,0,0-.738-.738h-18.952a.74.74,0,0,0-.738.738h0a.74.74,0,0,0,.738.738" transform="translate(-658.667 1152.602)" fill="#bbc4f4" fill-rule="evenodd"/>
      <g id="グループ_2040" data-name="グループ 2040" transform="translate(1033.866 1841.16)">
        <path id="パス_13128" data-name="パス 13128" d="M1635.723,690.033h.694a.74.74,0,0,0,.738-.738h0a.74.74,0,0,0-.738-.738h-.694a.74.74,0,0,0-.738.738h0a.74.74,0,0,0,.738.738" transform="translate(-1634.853 -688.558)" fill="#b1cbef" fill-rule="evenodd"/>
        <path id="パス_13129" data-name="パス 13129" d="M1635.723,721.486h.694a.74.74,0,0,0,.738-.738h0a.74.74,0,0,0-.738-.738h-.694a.74.74,0,0,0-.738.738h0a.74.74,0,0,0,.738.738" transform="translate(-1634.853 -716.252)" fill="#b1cbef" fill-rule="evenodd"/>
        <path id="パス_13130" data-name="パス 13130" d="M1634.62,828.444h.6a.74.74,0,0,0,.738-.738h0a.74.74,0,0,0-.738-.738h-.6a.74.74,0,0,0-.738.738h0a.74.74,0,0,0,.738.738" transform="translate(-1633.882 -810.428)" fill="#b1cbef" fill-rule="evenodd"/>
        <path id="パス_13131" data-name="パス 13131" d="M1634.984,801.574h.558a.74.74,0,0,0,.738-.738h0a.74.74,0,0,0-.738-.738h-.558a.74.74,0,0,0-.738.738h0a.74.74,0,0,0,.738.738" transform="translate(-1634.203 -786.769)" fill="#b1cbef" fill-rule="evenodd"/>
        <path id="パス_13132" data-name="パス 13132" d="M1634.984,774.7h.558a.74.74,0,0,0,.738-.738h0a.74.74,0,0,0-.738-.738h-.558a.74.74,0,0,0-.738.738h0a.74.74,0,0,0,.738.738" transform="translate(-1634.203 -763.11)" fill="#b1cbef" fill-rule="evenodd"/>
        <path id="パス_13133" data-name="パス 13133" d="M1634.984,746.9h.558a.74.74,0,0,0,.738-.738h0a.74.74,0,0,0-.738-.738h-.558a.74.74,0,0,0-.738.738h0a.74.74,0,0,0,.738.738" transform="translate(-1634.203 -738.632)" fill="#b1cbef" fill-rule="evenodd"/>
        <path id="パス_13134" data-name="パス 13134" d="M1635.334,921.291h.516a.74.74,0,0,0,.738-.738h0a.74.74,0,0,0-.738-.738h-.516a.74.74,0,0,0-.738.738h0a.74.74,0,0,0,.738.738" transform="translate(-1634.51 -892.179)" fill="#b1cbef" fill-rule="evenodd"/>
        <path id="パス_13135" data-name="パス 13135" d="M1635.334,892.788h.516a.74.74,0,0,0,.738-.738h0a.74.74,0,0,0-.738-.738h-.516a.74.74,0,0,0-.738.738h0a.74.74,0,0,0,.738.738" transform="translate(-1634.51 -867.083)" fill="#b1cbef" fill-rule="evenodd"/>
        <path id="パス_13136" data-name="パス 13136" d="M1635.367,862.181h.512a.74.74,0,0,0,.738-.738h0a.74.74,0,0,0-.738-.738h-.512a.74.74,0,0,0-.738.738h0a.74.74,0,0,0,.738.738" transform="translate(-1634.54 -840.133)" fill="#b1cbef" fill-rule="evenodd"/>
        <path id="パス_13137" data-name="パス 13137" d="M1637.2,1028.71h.293a.74.74,0,0,0,.738-.738h0a.74.74,0,0,0-.738-.738h-.293a.74.74,0,0,0-.738.738h0a.74.74,0,0,0,.738.738" transform="translate(-1636.156 -986.761)" fill="#b1cbef" fill-rule="evenodd"/>
        <path id="パス_13138" data-name="パス 13138" d="M1635.334,1001.84h.516a.74.74,0,0,0,.738-.737h0a.74.74,0,0,0-.738-.738h-.516a.74.74,0,0,0-.738.738h0a.74.74,0,0,0,.738.737" transform="translate(-1634.51 -963.102)" fill="#b1cbef" fill-rule="evenodd"/>
        <path id="パス_13139" data-name="パス 13139" d="M1635.709,974.97h.471a.74.74,0,0,0,.738-.738h0a.74.74,0,0,0-.738-.738h-.471a.74.74,0,0,0-.738.738h0a.74.74,0,0,0,.738.738" transform="translate(-1634.841 -939.443)" fill="#b1cbef" fill-rule="evenodd"/>
        <path id="パス_13140" data-name="パス 13140" d="M1635.707,948.1h.472a.74.74,0,0,0,.738-.738h0a.74.74,0,0,0-.738-.738h-.472a.74.74,0,0,0-.738.738h0a.74.74,0,0,0,.738.738" transform="translate(-1634.84 -915.785)" fill="#b1cbef" fill-rule="evenodd"/>
        <path id="パス_13141" data-name="パス 13141" d="M1637.848,1172.274h.216a.74.74,0,0,0,.738-.738h0a.74.74,0,0,0-.738-.737h-.216a.74.74,0,0,0-.738.737h0a.74.74,0,0,0,.738.738" transform="translate(-1636.725 -1113.169)" fill="#b1cbef" fill-rule="evenodd"/>
        <path id="パス_13142" data-name="パス 13142" d="M1637.848,1145.4h.216a.74.74,0,0,0,.738-.737h0a.74.74,0,0,0-.738-.738h-.216a.74.74,0,0,0-.738.738h0a.74.74,0,0,0,.738.737" transform="translate(-1636.725 -1089.51)" fill="#b1cbef" fill-rule="evenodd"/>
        <path id="パス_13143" data-name="パス 13143" d="M1637.617,1118.534h.244a.74.74,0,0,0,.738-.738h0a.74.74,0,0,0-.738-.738h-.244a.74.74,0,0,0-.738.738h0a.74.74,0,0,0,.738.738" transform="translate(-1636.521 -1065.851)" fill="#b1cbef" fill-rule="evenodd"/>
        <path id="パス_13144" data-name="パス 13144" d="M1637.2,1091.664h.293a.74.74,0,0,0,.738-.738h0a.74.74,0,0,0-.738-.738h-.293a.74.74,0,0,0-.738.738h0a.74.74,0,0,0,.738.738" transform="translate(-1636.156 -1042.192)" fill="#b1cbef" fill-rule="evenodd"/>
        <path id="パス_13145" data-name="パス 13145" d="M1637.2,1064.614h.293a.74.74,0,0,0,.738-.738h0a.74.74,0,0,0-.738-.737h-.293a.74.74,0,0,0-.738.737h0a.74.74,0,0,0,.738.738" transform="translate(-1636.156 -1018.375)" fill="#b1cbef" fill-rule="evenodd"/>
      </g>
      <rect id="長方形_2061" data-name="長方形 2061" width="123.773" height="4.27" transform="translate(999.046 1828.887)" fill="#5c6bc0"/>
      <rect id="長方形_2062" data-name="長方形 2062" width="1.299" height="1.299" transform="translate(1114.06 1830.094)" fill="#fff"/>
      <rect id="長方形_2063" data-name="長方形 2063" width="1.299" height="1.299" transform="translate(1116.353 1830.094)" fill="#fff"/>
      <rect id="長方形_2064" data-name="長方形 2064" width="1.299" height="1.299" transform="translate(1118.647 1830.094)" fill="#fff"/>
      <path id="パス_12988" data-name="パス 12988" d="M2763.363,891.28h8.852a.74.74,0,0,0,.737-.738h0a.74.74,0,0,0-.737-.738h-8.852a.74.74,0,0,0-.738.738h0a.74.74,0,0,0,.738.738" transform="translate(-1673.426 1013.089)" fill="#fff" fill-rule="evenodd"/>
      <g id="グループ_2038" data-name="グループ 2038" transform="translate(812.198 1843.608)">
        <path id="パス_13036" data-name="パス 13036" d="M2358.024,689.487h2.557a.712.712,0,1,0,0-1.424h-2.557a.712.712,0,1,0,0,1.424" transform="translate(-2159.37 -668.127)" fill="#f0f8fd" fill-rule="evenodd"/>
        <path id="パス_13041" data-name="パス 13041" d="M2343.183,593.789h4.542a.712.712,0,0,0,0-1.424h-4.542a.712.712,0,1,0,0,1.424" transform="translate(-2147.423 -591.096)" fill="#f0f8fd" fill-rule="evenodd"/>
        <path id="パス_13066" data-name="パス 13066" d="M1342.547,621.463H1544.5a.034.034,0,0,1,.035.034V745.136a.034.034,0,0,1-.035.035H1342.547a.034.034,0,0,1-.035-.035V621.5a.035.035,0,0,1,.035-.034" transform="translate(-1342.513 -614.518)" fill="#8695e6" fill-rule="evenodd"/>
        <path id="パス_13067" data-name="パス 13067" d="M1762.954,1200.076h58.856a1.207,1.207,0,0,0,1.2-1.2h0a1.207,1.207,0,0,0-1.2-1.2h-58.856a1.207,1.207,0,0,0-1.2,1.2h0a1.208,1.208,0,0,0,1.2,1.2" transform="translate(-1679.975 -1078.331)" fill="#f28d9a" fill-rule="evenodd"/>
        <path id="パス_13068" data-name="パス 13068" d="M2098.1,1200.076h14.448a1.208,1.208,0,0,0,1.2-1.2h0a1.208,1.208,0,0,0-1.2-1.2H2098.1a1.207,1.207,0,0,0-1.2,1.2h0a1.207,1.207,0,0,0,1.2,1.2" transform="translate(-1949.748 -1078.331)" fill="#bbc4f4" fill-rule="evenodd"/>
        <path id="パス_13069" data-name="パス 13069" d="M1730.275,1173.207h14.448a1.208,1.208,0,0,0,1.2-1.2h0a1.208,1.208,0,0,0-1.2-1.2h-14.448a1.207,1.207,0,0,0-1.2,1.2h0a1.207,1.207,0,0,0,1.2,1.2" transform="translate(-1653.671 -1056.703)" fill="#bbc4f4" fill-rule="evenodd"/>
        <path id="パス_13070" data-name="パス 13070" d="M1762.954,1146.337h21.673a1.208,1.208,0,0,0,1.2-1.2h0a1.208,1.208,0,0,0-1.2-1.2h-21.673a1.208,1.208,0,0,0-1.2,1.2h0a1.208,1.208,0,0,0,1.2,1.2" transform="translate(-1679.975 -1035.074)" fill="#bbc4f4" fill-rule="evenodd"/>
        <path id="パス_13071" data-name="パス 13071" d="M1763.317,1119.467h17.777a1.207,1.207,0,0,0,1.2-1.2h0a1.207,1.207,0,0,0-1.2-1.2h-17.777a1.207,1.207,0,0,0-1.2,1.2h0a1.207,1.207,0,0,0,1.2,1.2" transform="translate(-1680.267 -1013.445)" fill="#bbc4f4" fill-rule="evenodd"/>
        <path id="パス_13072" data-name="パス 13072" d="M1763.317,1092.6h53.969a1.208,1.208,0,0,0,1.2-1.2h0a1.207,1.207,0,0,0-1.2-1.2h-53.969a1.207,1.207,0,0,0-1.2,1.2h0a1.207,1.207,0,0,0,1.2,1.2" transform="translate(-1680.267 -991.816)" fill="#bbc4f4" fill-rule="evenodd"/>
        <path id="パス_13073" data-name="パス 13073" d="M1908.559,1146.337h14.165a1.207,1.207,0,0,0,1.2-1.2h0a1.207,1.207,0,0,0-1.2-1.2h-14.165a1.207,1.207,0,0,0-1.2,1.2h0a1.207,1.207,0,0,0,1.2,1.2" transform="translate(-1797.18 -1035.074)" fill="#bbc4f4" fill-rule="evenodd"/>
        <path id="パス_13074" data-name="パス 13074" d="M1881.145,1119.467h42.106a1.208,1.208,0,0,0,1.2-1.2h0a1.208,1.208,0,0,0-1.2-1.2h-42.106a1.207,1.207,0,0,0-1.2,1.2h0a1.207,1.207,0,0,0,1.2,1.2" transform="translate(-1775.113 -1013.445)" fill="#f28d9a" fill-rule="evenodd"/>
        <path id="パス_13075" data-name="パス 13075" d="M2129.508,1119.467h11.3a1.207,1.207,0,0,0,1.2-1.2h0a1.207,1.207,0,0,0-1.2-1.2h-11.3a1.207,1.207,0,0,0-1.2,1.2h0a1.207,1.207,0,0,0,1.2,1.2" transform="translate(-1975.031 -1013.445)" fill="#bbc4f4" fill-rule="evenodd"/>
        <path id="パス_13076" data-name="パス 13076" d="M2217.743,1119.467h11.3a1.208,1.208,0,0,0,1.2-1.2h0a1.207,1.207,0,0,0-1.2-1.2h-11.3a1.207,1.207,0,0,0-1.2,1.2h0a1.208,1.208,0,0,0,1.2,1.2" transform="translate(-2046.055 -1013.445)" fill="#ffa726" fill-rule="evenodd"/>
        <path id="パス_13077" data-name="パス 13077" d="M1730.275,1065.547h14.448a1.208,1.208,0,0,0,1.2-1.2h0a1.208,1.208,0,0,0-1.2-1.2h-14.448a1.207,1.207,0,0,0-1.2,1.2h0a1.207,1.207,0,0,0,1.2,1.2" transform="translate(-1653.671 -970.043)" fill="#bbc4f4" fill-rule="evenodd"/>
        <path id="パス_13078" data-name="パス 13078" d="M1762.954,829.377h21.673a1.208,1.208,0,0,0,1.2-1.2h0a1.208,1.208,0,0,0-1.2-1.2h-21.673a1.208,1.208,0,0,0-1.2,1.2h0a1.208,1.208,0,0,0,1.2,1.2" transform="translate(-1679.975 -779.939)" fill="#bbc4f4" fill-rule="evenodd"/>
        <path id="パス_13079" data-name="パス 13079" d="M1763.317,802.507h17.777a1.208,1.208,0,0,0,1.2-1.2h0a1.208,1.208,0,0,0-1.2-1.2h-17.777a1.208,1.208,0,0,0-1.2,1.2h0a1.208,1.208,0,0,0,1.2,1.2" transform="translate(-1680.267 -758.31)" fill="#bbc4f4" fill-rule="evenodd"/>
        <path id="パス_13080" data-name="パス 13080" d="M1763.317,775.637h53.969a1.208,1.208,0,0,0,1.2-1.2h0a1.208,1.208,0,0,0-1.2-1.2h-53.969a1.208,1.208,0,0,0-1.2,1.2h0a1.207,1.207,0,0,0,1.2,1.2" transform="translate(-1680.267 -736.681)" fill="#bbc4f4" fill-rule="evenodd"/>
        <path id="パス_13081" data-name="パス 13081" d="M1908.559,829.377h14.165a1.208,1.208,0,0,0,1.2-1.2h0a1.208,1.208,0,0,0-1.2-1.2h-14.165a1.208,1.208,0,0,0-1.2,1.2h0a1.208,1.208,0,0,0,1.2,1.2" transform="translate(-1797.18 -779.939)" fill="#bbc4f4" fill-rule="evenodd"/>
        <path id="パス_13082" data-name="パス 13082" d="M1881.145,802.507h42.106a1.208,1.208,0,0,0,1.2-1.2h0a1.208,1.208,0,0,0-1.2-1.2h-42.106a1.207,1.207,0,0,0-1.2,1.2h0a1.207,1.207,0,0,0,1.2,1.2" transform="translate(-1775.113 -758.31)" fill="#f28d9a" fill-rule="evenodd"/>
        <path id="パス_13083" data-name="パス 13083" d="M2129.508,802.507h11.3a1.208,1.208,0,0,0,1.2-1.2h0a1.208,1.208,0,0,0-1.2-1.2h-11.3a1.208,1.208,0,0,0-1.2,1.2h0a1.208,1.208,0,0,0,1.2,1.2" transform="translate(-1975.031 -758.31)" fill="#ffa726" fill-rule="evenodd"/>
        <path id="パス_13084" data-name="パス 13084" d="M2217.743,802.507h11.3a1.208,1.208,0,0,0,1.2-1.2h0a1.208,1.208,0,0,0-1.2-1.2h-11.3a1.208,1.208,0,0,0-1.2,1.2h0a1.208,1.208,0,0,0,1.2,1.2" transform="translate(-2046.055 -758.31)" fill="#bbc4f4" fill-rule="evenodd"/>
        <path id="パス_13085" data-name="パス 13085" d="M1764.766,1029.643h14.448a1.207,1.207,0,0,0,1.2-1.2h0a1.207,1.207,0,0,0-1.2-1.2h-14.448a1.207,1.207,0,0,0-1.2,1.2h0a1.207,1.207,0,0,0,1.2,1.2" transform="translate(-1681.435 -941.142)" fill="#bbc4f4" fill-rule="evenodd"/>
        <path id="パス_13086" data-name="パス 13086" d="M1762.954,1002.773h21.673a1.207,1.207,0,0,0,1.2-1.2h0a1.208,1.208,0,0,0-1.2-1.2h-21.673a1.208,1.208,0,0,0-1.2,1.2h0a1.207,1.207,0,0,0,1.2,1.2" transform="translate(-1679.975 -919.513)" fill="#bbc4f4" fill-rule="evenodd"/>
        <path id="パス_13087" data-name="パス 13087" d="M1763.317,975.9h17.777a1.207,1.207,0,0,0,1.2-1.2h0a1.208,1.208,0,0,0-1.2-1.2h-17.777a1.208,1.208,0,0,0-1.2,1.2h0a1.207,1.207,0,0,0,1.2,1.2" transform="translate(-1680.267 -897.884)" fill="#bbc4f4" fill-rule="evenodd"/>
        <path id="パス_13088" data-name="パス 13088" d="M1763.317,949.033h23.322a1.208,1.208,0,0,0,1.2-1.2h0a1.208,1.208,0,0,0-1.2-1.2h-23.322a1.207,1.207,0,0,0-1.2,1.2h0a1.207,1.207,0,0,0,1.2,1.2" transform="translate(-1680.267 -876.255)" fill="#ffa726" fill-rule="evenodd"/>
        <path id="パス_13089" data-name="パス 13089" d="M1908.559,1002.773h14.165a1.207,1.207,0,0,0,1.2-1.2h0a1.207,1.207,0,0,0-1.2-1.2h-14.165a1.207,1.207,0,0,0-1.2,1.2h0a1.207,1.207,0,0,0,1.2,1.2" transform="translate(-1797.18 -919.513)" fill="#bbc4f4" fill-rule="evenodd"/>
        <path id="パス_13090" data-name="パス 13090" d="M1881.145,975.9h42.106a1.208,1.208,0,0,0,1.2-1.2h0a1.208,1.208,0,0,0-1.2-1.2h-42.106a1.207,1.207,0,0,0-1.2,1.2h0a1.207,1.207,0,0,0,1.2,1.2" transform="translate(-1775.113 -897.884)" fill="#bbc4f4" fill-rule="evenodd"/>
        <path id="パス_13091" data-name="パス 13091" d="M2129.508,975.9h11.3a1.207,1.207,0,0,0,1.2-1.2h0a1.207,1.207,0,0,0-1.2-1.2h-11.3a1.207,1.207,0,0,0-1.2,1.2h0a1.207,1.207,0,0,0,1.2,1.2" transform="translate(-1975.031 -897.884)" fill="#bbc4f4" fill-rule="evenodd"/>
        <path id="パス_13092" data-name="パス 13092" d="M2217.743,975.9h11.3a1.208,1.208,0,0,0,1.2-1.2h0a1.208,1.208,0,0,0-1.2-1.2h-11.3a1.208,1.208,0,0,0-1.2,1.2h0a1.208,1.208,0,0,0,1.2,1.2" transform="translate(-2046.055 -897.884)" fill="#bbc4f4" fill-rule="evenodd"/>
        <path id="パス_13093" data-name="パス 13093" d="M1851.37,747.836h42.106a1.208,1.208,0,0,0,1.2-1.2h0a1.208,1.208,0,0,0-1.2-1.2H1851.37a1.207,1.207,0,0,0-1.2,1.2h0a1.207,1.207,0,0,0,1.2,1.2" transform="translate(-1751.146 -714.303)" fill="#bbc4f4" fill-rule="evenodd"/>
        <path id="パス_13094" data-name="パス 13094" d="M2099.734,747.836h11.3a1.207,1.207,0,0,0,1.2-1.2h0a1.208,1.208,0,0,0-1.2-1.2h-11.3a1.208,1.208,0,0,0-1.2,1.2h0a1.207,1.207,0,0,0,1.2,1.2" transform="translate(-1951.064 -714.303)" fill="#bbc4f4" fill-rule="evenodd"/>
        <path id="パス_13095" data-name="パス 13095" d="M2187.968,747.836h11.3a1.208,1.208,0,0,0,1.2-1.2h0a1.208,1.208,0,0,0-1.2-1.2h-11.3a1.207,1.207,0,0,0-1.2,1.2h0a1.207,1.207,0,0,0,1.2,1.2" transform="translate(-2022.088 -714.303)" fill="#bbc4f4" fill-rule="evenodd"/>
        <path id="パス_13096" data-name="パス 13096" d="M1851.37,722.419h18.414a1.208,1.208,0,0,0,1.2-1.2h0a1.208,1.208,0,0,0-1.2-1.2H1851.37a1.207,1.207,0,0,0-1.2,1.2h0a1.207,1.207,0,0,0,1.2,1.2" transform="translate(-1751.146 -693.844)" fill="#f28d9a" fill-rule="evenodd"/>
        <path id="パス_13097" data-name="パス 13097" d="M1978.82,722.419h28.9a1.207,1.207,0,0,0,1.2-1.2h0a1.207,1.207,0,0,0-1.2-1.2h-28.9a1.207,1.207,0,0,0-1.2,1.2h0a1.207,1.207,0,0,0,1.2,1.2" transform="translate(-1853.735 -693.844)" fill="#f28d9a" fill-rule="evenodd"/>
        <path id="パス_13098" data-name="パス 13098" d="M2164.816,722.419h24.346a1.208,1.208,0,0,0,1.2-1.2h0a1.208,1.208,0,0,0-1.2-1.2h-24.346a1.207,1.207,0,0,0-1.2,1.2h0a1.207,1.207,0,0,0,1.2,1.2" transform="translate(-2003.452 -693.844)" fill="#bbc4f4" fill-rule="evenodd"/>
        <path id="パス_13099" data-name="パス 13099" d="M1851.37,922.224h42.106a1.208,1.208,0,0,0,1.2-1.2h0a1.208,1.208,0,0,0-1.2-1.2H1851.37a1.207,1.207,0,0,0-1.2,1.2h0a1.207,1.207,0,0,0,1.2,1.2" transform="translate(-1751.146 -854.676)" fill="#bbc4f4" fill-rule="evenodd"/>
        <path id="パス_13100" data-name="パス 13100" d="M2099.734,922.224h11.3a1.207,1.207,0,0,0,1.2-1.2h0a1.208,1.208,0,0,0-1.2-1.2h-11.3a1.207,1.207,0,0,0-1.2,1.2h0a1.207,1.207,0,0,0,1.2,1.2" transform="translate(-1951.064 -854.676)" fill="#bbc4f4" fill-rule="evenodd"/>
        <path id="パス_13101" data-name="パス 13101" d="M2187.968,922.224h11.3a1.208,1.208,0,0,0,1.2-1.2h0a1.208,1.208,0,0,0-1.2-1.2h-11.3a1.207,1.207,0,0,0-1.2,1.2h0a1.207,1.207,0,0,0,1.2,1.2" transform="translate(-2022.088 -854.676)" fill="#bbc4f4" fill-rule="evenodd"/>
        <path id="パス_13102" data-name="パス 13102" d="M1851.37,893.721h18.414a1.208,1.208,0,0,0,1.2-1.2h0a1.208,1.208,0,0,0-1.2-1.2H1851.37a1.207,1.207,0,0,0-1.2,1.2h0a1.207,1.207,0,0,0,1.2,1.2" transform="translate(-1751.146 -831.732)" fill="#bbc4f4" fill-rule="evenodd"/>
        <path id="パス_13103" data-name="パス 13103" d="M1978.82,893.721h28.9a1.207,1.207,0,0,0,1.2-1.2h0a1.207,1.207,0,0,0-1.2-1.2h-28.9a1.207,1.207,0,0,0-1.2,1.2h0a1.207,1.207,0,0,0,1.2,1.2" transform="translate(-1853.735 -831.732)" fill="#bbc4f4" fill-rule="evenodd"/>
        <path id="パス_13104" data-name="パス 13104" d="M2164.816,893.721h24.346a1.208,1.208,0,0,0,1.2-1.2h0a1.208,1.208,0,0,0-1.2-1.2h-24.346a1.207,1.207,0,0,0-1.2,1.2h0a1.207,1.207,0,0,0,1.2,1.2" transform="translate(-2003.452 -831.732)" fill="#bbc4f4" fill-rule="evenodd"/>
        <rect id="長方形_2053" data-name="長方形 2053" width="35.788" height="110.849" transform="translate(8.844 15.516)" fill="#5c6bc0"/>
        <path id="パス_13105" data-name="パス 13105" d="M1908.638,949.033h12.554a1.208,1.208,0,0,0,1.2-1.2h0a1.208,1.208,0,0,0-1.2-1.2h-12.554a1.207,1.207,0,0,0-1.2,1.2h0a1.208,1.208,0,0,0,1.2,1.2" transform="translate(-1797.243 -876.255)" fill="#bbc4f4" fill-rule="evenodd"/>
        <path id="パス_13106" data-name="パス 13106" d="M1995.505,949.033h12.554a1.208,1.208,0,0,0,1.2-1.2h0a1.208,1.208,0,0,0-1.2-1.2h-12.554a1.208,1.208,0,0,0-1.2,1.2h0a1.208,1.208,0,0,0,1.2,1.2" transform="translate(-1867.165 -876.255)" fill="#ffa726" fill-rule="evenodd"/>
        <path id="パス_13107" data-name="パス 13107" d="M1730.275,863.114h18.6a1.208,1.208,0,0,0,1.2-1.2h0a1.208,1.208,0,0,0-1.2-1.2h-18.6a1.207,1.207,0,0,0-1.2,1.2h0a1.207,1.207,0,0,0,1.2,1.2" transform="translate(-1653.671 -807.095)" fill="#bbc4f4" fill-rule="evenodd"/>
        <path id="パス_13108" data-name="パス 13108" d="M1851.4,863.114h12.554a1.208,1.208,0,0,0,1.2-1.2h0a1.208,1.208,0,0,0-1.2-1.2H1851.4a1.208,1.208,0,0,0-1.2,1.2h0a1.208,1.208,0,0,0,1.2,1.2" transform="translate(-1751.172 -807.095)" fill="#bbc4f4" fill-rule="evenodd"/>
        <path id="パス_13109" data-name="パス 13109" d="M1944.764,863.114h12.554a1.207,1.207,0,0,0,1.2-1.2h0a1.207,1.207,0,0,0-1.2-1.2h-12.554a1.207,1.207,0,0,0-1.2,1.2h0a1.207,1.207,0,0,0,1.2,1.2" transform="translate(-1826.323 -807.095)" fill="#bbc4f4" fill-rule="evenodd"/>
        <g id="グループ_2036" data-name="グループ 2036" transform="translate(13.383 24.641)">
          <path id="パス_13110-2" data-name="パス 13110" d="M1436.971,1056.42h7.973a1.166,1.166,0,0,0,1.162-1.162h0a1.166,1.166,0,0,0-1.162-1.162h-7.973a1.166,1.166,0,0,0-1.163,1.162h0a1.166,1.166,0,0,0,1.163,1.162" transform="translate(-1430.994 -987.404)" fill="#d6dbf7" fill-rule="evenodd"/>
          <path id="パス_13111-2" data-name="パス 13111" d="M1412.285,1026.909h21.081a1.166,1.166,0,0,0,1.162-1.162h0a1.166,1.166,0,0,0-1.162-1.162h-21.081a1.166,1.166,0,0,0-1.162,1.162h0a1.166,1.166,0,0,0,1.162,1.162" transform="translate(-1411.123 -963.65)" fill="#d6dbf7" fill-rule="evenodd"/>
          <path id="パス_13112-2" data-name="パス 13112" d="M1412.285,995.669h16.065a1.166,1.166,0,0,0,1.162-1.162h0a1.166,1.166,0,0,0-1.162-1.162h-16.065a1.166,1.166,0,0,0-1.162,1.162h0a1.166,1.166,0,0,0,1.162,1.162" transform="translate(-1411.123 -938.503)" fill="#d6dbf7" fill-rule="evenodd"/>
          <path id="パス_13113-2" data-name="パス 13113" d="M1436.972,964.43h16.034a1.166,1.166,0,0,0,1.162-1.162h0a1.166,1.166,0,0,0-1.162-1.162h-16.034a1.166,1.166,0,0,0-1.162,1.162h0a1.166,1.166,0,0,0,1.162,1.162" transform="translate(-1430.996 -913.357)" fill="#d6dbf7" fill-rule="evenodd"/>
          <path id="パス_13114-2" data-name="パス 13114" d="M1436.972,933.19h5.107a1.166,1.166,0,0,0,1.162-1.162h0a1.166,1.166,0,0,0-1.162-1.162h-5.107a1.166,1.166,0,0,0-1.162,1.162h0a1.166,1.166,0,0,0,1.162,1.162" transform="translate(-1430.996 -888.211)" fill="#d6dbf7" fill-rule="evenodd"/>
          <path id="パス_13115-2" data-name="パス 13115" d="M1412.285,901.951h15.246a1.166,1.166,0,0,0,1.162-1.162h0a1.166,1.166,0,0,0-1.162-1.162h-15.246a1.166,1.166,0,0,0-1.162,1.162h0a1.166,1.166,0,0,0,1.162,1.162" transform="translate(-1411.123 -863.065)" fill="#d6dbf7" fill-rule="evenodd"/>
          <path id="パス_13116-2" data-name="パス 13116" d="M1436.508,870.711h4.174a1.166,1.166,0,0,0,1.162-1.162h0a1.166,1.166,0,0,0-1.162-1.162h-4.174a1.166,1.166,0,0,0-1.162,1.162h0a1.166,1.166,0,0,0,1.162,1.162" transform="translate(-1430.623 -837.919)" fill="#d6dbf7" fill-rule="evenodd"/>
          <path id="パス_13117-2" data-name="パス 13117" d="M1433.655,839.472h16.912a1.166,1.166,0,0,0,1.163-1.162h0a1.166,1.166,0,0,0-1.163-1.162h-16.912a1.165,1.165,0,0,0-1.162,1.162h0a1.165,1.165,0,0,0,1.162,1.162" transform="translate(-1428.325 -812.773)" fill="#d6dbf7" fill-rule="evenodd"/>
          <path id="パス_13118-2" data-name="パス 13118" d="M1412.285,808.232h13.454a1.166,1.166,0,0,0,1.162-1.162h0a1.166,1.166,0,0,0-1.162-1.162h-13.454a1.166,1.166,0,0,0-1.162,1.162h0a1.166,1.166,0,0,0,1.162,1.162" transform="translate(-1411.123 -787.627)" fill="#d6dbf7" fill-rule="evenodd"/>
          <path id="パス_13119-2" data-name="パス 13119" d="M1433.655,776.993h16.912a1.166,1.166,0,0,0,1.163-1.162h0a1.166,1.166,0,0,0-1.163-1.162h-16.912a1.166,1.166,0,0,0-1.162,1.162h0a1.166,1.166,0,0,0,1.162,1.162" transform="translate(-1428.325 -762.481)" fill="#d6dbf7" fill-rule="evenodd"/>
          <path id="パス_13120-2" data-name="パス 13120" d="M1433.655,745.754h10.31a1.166,1.166,0,0,0,1.162-1.162h0a1.166,1.166,0,0,0-1.162-1.162h-10.31a1.165,1.165,0,0,0-1.162,1.162h0a1.166,1.166,0,0,0,1.162,1.162" transform="translate(-1428.325 -737.336)" fill="#d6dbf7" fill-rule="evenodd"/>
          <path id="パス_13121-2" data-name="パス 13121" d="M1412.285,714.514h7.414a1.166,1.166,0,0,0,1.162-1.162h0a1.166,1.166,0,0,0-1.162-1.162h-7.414a1.166,1.166,0,0,0-1.162,1.162h0a1.166,1.166,0,0,0,1.162,1.162" transform="translate(-1411.123 -712.189)" fill="#d6dbf7" fill-rule="evenodd"/>
          <path id="パス_13122-2" data-name="パス 13122" d="M1436.971,1084.022h7.973a1.166,1.166,0,0,0,1.162-1.162h0a1.166,1.166,0,0,0-1.162-1.162h-7.973a1.166,1.166,0,0,0-1.163,1.162h0a1.166,1.166,0,0,0,1.163,1.162" transform="translate(-1430.994 -1009.622)" fill="#d6dbf7" fill-rule="evenodd"/>
          <path id="パス_13123-2" data-name="パス 13123" d="M1412.286,1111.625h20.37a1.166,1.166,0,0,0,1.162-1.162h0a1.165,1.165,0,0,0-1.162-1.162h-20.37a1.166,1.166,0,0,0-1.162,1.162h0a1.166,1.166,0,0,0,1.162,1.162" transform="translate(-1411.123 -1031.841)" fill="#d6dbf7" fill-rule="evenodd"/>
          <path id="パス_13124-2" data-name="パス 13124" d="M1436.971,1139.228h7.973a1.166,1.166,0,0,0,1.162-1.162h0a1.166,1.166,0,0,0-1.162-1.162h-7.973a1.166,1.166,0,0,0-1.163,1.162h0a1.166,1.166,0,0,0,1.163,1.162" transform="translate(-1430.994 -1054.06)" fill="#d6dbf7" fill-rule="evenodd"/>
        </g>
        <path id="パス_13125" data-name="パス 13125" d="M1763.318,747.836h11.827a1.207,1.207,0,0,0,1.2-1.2h0a1.207,1.207,0,0,0-1.2-1.2h-11.827a1.208,1.208,0,0,0-1.2,1.2h0a1.207,1.207,0,0,0,1.2,1.2" transform="translate(-1680.269 -714.303)" fill="#bbc4f4" fill-rule="evenodd"/>
        <path id="パス_13126" data-name="パス 13126" d="M1701.7,722.419h23.488a1.208,1.208,0,0,0,1.2-1.2h0a1.208,1.208,0,0,0-1.2-1.2H1701.7a1.207,1.207,0,0,0-1.2,1.2h0a1.207,1.207,0,0,0,1.2,1.2" transform="translate(-1630.669 -693.844)" fill="#bbc4f4" fill-rule="evenodd"/>
        <path id="パス_13127" data-name="パス 13127" d="M1701.7,690.966h30.933a1.208,1.208,0,0,0,1.2-1.2h0a1.207,1.207,0,0,0-1.2-1.2H1701.7a1.208,1.208,0,0,0-1.2,1.2h0a1.208,1.208,0,0,0,1.2,1.2" transform="translate(-1630.669 -668.526)" fill="#bbc4f4" fill-rule="evenodd"/>
        <g id="グループ_2037" data-name="グループ 2037" transform="translate(56.834 20.032)">
          <path id="パス_13128-2" data-name="パス 13128" d="M1636.189,690.966h1.132a1.208,1.208,0,0,0,1.2-1.2h0a1.207,1.207,0,0,0-1.2-1.2h-1.132a1.208,1.208,0,0,0-1.2,1.2h0a1.208,1.208,0,0,0,1.2,1.2" transform="translate(-1634.77 -688.558)" fill="#b1cbef" fill-rule="evenodd"/>
          <path id="パス_13129-2" data-name="パス 13129" d="M1636.189,722.419h1.132a1.208,1.208,0,0,0,1.2-1.2h0a1.207,1.207,0,0,0-1.2-1.2h-1.132a1.208,1.208,0,0,0-1.2,1.2h0a1.208,1.208,0,0,0,1.2,1.2" transform="translate(-1634.77 -713.876)" fill="#b1cbef" fill-rule="evenodd"/>
          <path id="パス_13130-2" data-name="パス 13130" d="M1635.086,829.377h.982a1.208,1.208,0,0,0,1.2-1.2h0a1.208,1.208,0,0,0-1.2-1.2h-.982a1.208,1.208,0,0,0-1.2,1.2h0a1.208,1.208,0,0,0,1.2,1.2" transform="translate(-1633.882 -799.971)" fill="#b1cbef" fill-rule="evenodd"/>
          <path id="パス_13131-2" data-name="パス 13131" d="M1635.45,802.507h.911a1.208,1.208,0,0,0,1.2-1.2h0a1.208,1.208,0,0,0-1.2-1.2h-.911a1.208,1.208,0,0,0-1.2,1.2h0a1.208,1.208,0,0,0,1.2,1.2" transform="translate(-1634.176 -778.342)" fill="#b1cbef" fill-rule="evenodd"/>
          <path id="パス_13132-2" data-name="パス 13132" d="M1635.45,775.637h.911a1.208,1.208,0,0,0,1.2-1.2h0a1.208,1.208,0,0,0-1.2-1.2h-.911a1.208,1.208,0,0,0-1.2,1.2h0a1.208,1.208,0,0,0,1.2,1.2" transform="translate(-1634.176 -756.713)" fill="#b1cbef" fill-rule="evenodd"/>
          <path id="パス_13133-2" data-name="パス 13133" d="M1635.45,747.836h.911a1.208,1.208,0,0,0,1.2-1.2h0a1.208,1.208,0,0,0-1.2-1.2h-.911a1.208,1.208,0,0,0-1.2,1.2h0a1.207,1.207,0,0,0,1.2,1.2" transform="translate(-1634.176 -734.335)" fill="#b1cbef" fill-rule="evenodd"/>
          <path id="パス_13134-2" data-name="パス 13134" d="M1635.8,922.224h.843a1.207,1.207,0,0,0,1.2-1.2h0a1.208,1.208,0,0,0-1.2-1.2h-.843a1.208,1.208,0,0,0-1.2,1.2h0a1.207,1.207,0,0,0,1.2,1.2" transform="translate(-1634.456 -874.708)" fill="#b1cbef" fill-rule="evenodd"/>
          <path id="パス_13135-2" data-name="パス 13135" d="M1635.8,893.721h.843a1.208,1.208,0,0,0,1.2-1.2h0a1.207,1.207,0,0,0-1.2-1.2h-.843a1.207,1.207,0,0,0-1.2,1.2h0a1.208,1.208,0,0,0,1.2,1.2" transform="translate(-1634.456 -851.764)" fill="#b1cbef" fill-rule="evenodd"/>
          <path id="パス_13136-2" data-name="パス 13136" d="M1635.833,863.114h.836a1.208,1.208,0,0,0,1.2-1.2h0a1.208,1.208,0,0,0-1.2-1.2h-.836a1.208,1.208,0,0,0-1.2,1.2h0a1.208,1.208,0,0,0,1.2,1.2" transform="translate(-1634.484 -827.127)" fill="#b1cbef" fill-rule="evenodd"/>
          <path id="パス_13137-2" data-name="パス 13137" d="M1637.669,1029.643h.478a1.207,1.207,0,0,0,1.2-1.2h0a1.207,1.207,0,0,0-1.2-1.2h-.478a1.207,1.207,0,0,0-1.2,1.2h0a1.207,1.207,0,0,0,1.2,1.2" transform="translate(-1635.961 -961.174)" fill="#b1cbef" fill-rule="evenodd"/>
          <path id="パス_13138-2" data-name="パス 13138" d="M1635.8,1002.773h.843a1.207,1.207,0,0,0,1.2-1.2h0a1.207,1.207,0,0,0-1.2-1.2h-.843a1.207,1.207,0,0,0-1.2,1.2h0a1.207,1.207,0,0,0,1.2,1.2" transform="translate(-1634.456 -939.545)" fill="#b1cbef" fill-rule="evenodd"/>
          <path id="パス_13139-2" data-name="パス 13139" d="M1636.175,975.9h.77a1.207,1.207,0,0,0,1.2-1.2h0a1.208,1.208,0,0,0-1.2-1.2h-.77a1.207,1.207,0,0,0-1.2,1.2h0a1.207,1.207,0,0,0,1.2,1.2" transform="translate(-1634.76 -917.916)" fill="#b1cbef" fill-rule="evenodd"/>
          <path id="パス_13140-2" data-name="パス 13140" d="M1636.174,949.033h.77a1.208,1.208,0,0,0,1.2-1.2h0a1.208,1.208,0,0,0-1.2-1.2h-.77a1.208,1.208,0,0,0-1.2,1.2h0a1.208,1.208,0,0,0,1.2,1.2" transform="translate(-1634.758 -896.287)" fill="#b1cbef" fill-rule="evenodd"/>
          <path id="パス_13141-2" data-name="パス 13141" d="M1638.314,1173.207h.352a1.208,1.208,0,0,0,1.2-1.2h0a1.208,1.208,0,0,0-1.2-1.2h-.352a1.207,1.207,0,0,0-1.2,1.2h0a1.207,1.207,0,0,0,1.2,1.2" transform="translate(-1636.481 -1076.735)" fill="#b1cbef" fill-rule="evenodd"/>
          <path id="パス_13142-2" data-name="パス 13142" d="M1638.314,1146.337h.352a1.208,1.208,0,0,0,1.2-1.2h0a1.208,1.208,0,0,0-1.2-1.2h-.352a1.207,1.207,0,0,0-1.2,1.2h0a1.207,1.207,0,0,0,1.2,1.2" transform="translate(-1636.481 -1055.106)" fill="#b1cbef" fill-rule="evenodd"/>
          <path id="パス_13143-2" data-name="パス 13143" d="M1638.084,1119.467h.4a1.207,1.207,0,0,0,1.2-1.2h0a1.207,1.207,0,0,0-1.2-1.2h-.4a1.207,1.207,0,0,0-1.2,1.2h0a1.207,1.207,0,0,0,1.2,1.2" transform="translate(-1636.295 -1033.477)" fill="#b1cbef" fill-rule="evenodd"/>
          <path id="パス_13144-2" data-name="パス 13144" d="M1637.669,1092.6h.478a1.208,1.208,0,0,0,1.2-1.2h0a1.208,1.208,0,0,0-1.2-1.2h-.478a1.207,1.207,0,0,0-1.2,1.2h0a1.207,1.207,0,0,0,1.2,1.2" transform="translate(-1635.961 -1011.848)" fill="#b1cbef" fill-rule="evenodd"/>
          <path id="パス_13145-2" data-name="パス 13145" d="M1637.669,1065.547h.478a1.208,1.208,0,0,0,1.2-1.2h0a1.207,1.207,0,0,0-1.2-1.2h-.478a1.207,1.207,0,0,0-1.2,1.2h0a1.207,1.207,0,0,0,1.2,1.2" transform="translate(-1635.961 -990.075)" fill="#b1cbef" fill-rule="evenodd"/>
        </g>
        <rect id="長方形_2054" data-name="長方形 2054" width="202.022" height="6.97" fill="#5c6bc0"/>
        <rect id="長方形_2055" data-name="長方形 2055" width="2.12" height="2.12" transform="translate(187.725 1.97)" fill="#fff"/>
        <rect id="長方形_2056" data-name="長方形 2056" width="2.12" height="2.12" transform="translate(191.468 1.97)" fill="#fff"/>
        <rect id="長方形_2057" data-name="長方形 2057" width="2.12" height="2.12" transform="translate(195.211 1.97)" fill="#fff"/>
      </g>
      <g id="グループ_2035" data-name="グループ 2035" transform="translate(969.652 1888.957)">
        <path id="パス_13147" data-name="パス 13147" d="M-1423.622-5.445c-3.559,11.32-8.739,22.309-20.365,29.037-10.216,2.624-31.389,1.913-30.776-.6.565-2.321,4.11-4.162,6.048-2.961,2.109,1.307,22.6-14.417,22.849-14.477,1.75-.415,6.937-25.457,17.259-29.816,1.162-.957,7.887,13.144,4.985,18.818" transform="translate(1530.465 65.38)" fill="#ffa726" fill-rule="evenodd"/>
        <path id="パス_13148" data-name="パス 13148" d="M-1432.311,89.1a34.044,34.044,0,0,1-6.722,8.418c2.247-4.66,6.971-24.942,6.971-24.942Z" transform="translate(1533.632 -15.259)" fill="#d99127" fill-rule="evenodd"/>
        <path id="パス_13149" data-name="パス 13149" d="M-1903.21,606.7l-2.7.349,8.42,67.732a1.356,1.356,0,0,0,1.517,1.175l.154-.02a1.216,1.216,0,0,0,1.047-1.351Z" transform="translate(2074.61 -459.829)" fill="#b2d2ff" fill-rule="evenodd"/>
        <path id="パス_13150" data-name="パス 13150" d="M-1563,606.087h-2.72v68.275a1.364,1.364,0,0,0,1.36,1.36h.155a1.209,1.209,0,0,0,1.205-1.2Z" transform="translate(1685.812 -459.323)" fill="#b2d2ff" fill-rule="evenodd"/>
        <path id="パス_13151" data-name="パス 13151" d="M-1323.738,606.087h-2.72v68.275a1.364,1.364,0,0,0,1.36,1.36h.155a1.209,1.209,0,0,0,1.205-1.2Z" transform="translate(1406.434 -459.323)" fill="#b2d2ff" fill-rule="evenodd"/>
        <path id="パス_13152" data-name="パス 13152" d="M-1720.75,606.7l-2.7.349,8.42,67.732a1.356,1.356,0,0,0,1.517,1.175l.154-.02a1.216,1.216,0,0,0,1.047-1.351Z" transform="translate(1861.558 -459.829)" fill="#b2d2ff" fill-rule="evenodd"/>
        <path id="パス_13153" data-name="パス 13153" d="M-1544.9,556.409h-46.625a5.093,5.093,0,0,0-5.078,5.078,5.093,5.093,0,0,0,5.078,5.078h46.625a5.093,5.093,0,0,0,5.078-5.078,5.093,5.093,0,0,0-5.078-5.078" transform="translate(1667.812 -417.974)" fill="#b2d2ff" fill-rule="evenodd"/>
        <path id="パス_13154" data-name="パス 13154" d="M-1927.654,85.631h47.489l-11.944,79.121-47.489.044h0a3.526,3.526,0,0,1-.556-.043h0c-1.956,0-3.262-2.135-2.957-4.067l11.39-72.1c.305-1.932,2.111-2.957,4.067-2.957Z" transform="translate(2066.259 -26.128)" fill="#b2d2ff" fill-rule="evenodd"/>
        <path id="パス_13155" data-name="パス 13155" d="M-1894.544,88.588l-12.067,75.976H-1959.3a5.093,5.093,0,0,0-5.078,5.078,5.093,5.093,0,0,0,5.078,5.078h53.087c5.067,0,5.945-4.746,6.4-7.62l12.293-77.4c.307-1.931-1-4.067-2.957-4.067h0c-1.956,0-3.76,1.026-4.067,2.957" transform="translate(2077.128 -26.128)" fill="#9cc1f4" fill-rule="evenodd"/>
        <path id="パス_13156" data-name="パス 13156" d="M-1202.929,917.529l.059-9.886,8.531.247-.179,10.119Z" transform="translate(1256.324 -710.319)" fill="#f4af8f" fill-rule="evenodd"/>
        <path id="パス_13157" data-name="パス 13157" d="M-1521.233,376.861l-18.992-3.6s-44.045,4.815-52.2,19.184-4.938,72.337-4.938,72.337l11.84.155c-.768-4.774,12.274-60.161,12.316-60.171l49.64-17.667Z" transform="translate(1649.454 -265.532)" fill="#0072a6" fill-rule="evenodd"/>
        <path id="パス_13158" data-name="パス 13158" d="M-1546.015,394.74l-6.673,2.994c-5.487.1-29.252,3.813-33.236,4.671-13.5,2.908-11.841,9.766-12.062,20.239l9.807-1.331,39.833-16.336Z" transform="translate(1674.237 -283.411)" fill="#006a9a" fill-rule="evenodd"/>
        <path id="パス_13159" data-name="パス 13159" d="M-1459.877,914.1l-.813-8.6,8.627.207-.083,9.845Z" transform="translate(1557.265 -708.54)" fill="#f4af8f" fill-rule="evenodd"/>
        <path id="パス_13160" data-name="パス 13160" d="M-1485.393,948.1c-2.438,4.381-6.411,8.57-3.309,12.291h15.793c.026-.071.052-.149.076-.231a2.565,2.565,0,0,0,.4-2.588c-.915-3.464-3.605-8.789-4.53-9.063-1.833-.543-4.435.987-8.427-.409" transform="translate(1582.357 -743.996)" fill="#031542" fill-rule="evenodd"/>
        <path id="パス_13161" data-name="パス 13161" d="M-1490.676,1004.132v.007a2.89,2.89,0,0,0,1.178,2.891h15.793c.815-.473,1.029-.8.473-2.819Z" transform="translate(1583.154 -790.63)" fill="#0f4884" fill-rule="evenodd"/>
        <path id="パス_13162" data-name="パス 13162" d="M-1449.837,945.55h-3.657a.917.917,0,0,0-.914.914v4.7a.917.917,0,0,0,.914.914h3.657a.917.917,0,0,0,.914-.914v-4.7a.917.917,0,0,0-.914-.914" transform="translate(1553.072 -741.87)" fill="#0f4884" fill-rule="evenodd"/>
        <path id="パス_13163" data-name="パス 13163" d="M-1667.966,382.319s5.52,22.276-4.506,27.077-41.308,5.309-41.308,5.309c6.307,23.676,1.7,38.665,1.942,58.833l-10.448.054s-10.531-37.656-13.625-59.006c-1.561-10.771-1.888-19.336,11.756-22.275,4.589-.989,34.454-7.908,34.454-7.908Z" transform="translate(1817.921 -273.072)" fill="#0072a6" fill-rule="evenodd"/>
        <path id="パス_13164" data-name="パス 13164" d="M-1685.369-58.433c7.479,17.161-2.5,35.111,4.921,70.554-12.859,4.1-50.861,4.226-52.5-1.646-.792-22.416.5-43.9,1.406-66.308,12.592-8.726,32.716-11.375,46.172-2.6" transform="translate(1831.339 98.283)" fill="#ffa726" fill-rule="evenodd"/>
        <path id="パス_13165" data-name="パス 13165" d="M-1723.351,115.02l27.73-9.279.185-11.279,3.076-4.125s6.272,9.594,6.3,10.244-2.771,10.4-2.519,10.413-16.552,5.6-17.934,5.923-16.836-1.9-16.836-1.9" transform="translate(1835.302 -30.045)" fill="#d99127" fill-rule="evenodd"/>
        <path id="パス_13166" data-name="パス 13166" d="M-1738.307-40.346c11.085,3.824,15.685,38.029,13.2,46.607-.427,6.165-25.617,5.365-43.554,7.728-2.462-1.812-4.471-4.2-2.172-7.545,11.016-4.051,30.418-7.665,30.385-8.253-1.53-11.749-3.855-27.879-3.012-35.687.1-.925,4.155-3.193,5.15-2.85" transform="translate(1881.819 78.756)" fill="#ffa726" fill-rule="evenodd"/>
        <rect id="長方形_2058" data-name="長方形 2058" width="7.191" height="116.487" transform="translate(20.242 99.913)" fill="#7babea"/>
        <path id="パス_13167" data-name="パス 13167" d="M-1570.629,273.927H-1451v9.616h-119.633a4.822,4.822,0,0,1-4.808-4.808h0a4.822,4.822,0,0,1,4.808-4.808" transform="translate(1575.437 -182.854)" fill="#9cc1f4" fill-rule="evenodd"/>
        <path id="パス_13168" data-name="パス 13168" d="M-1978.207,273.926h68.3a4.822,4.822,0,0,1,4.808,4.808,4.822,4.822,0,0,1-4.808,4.808h-30.469v115.71h-7.545V283.542h-30.288a4.822,4.822,0,0,1-4.808-4.808,4.822,4.822,0,0,1,4.808-4.808" transform="translate(2097.874 -182.853)" fill="#7babea" fill-rule="evenodd"/>
        <path id="パス_13169" data-name="パス 13169" d="M-1202.735,946.533s-11.375,4.672-15.167,6.53c-2.945,1.443-4.613,4.478-2.194,6.025h29.462c.026-.071.052-.147.076-.23.437-1.456,1.583-11.857-1.482-11.626-1.9.144-6.439,1.494-10.7-.7" transform="translate(1255.04 -742.688)" fill="#031542" fill-rule="evenodd"/>
        <path id="パス_13170" data-name="パス 13170" d="M-1221.039,1004.169v.007l.026,1.174c.045.923.37,1.211,1.154,1.71h29.6c.026-.071.052-.148.077-.23.086-.284.295-1.763.4-2.583Z" transform="translate(1254.809 -790.661)" fill="#0f4884" fill-rule="evenodd"/>
        <path id="パス_13171" data-name="パス 13171" d="M-1126.1,949.7c-4.1,1.7-10.965,4.588-13.785,5.936a4.039,4.039,0,0,0,2.882.911s8-2.5,10.275-4.11a1.843,1.843,0,0,0,.629-2.738" transform="translate(1177.148 -745.324)" fill="#0f4884" fill-rule="evenodd"/>
        <path id="パス_13172" data-name="パス 13172" d="M-1470.328,261.391h44.649v1.051a1.054,1.054,0,0,1-1.051,1.051h-42.547a1.054,1.054,0,0,1-1.051-1.051Z" transform="translate(1532.496 -172.419)" fill="#3d7dda" fill-rule="evenodd"/>
        <path id="パス_13173" data-name="パス 13173" d="M-1347.429,95.561h35.159a2.75,2.75,0,0,1,2.521,2.551l4.829,25.8h-39.851l-4.829-26.153a2.071,2.071,0,0,1,2.171-2.2" transform="translate(1391.5 -34.393)" fill="#3d7dda" fill-rule="evenodd"/>
        <g id="グループ_2034" data-name="グループ 2034" transform="translate(40.669 61.168)">
          <g id="グループ_2033" data-name="グループ 2033" clip-path="url(#clip-path-2)">
            <rect id="長方形_2059" data-name="長方形 2059" width="45.069" height="29.905" transform="translate(-0.194 0)" fill="#5c6bc0"/>
          </g>
        </g>
        <path id="パス_13175" data-name="パス 13175" d="M-1210.193,175.449a1.715,1.715,0,0,1,1.945,1.422,1.715,1.715,0,0,1-1.091,2.148,1.715,1.715,0,0,1-1.945-1.422,1.715,1.715,0,0,1,1.091-2.148" transform="translate(1271.584 -100.856)" fill="#f4fafd" fill-rule="evenodd"/>
        <path id="パス_13176" data-name="パス 13176" d="M-1586.466-210.372c2.245,2.679,4.413,4.51,7.068,5.09l1.13,4.712c-.8,3.334-.047,6.118,4.229,5.865,11.4-2.106,8.169-9.623,7.984-9.967l-2.64-6.3c.37-.11,3.121-2.491,3.873-2.931a4.319,4.319,0,0,0,1.262-3.95c-.31-1.667-2.73-.532-2.73-.532,2.088-4.951,4.767-9.224-.66-11.956s-16.358-2.493-16.358-2.493c-1.6,9.82-6.122-.611-5.525,4.073a43.764,43.764,0,0,1,.148,9.551c-.488,4.379-.795,5.244,2.219,8.841" transform="translate(1690.206 238.949)" fill="#f4b1b1" fill-rule="evenodd"/>
        <path id="パス_13179" data-name="パス 13179" d="M-1535.595-94.226c-.484,4.085-2.233,7.956-6.557,8.924l-1.313-2.593-.482-2.011c2.081-.151,4.006-.773,8.352-4.319" transform="translate(1654.756 123.574)" fill="#e06b6c" fill-rule="evenodd"/>
        <path id="パス_13180" data-name="パス 13180" d="M-1529.9,246.624c.64-1.893,1.846-4.623,4.939-5.459,2.194-.594,6.5.137,15.224.561,1.073,2.365,1.091,3.6.8,4.706Z" transform="translate(1625.579 -155.399)" fill="#f6c0c5" fill-rule="evenodd"/>
        <path id="パス_13181" data-name="パス 13181" d="M-1588.64-254.068c2.017,1.084,2.8,3.481,2.668,7.7-.038,1.244-.338,2.268,1.135.728.677-.707,1.828-1.775,2.44-1.582,1.362.43,1.529,2.393.926,3.282-.27.4-.82,1.047-.82,1.047a13.222,13.222,0,0,0,5.284-15.717,4.645,4.645,0,0,0-2.769-2.867c-5.287-15.225-28.813-5.371-27.2,6,.85,5.973,6.574,4.537,11.589,2.9,2.735-.892,5-2.436,6.742-1.5" transform="translate(1705.913 269.264)" fill="#393939" fill-rule="evenodd"/>
      </g>
    </g>
  </g>
</svg>
