<svg xmlns="http://www.w3.org/2000/svg" xmlns:xlink="http://www.w3.org/1999/xlink" width="400" height="317" viewBox="0 0 400 317">
  <defs>
    <clipPath id="clip-path">
      <rect id="長方形_2078" data-name="長方形 2078" width="400" height="317" transform="translate(786 1093)" fill="#fff" stroke="#707070" stroke-width="1"/>
    </clipPath>
  </defs>
  <g id="マスクグループ_1" data-name="マスクグループ 1" transform="translate(-786 -1093)" clip-path="url(#clip-path)">
    <g id="グループ_2042" data-name="グループ 2042" transform="translate(0 -16.25)">
      <g id="グループ_2043" data-name="グループ 2043" transform="translate(1131.642 1324.56)">
        <g id="グループ_2042-2" data-name="グループ 2042" transform="translate(0 0)">
          <path id="パス_13231" data-name="パス 13231" d="M-1073.231,921.875h0c-.639-1.549.6-3.111,1.966-2.475h0a2.686,2.686,0,0,0,3.741-1.885l.269-.906a3.841,3.841,0,0,0-1.852-4.49h0a2.028,2.028,0,0,1-.2-3.484h0a3.53,3.53,0,0,0,1.336-4.508l-.372-.9a2.945,2.945,0,0,0-3.955-1.842h0c-1.29.65-2.709-.9-2.249-2.452h0a3.84,3.84,0,0,0-1.852-4.49l-.8-.37a2.686,2.686,0,0,0-3.741,1.885h0a1.535,1.535,0,0,1-2.98.017h0a2.945,2.945,0,0,0-3.955-1.842l-.752.379a3.531,3.531,0,0,0-1.336,4.508c.639,1.549-.6,3.111-1.966,2.475h0a2.687,2.687,0,0,0-3.741,1.885l-.269.906a3.84,3.84,0,0,0,1.852,4.49h0a2.028,2.028,0,0,1,.2,3.484h0a3.531,3.531,0,0,0-1.336,4.508l.372.9a2.945,2.945,0,0,0,3.955,1.842c1.291-.65,2.71.9,2.249,2.452a3.84,3.84,0,0,0,1.852,4.49l.8.37a2.686,2.686,0,0,0,3.741-1.885h0a1.535,1.535,0,0,1,2.98-.016h0a2.945,2.945,0,0,0,3.955,1.842l.752-.379A3.531,3.531,0,0,0-1073.231,921.875Zm-14.93-8.123c-1.8-4.352-.311-9.361,3.315-11.188s8.021.22,9.816,4.572.311,9.361-3.315,11.187S-1086.365,918.1-1088.161,913.752Z" transform="translate(1096.091 -893.812)" fill="#fff"/>
        </g>
      </g>
      <g id="グループ_2048" data-name="グループ 2048" transform="translate(854.223 1145.633)">
        <path id="パス_13232" data-name="パス 13232" d="M-1622.171,759.036l-149.7-86.43a7.574,7.574,0,0,0-6.788.281l-87.648,50.512c-2,1.155-2.22,2.919-.487,3.919l133.117,76.855.419,14.592,20.328-4.43v0a7.428,7.428,0,0,0,2.624-.866l87.648-50.512C-1620.657,761.8-1620.438,760.036-1622.171,759.036Z" transform="translate(1891.033 -566.118)" fill="#ccc0b1"/>
        <path id="パス_13233" data-name="パス 13233" d="M-1180,927.568l-3.7,2.344-1.55-5.244h5.643Z" transform="translate(1433.285 -735.572)" fill="#c79e72"/>
        <path id="パス_13234" data-name="パス 13234" d="M-1564.5,355.364l3.683-2.338,6.363,5.962-7.917,1.235Z" transform="translate(1687.567 -352.3)" fill="#98bde3"/>
        <path id="パス_13235" data-name="パス 13235" d="M-1492.2,542.87l-147.2-84.985c-3.251-1.877-4.862-7.05-3.582-11.5l25.992-90.208c1.281-4.446,4.989-6.548,8.24-4.671l147.6,85.736c3.251,1.877,4.213,5.307,2.932,9.753l-25.742,91.2C-1485.242,542.645-1488.949,544.747-1492.2,542.87Z" transform="translate(1740.482 -350.822)" fill="#7e7c79"/>
        <path id="パス_13236" data-name="パス 13236" d="M-1503.723,550.173l-147.2-84.985c-3.251-1.877-4.862-7.05-3.582-11.5l25.992-90.208c1.281-4.446,4.989-6.548,8.24-4.671l148.592,85.951c3.251,1.877,3.909,4.387,2.628,8.833l-26.432,91.905C-1496.765,549.948-1500.473,552.05-1503.723,550.173Z" transform="translate(1748.208 -355.719)" fill="#5d5d5d"/>
        <path id="パス_13237" data-name="パス 13237" d="M-1498.387,556.132l-141.237-81.543c-3.119-1.8-4.666-6.764-3.437-11.03L-1618.121,377c1.229-4.266,4.787-6.282,7.906-4.482l142.574,82.47c3.119,1.8,3.751,4.209,2.521,8.475l-25.361,88.183C-1491.71,555.916-1495.268,557.932-1498.387,556.132Z" transform="translate(1740.524 -364.929)" fill="#8695e6"/>
        <path id="パス_13238" data-name="パス 13238" d="M-1690.976,794.745v-4.8l-21.609,12.585-1.231-2.838-143.858-83.057c-1.733-1-5.175-.874-7.177.281l-62.323,35.759v-1l-9.466,4.6-1.331-.538.18,4.368a2.026,2.026,0,0,0,1.1,1.685l149.705,86.659a7.553,7.553,0,0,0,6.79-.167l86.9-49.709A4.5,4.5,0,0,0-1690.976,794.745Z" transform="translate(1937.971 -595.638)" fill="#7e7c79"/>
        <path id="パス_13239" data-name="パス 13239" d="M-1383.772,882.216v-4.8L-1405.381,890l-1.232-2.838-70.566-40.741-2.6,89.5a6.535,6.535,0,0,0,3.295.725,7.4,7.4,0,0,0,3.5-.892l86.9-49.709A4.5,4.5,0,0,0-1383.772,882.216Z" transform="translate(1630.767 -683.11)" fill="#5d5d5d"/>
        <path id="パス_13240" data-name="パス 13240" d="M-1692.078,762.432-1841.78,676a7.573,7.573,0,0,0-6.788.281l-87.648,50.512c-2,1.155-2.22,2.919-.487,3.919l149.7,86.43a7.572,7.572,0,0,0,6.788-.281l87.648-50.512C-1690.565,765.2-1690.346,763.432-1692.078,762.432Z" transform="translate(1937.905 -568.395)" fill="#f4efea"/>
        <g id="グループ_2047" data-name="グループ 2047" transform="translate(44.601 122.47)">
          <g id="グループ_2046" data-name="グループ 2046">
            <g id="グループ_2045" data-name="グループ 2045">
              <g id="グループ_2044" data-name="グループ 2044">
                <path id="パス_13241" data-name="パス 13241" d="M-1688.384,731.958a1.146,1.146,0,0,1-.989-.115l-9.088-5.245c-.328-.189-.418-.445-.2-.571l6.02-3.478a1.143,1.143,0,0,1,.989.115l9.089,5.245c.327.189.417.445.2.571Z" transform="translate(1732.998 -722.481)" fill="#7e7c79"/>
                <path id="パス_13242" data-name="パス 13242" d="M-1656.388,779.484a1.139,1.139,0,0,1-.991-.114l-9.088-5.244c-.327-.189-.415-.443-.195-.57l6.023-3.479a1.142,1.142,0,0,1,.983.115l9.087,5.244c.332.192.417.446.2.57Z" transform="translate(1711.545 -754.347)" fill="#7e7c79"/>
                <path id="パス_13243" data-name="パス 13243" d="M-1672.561,799.213a1.141,1.141,0,0,1-.986-.116l-9.089-5.246c-.323-.186-.42-.443-.2-.569l6.024-3.48a1.156,1.156,0,0,1,.984.117l9.09,5.246c.327.188.417.445.2.568Z" transform="translate(1722.389 -767.574)" fill="#7e7c79"/>
                <path id="パス_13244" data-name="パス 13244" d="M-1716.313,803.024a1.145,1.145,0,0,1-.984-.114l-9.089-5.245c-.324-.187-.414-.445-.2-.569l6.022-3.479a1.151,1.151,0,0,1,.987.113l9.089,5.245c.325.188.412.444.2.569Z" transform="translate(1751.72 -770.13)" fill="#7e7c79"/>
                <path id="パス_13245" data-name="パス 13245" d="M-1792.227,790.717a1.143,1.143,0,0,1-.987-.116l-9.089-5.245c-.328-.189-.418-.445-.2-.57l7.071-4.085a1.155,1.155,0,0,1,.988.116l9.089,5.245c.327.189.413.447.2.57Z" transform="translate(1802.622 -761.472)" fill="#7e7c79"/>
                <path id="パス_13246" data-name="パス 13246" d="M-1751.108,814.443a1.471,1.471,0,0,1-1.174-.223l-11.907-6.872c-.427-.246-.6-.551-.384-.676l7.071-4.084a1.487,1.487,0,0,1,1.171.221l11.907,6.871c.432.249.6.555.387.678Z" transform="translate(1777.174 -776.155)" fill="#7e7c79"/>
                <path id="パス_13247" data-name="パス 13247" d="M-1507.209,960.629a1.123,1.123,0,0,1-.922-.154l-9.082-5.241c-.332-.191-.454-.431-.273-.536l2.614-1.51a1.141,1.141,0,0,1,.928.158l9.082,5.241c.327.189.446.428.267.532Z" transform="translate(1611.501 -877.133)" fill="#7e7c79"/>
                <path id="パス_13248" data-name="パス 13248" d="M-1470.358,982.447a1.122,1.122,0,0,1-.921-.154l-9.082-5.241c-.332-.191-.454-.431-.273-.536l2.614-1.51a1.14,1.14,0,0,1,.928.157l9.082,5.241c.327.189.446.428.266.532Z" transform="translate(1586.793 -891.761)" fill="#7e7c79"/>
                <path id="パス_13249" data-name="パス 13249" d="M-1431.281,1004.6a1.125,1.125,0,0,1-.911-.161l-9.085-5.243c-.326-.188-.457-.427-.283-.527l2.518-1.455a1.139,1.139,0,0,1,.913.163l9.085,5.243c.327.189.452.426.28.526Z" transform="translate(1560.59 -906.653)" fill="#7e7c79"/>
                <path id="パス_13250" data-name="パス 13250" d="M-1455.309,974.153a1.125,1.125,0,0,1-.911-.161l-9.085-5.243c-.326-.188-.457-.427-.282-.527l2.518-1.455a1.141,1.141,0,0,1,.913.163l9.085,5.243c.327.189.452.426.28.526Z" transform="translate(1576.7 -886.239)" fill="#7e7c79"/>
                <path id="パス_13251" data-name="パス 13251" d="M-1656.8,868.851a1.154,1.154,0,0,1-.992-.118l-59.142-34.13c-.323-.186-.419-.445-.2-.571l7.071-4.085a1.166,1.166,0,0,1,.988.116l59.142,34.13c.328.19.418.45.206.573Z" transform="translate(1745.385 -794.49)" fill="#7e7c79"/>
                <path id="パス_13252" data-name="パス 13252" d="M-1742.873,822.987c-.014.008-.056,0-.095-.026l-6.947-4.01c-.038-.022-.059-.047-.045-.054l.439-.254a.142.142,0,0,1,.095.026l6.947,4.009c.039.022.059.047.046.055Z" transform="translate(1767.316 -786.954)" fill="#7e7c79"/>
                <path id="パス_13253" data-name="パス 13253" d="M-1788.64,794.248a.061.061,0,0,1-.054,0l-2.949-1.7c-.016-.009-.019-.023-.005-.031l.439-.254a.062.062,0,0,1,.054,0l2.95,1.7c.016.01.018.024.005.031Z" transform="translate(1795.271 -769.261)" fill="#7e7c79"/>
                <path id="パス_13254" data-name="パス 13254" d="M-1678.514,824.82a1.148,1.148,0,0,1-.988-.116l-9.088-5.244c-.323-.186-.417-.446-.2-.571l6.022-3.479a1.163,1.163,0,0,1,.99.116l9.088,5.244c.329.19.416.447.2.572Z" transform="translate(1726.379 -784.742)" fill="#7e7c79"/>
                <path id="パス_13255" data-name="パス 13255" d="M-1640.534,846.737a1.149,1.149,0,0,1-.984-.114l-9.087-5.244c-.326-.188-.418-.447-.2-.571l6.022-3.479a1.157,1.157,0,0,1,.991.116l9.087,5.244c.322.186.412.444.2.569Z" transform="translate(1700.913 -799.438)" fill="#7e7c79"/>
                <path id="パス_13256" data-name="パス 13256" d="M-1602.554,868.655a1.146,1.146,0,0,1-.984-.114l-9.089-5.245c-.325-.187-.413-.444-.2-.568l6.022-3.479a1.146,1.146,0,0,1,.986.113l9.089,5.245c.325.187.412.445.2.569Z" transform="translate(1675.447 -814.134)" fill="#7e7c79"/>
                <path id="パス_13257" data-name="パス 13257" d="M-1564.585,890.566a1.144,1.144,0,0,1-.985-.114l-9.089-5.245c-.328-.19-.417-.446-.2-.571l6.022-3.479a1.151,1.151,0,0,1,.99.115l9.089,5.245c.327.188.413.445.2.569Z" transform="translate(1649.992 -828.824)" fill="#7e7c79"/>
                <path id="パス_13258" data-name="パス 13258" d="M-1526.6,912.485a1.158,1.158,0,0,1-.992-.119l-9.086-5.243c-.324-.187-.413-.444-.2-.568l6.022-3.479a1.146,1.146,0,0,1,.986.113l9.085,5.243c.329.19.42.449.2.574Z" transform="translate(1624.526 -843.52)" fill="#7e7c79"/>
                <path id="パス_13259" data-name="パス 13259" d="M-1488.621,934.385a1.15,1.15,0,0,1-.987-.116l-9.086-5.243c-.327-.189-.417-.447-.2-.571l6.022-3.479a1.153,1.153,0,0,1,.99.116l9.086,5.243c.326.188.415.446.2.571Z" transform="translate(1599.059 -858.204)" fill="#7e7c79"/>
                <path id="パス_13260" data-name="パス 13260" d="M-1434.972,965.346a1.149,1.149,0,0,1-.987-.116l-24.76-14.289c-.328-.189-.416-.446-.2-.57l6.022-3.479a1.151,1.151,0,0,1,.989.115l24.761,14.289c.327.189.415.446.2.571Z" transform="translate(1573.598 -872.898)" fill="#7e7c79"/>
                <path id="パス_13261" data-name="パス 13261" d="M-1634.76,821.01a1.126,1.126,0,0,1-.982-.114l-9.089-5.245c-.327-.188-.418-.442-.2-.568l6.024-3.48a1.145,1.145,0,0,1,.983.116l9.09,5.245c.329.19.412.443.2.566Z" transform="translate(1697.041 -782.19)" fill="#7e7c79"/>
                <path id="パス_13262" data-name="パス 13262" d="M-1596.779,842.928a1.14,1.14,0,0,1-.984-.115l-9.093-5.247c-.323-.187-.415-.441-.2-.566l6.024-3.48a1.144,1.144,0,0,1,.98.114l9.093,5.247c.324.187.414.444.2.567Z" transform="translate(1671.577 -796.885)" fill="#7e7c79"/>
                <path id="パス_13263" data-name="パス 13263" d="M-1558.805,864.842a1.144,1.144,0,0,1-.986-.116l-9.088-5.244c-.322-.186-.422-.444-.2-.57l6.024-3.48a1.163,1.163,0,0,1,.987.118l9.088,5.244c.325.188.416.446.2.569Z" transform="translate(1646.118 -811.577)" fill="#7e7c79"/>
                <path id="パス_13264" data-name="パス 13264" d="M-1520.829,886.758a1.137,1.137,0,0,1-.985-.115l-9.086-5.244c-.327-.189-.42-.443-.2-.569l6.024-3.48a1.148,1.148,0,0,1,.985.117l9.086,5.243c.326.188.415.445.2.568Z" transform="translate(1620.654 -826.272)" fill="#7e7c79"/>
                <path id="パス_13265" data-name="パス 13265" d="M-1482.843,908.66a1.139,1.139,0,0,1-.985-.115l-9.092-5.247c-.328-.189-.417-.442-.2-.568l6.024-3.48a1.142,1.142,0,0,1,.982.115l9.092,5.247c.325.188.415.445.2.568Z" transform="translate(1595.187 -840.956)" fill="#7e7c79"/>
                <path id="パス_13266" data-name="パス 13266" d="M-1444.872,930.573a1.135,1.135,0,0,1-.983-.115l-9.085-5.243c-.33-.19-.423-.445-.2-.571l6.024-3.48a1.15,1.15,0,0,1,.987.119l9.085,5.243c.326.188.414.444.2.567Z" transform="translate(1569.726 -855.649)" fill="#7e7c79"/>
                <path id="パス_13267" data-name="パス 13267" d="M-1406.894,952.49a1.138,1.138,0,0,1-.983-.115l-9.092-5.247c-.324-.187-.414-.44-.2-.566l6.024-3.48a1.137,1.137,0,0,1,.979.114l9.092,5.247c.324.187.413.444.2.567Z" transform="translate(1544.263 -870.344)" fill="#7e7c79"/>
                <path id="パス_13268" data-name="パス 13268" d="M-1618.58,801.285a1.142,1.142,0,0,1-.99-.114l-9.089-5.245c-.323-.187-.412-.442-.193-.569l6.023-3.479a1.143,1.143,0,0,1,.98.114l9.088,5.245c.328.19.416.445.2.569Z" transform="translate(1686.194 -768.965)" fill="#7e7c79"/>
                <path id="パス_13269" data-name="パス 13269" d="M-1580.613,823.2a1.142,1.142,0,0,1-.987-.112l-9.088-5.245c-.327-.188-.417-.445-.2-.572l6.023-3.479a1.149,1.149,0,0,1,.985.117l9.088,5.245c.323.187.413.443.2.567Z" transform="translate(1660.739 -783.655)" fill="#7e7c79"/>
                <path id="パス_13270" data-name="パス 13270" d="M-1542.633,845.112a1.143,1.143,0,0,1-.991-.115l-9.087-5.244c-.324-.187-.414-.443-.194-.569l6.023-3.479a1.144,1.144,0,0,1,.982.115l9.087,5.244c.33.19.418.446.2.569Z" transform="translate(1635.274 -798.35)" fill="#7e7c79"/>
                <path id="パス_13271" data-name="パス 13271" d="M-1504.666,867.023a1.134,1.134,0,0,1-.987-.112l-9.089-5.245c-.328-.189-.418-.445-.2-.572l6.023-3.479a1.148,1.148,0,0,1,.985.117l9.089,5.245c.328.189.413.443.2.567Z" transform="translate(1609.818 -813.04)" fill="#7e7c79"/>
                <path id="パス_13272" data-name="パス 13272" d="M-1466.674,888.93a1.139,1.139,0,0,1-.984-.11l-9.089-5.245c-.329-.189-.416-.444-.2-.571l6.023-3.479a1.142,1.142,0,0,1,.983.116l9.089,5.245c.322.186.411.442.2.566Z" transform="translate(1584.343 -827.729)" fill="#7e7c79"/>
                <path id="パス_13273" data-name="パス 13273" d="M-1428.7,910.845a1.146,1.146,0,0,1-.993-.115l-9.088-5.244c-.322-.186-.415-.443-.195-.57l6.023-3.479a1.151,1.151,0,0,1,.982.115l9.088,5.244c.33.19.419.447.205.57Z" transform="translate(1558.884 -842.421)" fill="#7e7c79"/>
                <path id="パス_13274" data-name="パス 13274" d="M-1390.724,932.758a1.141,1.141,0,0,1-.988-.112l-9.089-5.245c-.327-.189-.416-.444-.2-.571l6.022-3.479a1.142,1.142,0,0,1,.984.116l9.089,5.245c.324.187.414.444.2.567Z" transform="translate(1533.423 -857.114)" fill="#7e7c79"/>
                <path id="パス_13275" data-name="パス 13275" d="M-1707.229,750.145a1.144,1.144,0,0,1-.991-.114l-15.41-8.892c-.328-.189-.418-.445-.2-.572l6.023-3.479a1.148,1.148,0,0,1,.986.117l15.41,8.893c.328.189.417.446.2.569Z" transform="translate(1749.873 -732.228)" fill="#7e7c79"/>
                <path id="パス_13276" data-name="パス 13276" d="M-1340.445,932.712a1.145,1.145,0,0,1-.988-.115l-15.41-8.893c-.322-.186-.416-.444-.2-.57l6.021-3.478a1.15,1.15,0,0,1,.987.114l15.41,8.893c.327.189.417.445.2.571Z" transform="translate(1503.95 -854.637)" fill="#7e7c79"/>
                <path id="パス_13277" data-name="パス 13277" d="M-1729.435,766.393a1.134,1.134,0,0,1-.986-.116l-18.371-10.6c-.328-.189-.421-.443-.2-.57l6.024-3.48a1.148,1.148,0,0,1,.985.117l18.371,10.6c.331.191.417.445.2.568Z" transform="translate(1766.745 -741.977)" fill="#7e7c79"/>
                <path id="パス_13278" data-name="パス 13278" d="M-1760.72,777.4a1.148,1.148,0,0,1-.988-.116l-12.249-7.069c-.328-.189-.417-.446-.2-.57l6.022-3.479a1.149,1.149,0,0,1,.99.115l12.249,7.069c.327.189.415.447.2.571Z" transform="translate(1783.617 -751.723)" fill="#7e7c79"/>
                <path id="パス_13279" data-name="パス 13279" d="M-1650.407,753.875a1.143,1.143,0,0,1-.991-.116l-9.082-5.241c-.327-.189-.418-.446-.2-.571l6.02-3.478a1.147,1.147,0,0,1,.989.115l9.082,5.241c.331.191.42.446.2.572Z" transform="translate(1707.532 -737.177)" fill="#7e7c79"/>
                <path id="パス_13280" data-name="パス 13280" d="M-1612.607,775.67a1.148,1.148,0,0,1-.99-.116l-9.089-5.245c-.325-.188-.417-.445-.2-.571l6.021-3.478a1.147,1.147,0,0,1,.988.115l9.088,5.245c.328.189.419.445.2.571Z" transform="translate(1682.192 -751.789)" fill="#7e7c79"/>
                <path id="パス_13281" data-name="パス 13281" d="M-1574.634,797.583a1.134,1.134,0,0,1-.985-.113l-9.088-5.245c-.325-.188-.415-.444-.2-.569l6.021-3.478a1.14,1.14,0,0,1,.986.114l9.089,5.245c.329.19.414.443.2.569Z" transform="translate(1656.727 -766.483)" fill="#7e7c79"/>
                <path id="パス_13282" data-name="パス 13282" d="M-1536.649,819.5a1.148,1.148,0,0,1-.989-.115l-9.083-5.242c-.329-.19-.418-.446-.2-.571l6.021-3.478a1.145,1.145,0,0,1,.99.116l9.083,5.242c.327.189.419.445.2.571Z" transform="translate(1631.261 -781.18)" fill="#7e7c79"/>
                <path id="パス_13283" data-name="パス 13283" d="M-1498.684,841.414a1.132,1.132,0,0,1-.984-.113l-9.086-5.243c-.33-.19-.418-.446-.2-.571l6.02-3.478a1.144,1.144,0,0,1,.99.116l9.086,5.244c.329.19.413.442.2.568Z" transform="translate(1605.805 -795.87)" fill="#7e7c79"/>
                <path id="パス_13284" data-name="パス 13284" d="M-1460.69,863.321a1.146,1.146,0,0,1-.986-.113l-9.092-5.247c-.324-.187-.412-.443-.2-.568l6.021-3.478a1.138,1.138,0,0,1,.984.113l9.092,5.247c.323.187.415.443.2.569Z" transform="translate(1580.332 -810.558)" fill="#7e7c79"/>
                <path id="パス_13285" data-name="パス 13285" d="M-1422.723,885.231a1.145,1.145,0,0,1-.988-.115l-9.088-5.244c-.329-.19-.419-.447-.2-.573l6.02-3.478a1.149,1.149,0,0,1,.991.117l9.088,5.244c.328.189.418.445.2.57Z" transform="translate(1554.879 -825.246)" fill="#7e7c79"/>
                <path id="パス_13286" data-name="パス 13286" d="M-1384.747,907.147a1.137,1.137,0,0,1-.983-.112l-9.095-5.248c-.323-.186-.411-.442-.194-.567l6.021-3.478a1.136,1.136,0,0,1,.983.112l9.095,5.248c.324.187.412.441.194.568Z" transform="translate(1529.413 -839.942)" fill="#7e7c79"/>
                <path id="パス_13287" data-name="パス 13287" d="M-1366.858,945.379a1.391,1.391,0,0,0-.533-.174.736.736,0,0,0-.447.061l-6.023,3.479a.207.207,0,0,0-.109.261.667.667,0,0,0,.3.308l2.373,1.369-7.9,4.563a.2.2,0,0,0-.1.262.652.652,0,0,0,.3.307l6.123,3.533a1.418,1.418,0,0,0,.535.177.745.745,0,0,0,.454-.059l14.317-8.271a.2.2,0,0,0,.1-.261.645.645,0,0,0-.306-.31Z" transform="translate(1518.802 -871.806)" fill="#7e7c79"/>
                <path id="パス_13288" data-name="パス 13288" d="M-1752.51,782.644c-.013.008-.056,0-.095-.026l-6.947-4.009c-.038-.022-.059-.047-.045-.055l.439-.254a.142.142,0,0,1,.095.026l6.947,4.009c.039.022.059.047.046.055Z" transform="translate(1773.778 -759.905)" fill="#7e7c79"/>
              </g>
            </g>
          </g>
        </g>
        <path id="パス_13289" data-name="パス 13289" d="M-1704.608,909.447l-35.152-20.294c-1.894-1.094-1.771-2.82.274-3.836l11.748-5.837a8.493,8.493,0,0,1,7.162.141l35.151,20.295c1.894,1.094,1.771,2.82-.274,3.836l-11.747,5.837A8.492,8.492,0,0,1-1704.608,909.447Z" transform="translate(1805.976 -704.791)" fill="#7e7c79"/>
      </g>
      <g id="グループ_2049" data-name="グループ 2049" transform="translate(900.935 1327.502)">
        <path id="パス_13290" data-name="パス 13290" d="M-1593.645,915.644l-10.159,1.929-13.311,4.477-14.682,8.28-8.454,5.5a36.138,36.138,0,0,0-10.737,9.149c-1.963,2.427-7.341,12.385-8.408,14.41l13.337,21.507s3.948-.478,11.021-3.678a173.571,173.571,0,0,0,18.127-10.168,19.4,19.4,0,0,1,9.682-2.464,66.338,66.338,0,0,0,8.611-.808l12.336-2.134s5.48-.97,5.264-4.651-9.307-2-9.307-2L-1604,956.144l-6.168-1.072-7.652-13.066.965-10.264,7.876-4.617s7.522-3.564,8.028-3.534,8.2-2.266,8.873-4.656C-1591.454,916.724-1592.573,915.44-1593.645,915.644Z" transform="translate(1704.48 -911.377)" fill="#eb966c" fill-rule="evenodd"/>
        <path id="パス_13291" data-name="パス 13291" d="M-1506.077,941.282l-9.632-.994-12.088,1.318-17.132,7.7,2.7,11.755,16.558-8.845,9.888-3.144s11.216-1.124,11.217-4.334S-1506.077,941.282-1506.077,941.282Z" transform="translate(1627.733 -927.914)" fill="#eb966c"/>
        <path id="パス_13292" data-name="パス 13292" d="M-1495.838,970.912l-11.26,1.231-12.207,3.771L-1535.88,980l6.828,11.125,14.523-6.2,10.459-4.428s11.167-3.324,10.507-6.591S-1495.838,970.912-1495.838,970.912Z" transform="translate(1621.666 -948.443)" fill="#eb966c"/>
        <path id="パス_13293" data-name="パス 13293" d="M-1626.6,931.4l-.528-13.761s9.017-12.474,1.555-14.9a37.874,37.874,0,0,0-4.59,4.519c-1.668,2.147-3.627,3.926-4.44,7.184s-8.507,27.039-8.507,27.039l13.55-2.382Z" transform="translate(1693.559 -902.738)" fill="#eb966c"/>
        <path id="パス_13294" data-name="パス 13294" d="M-1741.229,1030.464l-54.984,30,46.53,8.688,17.76-13.878Z" transform="translate(1796.213 -988.375)" fill="#eb966c" fill-rule="evenodd"/>
      </g>
      <path id="パス_13301" data-name="パス 13301" d="M-1954.762,1122.357s61.266-37.168,63.425-37.516,16-3.718,26.13,3.543c4.621,3.314,11.091,15.664,11.771,18.428.269,1.093-1.79,7.176-4,9.066-3.375,2.892-8.526,6.478-8.526,6.478Z" transform="translate(2803.451 303.393)" fill="#ffa726"/>
      <path id="パス_13302" data-name="パス 13302" d="M-1492.4,426.873" transform="translate(2493.45 743.82)" fill="none" stroke="#2130a7" stroke-linecap="round" stroke-linejoin="round" stroke-width="2.098"/>
      <path id="パス_13303" data-name="パス 13303" d="M-1485.821,437.3" transform="translate(2489.037 736.83)" fill="none" stroke="#2130a7" stroke-linecap="round" stroke-linejoin="round" stroke-width="2.098"/>
      <g id="グループ_2050" data-name="グループ 2050" transform="translate(785.786 1307.382)">
        <path id="パス_13304" data-name="パス 13304" d="M-2053.76,867.354l-83.789,38.64V864.327l70.836-19.194s7.835-3.985,8.906-3.394c8.6,4.744,6.82,10.593,6.82,10.593Z" transform="translate(2140.219 -841.68)" fill="#eb966c"/>
        <path id="パス_13305" data-name="パス 13305" d="M-2097.724,854.7a8.707,8.707,0,0,1,9.857,6.2,48.238,48.238,0,0,1,2.22,10.295c.5,8.234,1.509,13.025,0,24.9-.767,6.034-60.006,25.6-60.006,25.6V864.022Z" transform="translate(2145.652 -850.311)" fill="#ffa726"/>
      </g>
      <g id="グループ_2051" data-name="グループ 2051" transform="translate(864.011 1266.785)">
        <path id="パス_13306" data-name="パス 13306" d="M-1719.046,763.576l-9.647-6.737-9.871,8.2s11.574,5.975,17.417,3.562l1.624-.671A2.5,2.5,0,0,0-1719.046,763.576Z" transform="translate(1794.484 -744.199)" fill="#eb966c"/>
        <path id="パス_13307" data-name="パス 13307" d="M-1823.214,726.838c-.279.372-2.012,6-13.137,6.732,0,0-9.433,3.438-10.824,3.511,0,0-9.45,6.075-11.761,6.35,0,0-7.277,8.825-7.527,9.558-1.169,3.425,1.822,7.451,1.822,7.451s1.655,1.263,6.531.1c2.863-.683,8.233-2.251,10.131-2.922,7.318-2.588,10.671-2.948,11.731-.419a3.117,3.117,0,0,1-.855,3.489c-2.5,2.25-8.183,7.124-11.563,8.128-4.427,1.316-15.922,5.916-15.922,5.916s-14.425,11.76-26.395,11.145l-11.97-.616-5.311-24.528L-1881.547,735s19.062-9.057,23.627-10.69,30.713-5.634,34.269-5.82,2.838,3.883.242,4.639A2.6,2.6,0,0,1-1823.214,726.838Z" transform="translate(1908.265 -718.482)" fill="#eb966c"/>
      </g>
      <path id="パス_13337" data-name="パス 13337" d="M24.248,0,12.314,40.748,0,82.79" transform="translate(997.562 1187.393)" fill="none" stroke="#8559da" stroke-linecap="round" stroke-width="3"/>
      <g id="グループ_2054" data-name="グループ 2054" transform="translate(978.261 1176.504)">
        <line id="線_326" data-name="線 326" x2="15.491" y2="9.078" transform="translate(15.197)" fill="none" stroke="#cfd6e6" stroke-linecap="round" stroke-linejoin="round" stroke-width="3"/>
        <line id="線_327" data-name="線 327" x2="15.491" y2="9.078" transform="translate(4.397 33.177)" fill="none" stroke="#cfd6e6" stroke-linecap="round" stroke-linejoin="round" stroke-width="3"/>
        <line id="線_328" data-name="線 328" x2="15.491" y2="9.078" transform="translate(2.339 41.434)" fill="none" stroke="#cfd6e6" stroke-linecap="round" stroke-linejoin="round" stroke-width="3"/>
        <line id="線_329" data-name="線 329" x2="15.491" y2="9.078" transform="translate(0 50.156)" fill="none" stroke="#cfd6e6" stroke-linecap="round" stroke-linejoin="round" stroke-width="3"/>
        <line id="線_330" data-name="線 330" x2="8.421" y2="4.935" transform="translate(18.498 12.079)" fill="none" stroke="#8559da" stroke-linecap="round" stroke-linejoin="round" stroke-width="3"/>
        <line id="線_331" data-name="線 331" x2="7.51" y2="4.401" transform="translate(16.426 21.01)" fill="none" stroke="#8559da" stroke-linecap="round" stroke-linejoin="round" stroke-width="3"/>
        <line id="線_332" data-name="線 332" x2="8.776" y2="5.143" transform="translate(13.04 29.172)" fill="none" stroke="#8559da" stroke-linecap="round" stroke-linejoin="round" stroke-width="3"/>
        <line id="線_333" data-name="線 333" x2="8.421" y2="4.935" transform="translate(4.942 61.609)" fill="none" stroke="#8559da" stroke-linecap="round" stroke-linejoin="round" stroke-width="3"/>
        <line id="線_334" data-name="線 334" x2="7.51" y2="4.401" transform="translate(2.584 70.373)" fill="none" stroke="#8559da" stroke-linecap="round" stroke-linejoin="round" stroke-width="3"/>
      </g>
      <g id="グループ_2055" data-name="グループ 2055" transform="translate(1013.66 1197.742)">
        <line id="線_335" data-name="線 335" x2="21.996" y2="12.816" transform="translate(15.347 0)" fill="none" stroke="#cfd6e6" stroke-linecap="round" stroke-linejoin="round" stroke-width="3"/>
        <line id="線_336" data-name="線 336" x2="54.501" y2="31.756" transform="translate(24.029 65.937)" fill="none" stroke="#cfd6e6" stroke-linecap="round" stroke-linejoin="round" stroke-width="3"/>
        <line id="線_337" data-name="線 337" x2="12.604" y2="7.344" transform="translate(2.501 53.394)" fill="none" stroke="#cfd6e6" stroke-linecap="round" stroke-linejoin="round" stroke-width="3"/>
        <line id="線_338" data-name="線 338" x2="38.949" y2="22.694" transform="translate(0 67.34)" fill="none" stroke="#f2b622" stroke-linecap="round" stroke-linejoin="round" stroke-width="3"/>
        <line id="線_339" data-name="線 339" x2="15.857" y2="9.239" transform="translate(71.32 46.565)" fill="none" stroke="#f2b622" stroke-linecap="round" stroke-linejoin="round" stroke-width="3"/>
        <line id="線_340" data-name="線 340" x2="30.14" y2="17.561" transform="translate(25.323 19.764)" fill="none" stroke="#cfd6e6" stroke-linecap="round" stroke-linejoin="round" stroke-width="3"/>
        <line id="線_341" data-name="線 341" x2="59.85" y2="34.872" transform="translate(22.951 32.986)" fill="none" stroke="#f2b622" stroke-linecap="round" stroke-linejoin="round" stroke-width="3"/>
        <line id="線_342" data-name="線 342" x2="18.006" y2="10.491" transform="translate(62.02 72.845)" fill="none" stroke="#cfd6e6" stroke-linecap="round" stroke-linejoin="round" stroke-width="3"/>
        <line id="線_343" data-name="線 343" x2="16.004" y2="9.541" transform="translate(37.343 58.495)" fill="none" stroke="#cfd6e6" stroke-linecap="round" stroke-linejoin="round" stroke-width="3"/>
        <line id="線_344" data-name="線 344" x2="10.333" y2="6.021" transform="translate(20.175 48.464)" fill="none" stroke="#cfd6e6" stroke-linecap="round" stroke-linejoin="round" stroke-width="3"/>
      </g>
      <g id="グループ_2062" data-name="グループ 2062" transform="translate(915.375 1123.25)">
        <path id="パス_13317" data-name="パス 13317" d="M-1669.941,323.28l-18.918-10.525a7.558,7.558,0,0,1-3.439-8.121l4.947-18.411a4.166,4.166,0,0,1,6.341-2.68l18.918,10.525a7.558,7.558,0,0,1,3.439,8.121L-1663.6,320.6A4.166,4.166,0,0,1-1669.941,323.28Z" transform="translate(1712.241 -282.9)" fill="#5c6bc0"/>
        <path id="パス_13318" data-name="パス 13318" d="M-1699.917,433.511l-18.918-10.525a7.557,7.557,0,0,1-3.439-8.121l4.947-18.411a4.166,4.166,0,0,1,6.341-2.68l18.918,10.525a7.556,7.556,0,0,1,3.439,8.121l-4.947,18.411A4.166,4.166,0,0,1-1699.917,433.511Z" transform="translate(1732.339 -356.807)" fill="#ffa726"/>
        <path id="パス_13319" data-name="パス 13319" d="M-1729.825,542.8l-18.918-10.525a7.557,7.557,0,0,1-3.438-8.121l4.946-18.411a4.166,4.166,0,0,1,6.341-2.68l18.918,10.525a7.556,7.556,0,0,1,3.439,8.121l-4.947,18.411A4.166,4.166,0,0,1-1729.825,542.8Z" transform="translate(1752.391 -430.081)" fill="#8695e6"/>
        <path id="パス_13320" data-name="パス 13320" d="M-1683.36,436.68h0c-1.045-.585-1.193-2.274-.235-2.676a1.485,1.485,0,0,0,.537-2l-.374-.885a1.489,1.489,0,0,0-1.807-1.012h0c-.958.4-2.066-.882-1.755-2.037h0a1.977,1.977,0,0,0-.9-2.128l-.751-.421a1.084,1.084,0,0,0-1.658.7h0c-.31,1.155-1.729,1.026-2.248-.2h0a1.489,1.489,0,0,0-1.807-1.012l-.689.29a1.484,1.484,0,0,0-.536,2c.519,1.23-.379,2.333-1.424,1.748h0a1.084,1.084,0,0,0-1.657.7l-.223.831a1.977,1.977,0,0,0,.9,2.128h0c1.045.585,1.193,2.273.235,2.676h0a1.485,1.485,0,0,0-.536,2l.373.884a1.489,1.489,0,0,0,1.807,1.012h0c.958-.4,2.066.882,1.755,2.037h0a1.977,1.977,0,0,0,.9,2.128l.752.421a1.084,1.084,0,0,0,1.657-.7h0c.31-1.155,1.728-1.026,2.248.2a1.489,1.489,0,0,0,1.807,1.012l.689-.29a1.484,1.484,0,0,0,.537-2h0c-.519-1.23.379-2.333,1.424-1.748h0a1.084,1.084,0,0,0,1.658-.7l.223-.83A1.977,1.977,0,0,0-1683.36,436.68Zm-4.292-.3a2.564,2.564,0,0,1-3.919,1.649A4.675,4.675,0,0,1-1693.7,433a2.563,2.563,0,0,1,3.919-1.649A4.674,4.674,0,0,1-1687.652,436.38Z" transform="translate(1716.554 -378.125)" fill="#fff"/>
        <g id="グループ_2059" data-name="グループ 2059" transform="translate(6.246 83.445)">
          <g id="グループ_2056" data-name="グループ 2056">
            <path id="パス_13321" data-name="パス 13321" d="M-1730.96,547.663l-2.478-8.717,7.094-2.818.51,1.863-5.21,2.069,1.91,6.866Z" transform="translate(1733.438 -536.128)" fill="#fff"/>
          </g>
          <g id="グループ_2057" data-name="グループ 2057" transform="translate(12.537 4.743)">
            <path id="パス_13322" data-name="パス 13322" d="M-1694.6,563.039l-.791-2.369,4.886-2.473-2.385-6.926,2.158-.75,2.876,9.041Z" transform="translate(1695.39 -550.522)" fill="#fff"/>
          </g>
          <g id="グループ_2058" data-name="グループ 2058" transform="translate(5.302 1.48)">
            <path id="パス_13323" data-name="パス 13323" d="M-1715.357,555.286l-1.989-.854,6.807-13.812,1.989.854Z" transform="translate(1717.347 -540.619)" fill="#fff"/>
          </g>
        </g>
        <g id="グループ_2060" data-name="グループ 2060" transform="translate(36.78 12.806)">
          <path id="パス_13324" data-name="パス 13324" d="M-1640.37,338.115l.353.223c.779.495,1.061.311,1.348-.839.282-1.129.458-2.18.776-3.456.4-1.589.993-1.913,1.983-1.575l.021-.083a3.005,3.005,0,0,1-.762-3.318c.318-1.276.643-2.232.925-3.361.287-1.15.161-1.593-.618-2.088l-.352-.224.407-1.631,1.168.742c1.633,1.037,2.2,2.219,1.634,4.477-.37,1.485-.749,2.141-1.078,3.458a2.376,2.376,0,0,0,1.209,2.56l-.448,1.8c-1.217-.724-1.8-.2-1.982.535-.329,1.317-.336,2.209-.707,3.693-.563,2.259-1.483,2.5-3.115,1.461l-1.169-.742Z" transform="translate(1640.777 -321.762)" fill="#fff"/>
        </g>
        <g id="グループ_2061" data-name="グループ 2061" transform="translate(27.969 7.795)">
          <path id="パス_13325" data-name="パス 13325" d="M-1664.5,325.869l-1.168-.742c-1.633-1.036-2.2-2.218-1.634-4.477.37-1.484.749-2.141,1.078-3.458a2.375,2.375,0,0,0-1.209-2.56l.449-1.8c1.217.724,1.8.2,1.981-.535.329-1.317.336-2.209.707-3.694.564-2.258,1.483-2.5,3.116-1.462l1.168.742-.407,1.631-.353-.224c-.779-.495-1.061-.311-1.349.84-.282,1.129-.458,2.18-.776,3.456-.4,1.589-.993,1.913-1.983,1.575l-.021.083a3.006,3.006,0,0,1,.762,3.318c-.318,1.276-.643,2.233-.925,3.361-.287,1.15-.161,1.593.618,2.088l.352.224Z" transform="translate(1667.516 -306.555)" fill="#fff"/>
        </g>
      </g>
      <g id="グループ_2063" data-name="グループ 2063" transform="translate(1102.292 1266.69)">
        <path id="パス_13326" data-name="パス 13326" d="M-1150.745,757.705l-15.174-8.7c-7.6-4.358-11.075-14.4-7.715-22.319h0c3.359-7.918,12.327-10.831,19.93-6.474l15.173,8.7c7.6,4.358,11.074,14.4,7.716,22.319h0C-1134.174,759.149-1143.143,762.063-1150.745,757.705Z" transform="translate(1178.291 -718.192)" fill="#5c6bc0"/>
        <path id="パス_13327" data-name="パス 13327" d="M-1185.157,792.108l9.258-14.148,4.206,9.24Z" transform="translate(1185.157 -758.265)" fill="#5c6bc0"/>
        <line id="線_345" data-name="線 345" x2="24.087" y2="13.687" transform="translate(14.484 9.453)" fill="none" stroke="#fff" stroke-linecap="round" stroke-linejoin="round" stroke-width="1.939"/>
        <line id="線_346" data-name="線 346" x2="24.087" y2="13.687" transform="translate(11.806 16.348)" fill="none" stroke="#fff" stroke-linecap="round" stroke-linejoin="round" stroke-width="1.939"/>
      </g>
      <g id="グループ_2065" data-name="グループ 2065" transform="translate(1067.437 1140.583)">
        <g id="グループ_2064" data-name="グループ 2064" transform="translate(0 0)">
          <path id="パス_13328" data-name="パス 13328" d="M-1196.364,484.96l-94.57-53.649,21.788-73.3,94.57,53.649Z" transform="translate(1290.934 -350.595)" fill="#5c6bc0"/>
          <path id="パス_13329" data-name="パス 13329" d="M-1131.581,397.752l-94.77-53.233,2.712-9.02,94.57,53.649Z" transform="translate(1247.632 -335.499)" fill="#e8f5fc"/>
          <ellipse id="楕円形_199" data-name="楕円形 199" cx="1.397" cy="1.757" rx="1.397" ry="1.757" transform="translate(25.675 6.232) rotate(-23.673)" fill="#bea6ff"/>
          <path id="パス_13330" data-name="パス 13330" d="M-1195.985,362.057a1.206,1.206,0,0,1-1.839.722,2.09,2.09,0,0,1-.941-2.3,1.206,1.206,0,0,1,1.839-.722A2.09,2.09,0,0,1-1195.985,362.057Z" transform="translate(1229.184 -351.634)" fill="#bea6ff"/>
          <path id="パス_13331" data-name="パス 13331" d="M-1183.39,369.2a1.206,1.206,0,0,1-1.839.722,2.09,2.09,0,0,1-.941-2.3,1.206,1.206,0,0,1,1.839-.722A2.09,2.09,0,0,1-1183.39,369.2Z" transform="translate(1220.74 -356.425)" fill="#bea6ff"/>
        </g>
      </g>
      <path id="パス_13332" data-name="パス 13332" d="M-1093.156,581.667l29.4,16.521,21.482-72.113" transform="translate(2225.764 677.308)" fill="none" stroke="#3d270c" stroke-linecap="round" stroke-linejoin="round" stroke-width="2.324"/>
      <g id="グループ_2068" data-name="グループ 2068" transform="translate(-2269.619 3206.091)">
        <path id="パス_13333" data-name="パス 13333" d="M3361.49-2038.421l-94.31-27.086,9.249,13.7Z" transform="translate(0)" fill="#f4efea"/>
        <path id="パス_13334" data-name="パス 13334" d="M3386.069-1996.233l-85.062-13.383-1.264,34.158Z" transform="translate(-24.579 -42.188)" fill="#7e7c79"/>
        <path id="パス_13335" data-name="パス 13335" d="M3310.468-1955.643l-10.724,20.925,86.326-20.775Z" transform="translate(-24.579 -82.928)" fill="#5d5d5d"/>
        <path id="パス_13336" data-name="パス 13336" d="M3356.905-1929.52l62.182-25.974-75.6-.15Z" transform="translate(-57.596 -82.928)" fill="#f4efea"/>
      </g>
    </g>
  </g>
</svg>
